<svg xmlns="http://www.w3.org/2000/svg" version="1.1" baseProfile="full" width="900" height="500" style="user-select: none; position: absolute; left: 0px; top: 0px;"><g><rect width="900" height="500" x="0" y="0" id="0" style="fill: transparent;"></rect></g><g><path d="M 463.0174 159.904 L 473.4793 150.6963 L 488.4793 150.6963" fill="none" stroke="#c23531" stroke-width="1" paint-order="fill" stroke-opacity="undefined" stroke-dasharray="" stroke-linecap="butt" stroke-linejoin="miter" stroke-miterlimit="10" clip-path="none"></path><path d="M 462.9092 390.235 L 473.3746 399.4538 L 488.3746 399.4538" fill="none" stroke="#2f4554" stroke-width="1" paint-order="fill" stroke-opacity="undefined" stroke-dasharray="" stroke-linecap="butt" stroke-linejoin="miter" stroke-miterlimit="10" clip-path="none"></path><path d="M 334.9786 461.4326 L 377.253 476.3472 L 392.253 476.3472" fill="none" stroke="#61a0a8" stroke-width="1" paint-order="fill" stroke-opacity="undefined" stroke-dasharray="" stroke-linecap="butt" stroke-linejoin="miter" stroke-miterlimit="10" clip-path="none"></path><path d="M 201.7364 424.4242 L 189.1805 436.3782 L 174.1805 436.3782" fill="none" stroke="#d48265" stroke-width="1" paint-order="fill" stroke-opacity="undefined" stroke-dasharray="" stroke-linecap="butt" stroke-linejoin="miter" stroke-miterlimit="10" clip-path="none"></path><path d="M 131.12 311.6658 L 121.1352 314.5991 L 106.1352 314.5991" fill="none" stroke="#749f83" stroke-width="1" paint-order="fill" stroke-opacity="undefined" stroke-dasharray="" stroke-linecap="butt" stroke-linejoin="miter" stroke-miterlimit="10" clip-path="none"></path><path d="M 134.5831 223.9512 L 123.2115 225.4835 L 108.2115 225.4835" fill="none" stroke="#ca8622" stroke-width="1" paint-order="fill" stroke-opacity="undefined" stroke-dasharray="" stroke-linecap="butt" stroke-linejoin="miter" stroke-miterlimit="10" clip-path="none"></path><path d="M 148.9322 187.9498 L 126.6436 212.5992 L 111.6436 212.5992" fill="none" stroke="#bda29a" stroke-width="1" paint-order="fill" stroke-opacity="undefined" stroke-dasharray="" stroke-linecap="butt" stroke-linejoin="miter" stroke-miterlimit="10" clip-path="none"></path><path d="M 167.6287 159.0779 L 131.3871 198.5275 L 116.3871 198.5275" fill="none" stroke="#6e7074" stroke-width="1" paint-order="fill" stroke-opacity="undefined" stroke-dasharray="" stroke-linecap="butt" stroke-linejoin="miter" stroke-miterlimit="10" clip-path="none"></path><path d="M 189.6601 135.5505 L 137.0172 184.9497 L 122.0172 184.9497" fill="none" stroke="#546570" stroke-width="1" paint-order="fill" stroke-opacity="undefined" stroke-dasharray="" stroke-linecap="butt" stroke-linejoin="miter" stroke-miterlimit="10" clip-path="none"></path><path d="M 212.491 118.0027 L 143.4287 172.0113 L 128.4287 172.0113" fill="none" stroke="#c4ccd3" stroke-width="1" paint-order="fill" stroke-opacity="undefined" stroke-dasharray="" stroke-linecap="butt" stroke-linejoin="miter" stroke-miterlimit="10" clip-path="none"></path><path d="M 231.5992 107.0698 L 150.3819 160.0113 L 135.3819 160.0113" fill="none" stroke="#f05b72" stroke-width="1" paint-order="fill" stroke-opacity="undefined" stroke-dasharray="" stroke-linecap="butt" stroke-linejoin="miter" stroke-miterlimit="10" clip-path="none"></path><path d="M 247.1429 100.2096 L 158.4211 148.0113 L 143.4211 148.0113" fill="none" stroke="#ef5b9c" stroke-width="1" paint-order="fill" stroke-opacity="undefined" stroke-dasharray="" stroke-linecap="butt" stroke-linejoin="miter" stroke-miterlimit="10" clip-path="none"></path><path d="M 261.6572 95.248 L 167.7027 136.0113 L 152.7027 136.0113" fill="none" stroke="#f47920" stroke-width="1" paint-order="fill" stroke-opacity="undefined" stroke-dasharray="" stroke-linecap="butt" stroke-linejoin="miter" stroke-miterlimit="10" clip-path="none"></path><path d="M 273.0756 92.2472 L 178.4476 124.0113 L 163.4476 124.0113" fill="none" stroke="#905a3d" stroke-width="1" paint-order="fill" stroke-opacity="undefined" stroke-dasharray="" stroke-linecap="butt" stroke-linejoin="miter" stroke-miterlimit="10" clip-path="none"></path><path d="M 281.7193 90.4773 L 190.9829 112.0113 L 175.9829 112.0113" fill="none" stroke="#fab27b" stroke-width="1" paint-order="fill" stroke-opacity="undefined" stroke-dasharray="" stroke-linecap="butt" stroke-linejoin="miter" stroke-miterlimit="10" clip-path="none"></path><path d="M 288.9347 89.3206 L 205.8288 100.0113 L 190.8288 100.0113" fill="none" stroke="#2a5caa" stroke-width="1" paint-order="fill" stroke-opacity="undefined" stroke-dasharray="" stroke-linecap="butt" stroke-linejoin="miter" stroke-miterlimit="10" clip-path="none"></path><path d="M 295.2216 88.5461 L 223.9078 88.0113 L 208.9078 88.0113" fill="none" stroke="#444693" stroke-width="1" paint-order="fill" stroke-opacity="undefined" stroke-dasharray="" stroke-linecap="butt" stroke-linejoin="miter" stroke-miterlimit="10" clip-path="none"></path><path d="M 301.2047 88.0082 L 247.1949 76.0113 L 232.1949 76.0113" fill="none" stroke="#726930" stroke-width="1" paint-order="fill" stroke-opacity="undefined" stroke-dasharray="" stroke-linecap="butt" stroke-linejoin="miter" stroke-miterlimit="10" clip-path="none"></path><path d="M 306.9617 87.6724 L 306.3186 64.0113 L 291.3186 64.0113" fill="none" stroke="#b2d235" stroke-width="1" paint-order="fill" stroke-opacity="undefined" stroke-dasharray="" stroke-linecap="butt" stroke-linejoin="miter" stroke-miterlimit="10" clip-path="none"></path><path d="M 312.3627 87.5185 L 312.1517 52.0113 L 297.1517 52.0113" fill="none" stroke="#6d8346" stroke-width="1" paint-order="fill" stroke-opacity="undefined" stroke-dasharray="" stroke-linecap="butt" stroke-linejoin="miter" stroke-miterlimit="10" clip-path="none"></path><path d="M 315 200 L 315 87.5 A 187.5 187.5 0 0 1 496.7196 321.1977 L 387.6878 293.4791 A 75 75 0 0 0 315 200 Z" fill="#c23531" fill-opacity="1" stroke="none" clip-path="none"></path><path d="M 387.6878 293.4791 L 496.7196 321.1977 A 187.5 187.5 0 0 1 404.2373 439.9029 L 350.6949 340.9611 A 75 75 0 0 0 387.6878 293.4791 Z" fill="#2f4554" fill-opacity="1" stroke="none" clip-path="none"></path><path d="M 350.6949 340.9611 L 404.2373 439.9029 A 187.5 187.5 0 0 1 262.7306 455.0671 L 294.0923 347.0268 A 75 75 0 0 0 350.6949 340.9611 Z" fill="#61a0a8" fill-opacity="1" stroke="none" clip-path="none"></path><path d="M 294.0923 347.0268 L 262.7306 455.0671 A 187.5 187.5 0 0 1 155.7531 373.9781 L 251.3012 314.5912 A 75 75 0 0 0 294.0923 347.0268 Z" fill="#d48265" fill-opacity="1" stroke="none" clip-path="none"></path><path d="M 251.3012 314.5912 L 155.7531 373.9781 A 187.5 187.5 0 0 1 129.9692 244.6712 L 240.9877 262.8685 A 75 75 0 0 0 251.3012 314.5912 Z" fill="#749f83" fill-opacity="1" stroke="none" clip-path="none"></path><path d="M 240.9877 262.8685 L 129.9692 244.6712 A 187.5 187.5 0 0 1 141.5094 203.8856 L 245.6038 246.5542 A 75 75 0 0 0 240.9877 262.8685 Z" fill="#ca8622" fill-opacity="1" stroke="none" clip-path="none"></path><path d="M 245.6038 246.5542 L 141.5094 203.8856 A 187.5 187.5 0 0 1 157.8149 172.7792 L 252.126 234.1117 A 75 75 0 0 0 245.6038 246.5542 Z" fill="#bda29a" fill-opacity="1" stroke="none" clip-path="none"></path><path d="M 252.126 234.1117 L 157.8149 172.7792 A 187.5 187.5 0 0 1 178.6331 146.3131 L 260.4532 223.5252 A 75 75 0 0 0 252.126 234.1117 Z" fill="#6e7074" fill-opacity="1" stroke="none" clip-path="none"></path><path d="M 260.4532 223.5252 L 178.6331 146.3131 A 187.5 187.5 0 0 1 201.5337 125.7296 L 269.6135 215.2919 A 75 75 0 0 0 260.4532 223.5252 Z" fill="#546570" fill-opacity="1" stroke="none" clip-path="none"></path><path d="M 269.6135 215.2919 L 201.5337 125.7296 A 187.5 187.5 0 0 1 223.9724 111.0786 L 278.589 209.4314 A 75 75 0 0 0 269.6135 215.2919 Z" fill="#c4ccd3" fill-opacity="1" stroke="none" clip-path="none"></path><path d="M 278.589 209.4314 L 223.9724 111.0786 A 187.5 187.5 0 0 1 239.4021 103.4156 L 284.7608 206.3662 A 75 75 0 0 0 278.589 209.4314 Z" fill="#f05b72" fill-opacity="1" stroke="none" clip-path="none"></path><path d="M 284.7608 206.3662 L 239.4021 103.4156 A 187.5 187.5 0 0 1 255.0193 97.3527 L 291.0077 203.9411 A 75 75 0 0 0 284.7608 206.3662 Z" fill="#ef5b9c" fill-opacity="1" stroke="none" clip-path="none"></path><path d="M 291.0077 203.9411 L 255.0193 97.3527 A 187.5 187.5 0 0 1 268.3687 93.3912 L 296.3475 202.3565 A 75 75 0 0 0 291.0077 203.9411 Z" fill="#f47920" fill-opacity="1" stroke="none" clip-path="none"></path><path d="M 296.3475 202.3565 L 268.3687 93.3912 A 187.5 187.5 0 0 1 277.8104 91.2252 L 300.1242 201.4901 A 75 75 0 0 0 296.3475 202.3565 Z" fill="#905a3d" fill-opacity="1" stroke="none" clip-path="none"></path><path d="M 300.1242 201.4901 L 277.8104 91.2252 A 187.5 187.5 0 0 1 285.6431 89.8125 L 303.2572 200.925 A 75 75 0 0 0 300.1242 201.4901 Z" fill="#fab27b" fill-opacity="1" stroke="none" clip-path="none"></path><path d="M 303.2572 200.925 L 285.6431 89.8125 A 187.5 187.5 0 0 1 292.2345 88.8872 L 305.8938 200.5549 A 75 75 0 0 0 303.2572 200.925 Z" fill="#2a5caa" fill-opacity="1" stroke="none" clip-path="none"></path><path d="M 305.8938 200.5549 L 292.2345 88.8872 A 187.5 187.5 0 0 1 298.2138 88.2529 L 308.2855 200.3012 A 75 75 0 0 0 305.8938 200.5549 Z" fill="#444693" fill-opacity="1" stroke="none" clip-path="none"></path><path d="M 308.2855 200.3012 L 298.2138 88.2529 A 187.5 187.5 0 0 1 304.1992 87.8113 L 310.6797 200.1245 A 75 75 0 0 0 308.2855 200.3012 Z" fill="#726930" fill-opacity="1" stroke="none" clip-path="none"></path><path d="M 310.6797 200.1245 L 304.1992 87.8113 A 187.5 187.5 0 0 1 309.726 87.5742 L 312.8904 200.0297 A 75 75 0 0 0 310.6797 200.1245 Z" fill="#b2d235" fill-opacity="1" stroke="none" clip-path="none"></path><path d="M 312.8904 200.0297 L 309.726 87.5742 A 187.5 187.5 0 0 1 315 87.5 L 315 200 A 75 75 0 0 0 312.8904 200.0297 Z" fill="#6d8346" fill-opacity="1" stroke="none" clip-path="none"></path><text transform="matrix(1,0,0,1,0,0)" fill="#c23531" fill-opacity="undefined" stroke="none" clip-path="none" style="font: 12px &quot;Microsoft YaHei&quot;;"><tspan dominant-baseline="middle" text-anchor="start" x="493.4792661746353" y="150.69633333741243">United States of America</tspan></text><text transform="matrix(1,0,0,1,0,0)" fill="#2f4554" fill-opacity="undefined" stroke="none" clip-path="none" style="font: 12px &quot;Microsoft YaHei&quot;;"><tspan dominant-baseline="middle" text-anchor="start" x="493.3745864076101" y="399.4538345086806">Italy</tspan></text><text transform="matrix(1,0,0,1,0,0)" fill="#61a0a8" fill-opacity="undefined" stroke="none" clip-path="none" style="font: 12px &quot;Microsoft YaHei&quot;;"><tspan dominant-baseline="middle" text-anchor="start" x="397.2530437202024" y="476.3471797636174">United Kingdom</tspan></text><text transform="matrix(1,0,0,1,0,0)" fill="#d48265" fill-opacity="undefined" stroke="none" clip-path="none" style="font: 12px &quot;Microsoft YaHei&quot;;"><tspan dominant-baseline="middle" text-anchor="end" x="169.18048512173178" y="436.3781865081725">Spain</tspan></text><text transform="matrix(1,0,0,1,0,0)" fill="#749f83" fill-opacity="undefined" stroke="none" clip-path="none" style="font: 12px &quot;Microsoft YaHei&quot;;"><tspan dominant-baseline="middle" text-anchor="end" x="101.1351807091074" y="314.59910440494644">France</tspan></text><text transform="matrix(1,0,0,1,0,0)" fill="#ca8622" fill-opacity="undefined" stroke="none" clip-path="none" style="font: 12px &quot;Microsoft YaHei&quot;;"><tspan dominant-baseline="middle" text-anchor="end" x="103.21149497334363" y="225.4835467892343">Belgium</tspan></text><text transform="matrix(1,0,0,1,0,0)" fill="#bda29a" fill-opacity="undefined" stroke="none" clip-path="none" style="font: 12px &quot;Microsoft YaHei&quot;;"><tspan dominant-baseline="middle" text-anchor="end" x="106.64361231212376" y="212.59915297322152">Germany</tspan></text><text transform="matrix(1,0,0,1,0,0)" fill="#6e7074" fill-opacity="undefined" stroke="none" clip-path="none" style="font: 12px &quot;Microsoft YaHei&quot;;"><tspan dominant-baseline="middle" text-anchor="end" x="111.38711815601266" y="198.52749286713265">Iran</tspan></text><text transform="matrix(1,0,0,1,0,0)" fill="#546570" fill-opacity="undefined" stroke="none" clip-path="none" style="font: 12px &quot;Microsoft YaHei&quot;;"><tspan dominant-baseline="middle" text-anchor="end" x="117.01717352450851" y="184.94973392168447">Brazil</tspan></text><text transform="matrix(1,0,0,1,0,0)" fill="#c4ccd3" fill-opacity="undefined" stroke="none" clip-path="none" style="font: 12px &quot;Microsoft YaHei&quot;;"><tspan dominant-baseline="middle" text-anchor="end" x="123.42866917128168" y="172.01128603330483">Netherlands</tspan></text><text transform="matrix(1,0,0,1,0,0)" fill="#f05b72" fill-opacity="undefined" stroke="none" clip-path="none" style="font: 12px &quot;Microsoft YaHei&quot;;"><tspan dominant-baseline="middle" text-anchor="end" x="130.38189238244922" y="160.01128603330483">Turkey</tspan></text><text transform="matrix(1,0,0,1,0,0)" fill="#ef5b9c" fill-opacity="undefined" stroke="none" clip-path="none" style="font: 12px &quot;Microsoft YaHei&quot;;"><tspan dominant-baseline="middle" text-anchor="end" x="138.42107564863556" y="148.01128603330483">Canada</tspan></text><text transform="matrix(1,0,0,1,0,0)" fill="#f47920" fill-opacity="undefined" stroke="none" clip-path="none" style="font: 12px &quot;Microsoft YaHei&quot;;"><tspan dominant-baseline="middle" text-anchor="end" x="147.70269760129366" y="136.01128603330483">Sweden</tspan></text><text transform="matrix(1,0,0,1,0,0)" fill="#905a3d" fill-opacity="undefined" stroke="none" clip-path="none" style="font: 12px &quot;Microsoft YaHei&quot;;"><tspan dominant-baseline="middle" text-anchor="end" x="158.44758623807965" y="124.01128603330481">Mexico</tspan></text><text transform="matrix(1,0,0,1,0,0)" fill="#fab27b" fill-opacity="undefined" stroke="none" clip-path="none" style="font: 12px &quot;Microsoft YaHei&quot;;"><tspan dominant-baseline="middle" text-anchor="end" x="170.9828860187692" y="112.01128603330481">Switzerland</tspan></text><text transform="matrix(1,0,0,1,0,0)" fill="#2a5caa" fill-opacity="undefined" stroke="none" clip-path="none" style="font: 12px &quot;Microsoft YaHei&quot;;"><tspan dominant-baseline="middle" text-anchor="end" x="185.82879583946684" y="100.01128603330481">Ireland</tspan></text><text transform="matrix(1,0,0,1,0,0)" fill="#444693" fill-opacity="undefined" stroke="none" clip-path="none" style="font: 12px &quot;Microsoft YaHei&quot;;"><tspan dominant-baseline="middle" text-anchor="end" x="203.90782723755262" y="88.01128603330481">India</tspan></text><text transform="matrix(1,0,0,1,0,0)" fill="#726930" fill-opacity="undefined" stroke="none" clip-path="none" style="font: 12px &quot;Microsoft YaHei&quot;;"><tspan dominant-baseline="middle" text-anchor="end" x="227.19486510527548" y="76.01128603330481">Russia</tspan></text><text transform="matrix(1,0,0,1,0,0)" fill="#b2d235" fill-opacity="undefined" stroke="none" clip-path="none" style="font: 12px &quot;Microsoft YaHei&quot;;"><tspan dominant-baseline="middle" text-anchor="end" x="286.318630003884" y="64.01128603330481">Portugal</tspan></text><text transform="matrix(1,0,0,1,0,0)" fill="#6d8346" fill-opacity="undefined" stroke="none" clip-path="none" style="font: 12px &quot;Microsoft YaHei&quot;;"><tspan dominant-baseline="middle" text-anchor="end" x="292.15173160115813" y="52.01128603330482">Peru</tspan></text><path d="M -5 -5 L 176.8789 -5 L 176.8789 475 L -5 475 L -5 -5 Z" fill="rgba(0,0,0,0)" fill-opacity="1" stroke="#ccc" stroke-width="0" paint-order="fill" stroke-opacity="1" stroke-dasharray="" stroke-linecap="butt" stroke-linejoin="miter" stroke-miterlimit="10" transform="matrix(1,0,0,1,713.12109375,15)" clip-path="none"></path><path d="M 3.5 0 L 21.5 0 A 3.5 3.5 0 0 1 25 3.5 L 25 10.5 A 3.5 3.5 0 0 1 21.5 14 L 3.5 14 A 3.5 3.5 0 0 1 0 10.5 L 0 3.5 A 3.5 3.5 0 0 1 3.5 0 Z" fill="#c23531" fill-opacity="1" stroke="none" transform="matrix(1,0,0,1,713.12109375,15)" clip-path="none"></path><text transform="matrix(1,0,0,1,713.12109375,15)" fill="#333" fill-opacity="1" stroke="none" clip-path="none" style="font: 12px &quot;Microsoft YaHei&quot;;"><tspan dominant-baseline="middle" text-anchor="start" x="30" y="7">United States of America</tspan></text><path d="M 3.5 0 L 21.5 0 A 3.5 3.5 0 0 1 25 3.5 L 25 10.5 A 3.5 3.5 0 0 1 21.5 14 L 3.5 14 A 3.5 3.5 0 0 1 0 10.5 L 0 3.5 A 3.5 3.5 0 0 1 3.5 0 Z" fill="#2f4554" fill-opacity="1" stroke="none" transform="matrix(1,0,0,1,713.12109375,39)" clip-path="none"></path><text transform="matrix(1,0,0,1,713.12109375,39)" fill="#333" fill-opacity="1" stroke="none" clip-path="none" style="font: 12px &quot;Microsoft YaHei&quot;;"><tspan dominant-baseline="middle" text-anchor="start" x="30" y="7">Italy</tspan></text><path d="M 3.5 0 L 21.5 0 A 3.5 3.5 0 0 1 25 3.5 L 25 10.5 A 3.5 3.5 0 0 1 21.5 14 L 3.5 14 A 3.5 3.5 0 0 1 0 10.5 L 0 3.5 A 3.5 3.5 0 0 1 3.5 0 Z" fill="#61a0a8" fill-opacity="1" stroke="none" transform="matrix(1,0,0,1,713.12109375,63)" clip-path="none"></path><text transform="matrix(1,0,0,1,713.12109375,63)" fill="#333" fill-opacity="1" stroke="none" clip-path="none" style="font: 12px &quot;Microsoft YaHei&quot;;"><tspan dominant-baseline="middle" text-anchor="start" x="30" y="7">United Kingdom</tspan></text><path d="M 3.5 0 L 21.5 0 A 3.5 3.5 0 0 1 25 3.5 L 25 10.5 A 3.5 3.5 0 0 1 21.5 14 L 3.5 14 A 3.5 3.5 0 0 1 0 10.5 L 0 3.5 A 3.5 3.5 0 0 1 3.5 0 Z" fill="#d48265" fill-opacity="1" stroke="none" transform="matrix(1,0,0,1,713.12109375,87)" clip-path="none"></path><text transform="matrix(1,0,0,1,713.12109375,87)" fill="#333" fill-opacity="1" stroke="none" clip-path="none" style="font: 12px &quot;Microsoft YaHei&quot;;"><tspan dominant-baseline="middle" text-anchor="start" x="30" y="7">Spain</tspan></text><path d="M 3.5 0 L 21.5 0 A 3.5 3.5 0 0 1 25 3.5 L 25 10.5 A 3.5 3.5 0 0 1 21.5 14 L 3.5 14 A 3.5 3.5 0 0 1 0 10.5 L 0 3.5 A 3.5 3.5 0 0 1 3.5 0 Z" fill="#749f83" fill-opacity="1" stroke="none" transform="matrix(1,0,0,1,713.12109375,111)" clip-path="none"></path><text transform="matrix(1,0,0,1,713.12109375,111)" fill="#333" fill-opacity="1" stroke="none" clip-path="none" style="font: 12px &quot;Microsoft YaHei&quot;;"><tspan dominant-baseline="middle" text-anchor="start" x="30" y="7">France</tspan></text><path d="M 3.5 0 L 21.5 0 A 3.5 3.5 0 0 1 25 3.5 L 25 10.5 A 3.5 3.5 0 0 1 21.5 14 L 3.5 14 A 3.5 3.5 0 0 1 0 10.5 L 0 3.5 A 3.5 3.5 0 0 1 3.5 0 Z" fill="#ca8622" fill-opacity="1" stroke="none" transform="matrix(1,0,0,1,713.12109375,135)" clip-path="none"></path><text transform="matrix(1,0,0,1,713.12109375,135)" fill="#333" fill-opacity="1" stroke="none" clip-path="none" style="font: 12px &quot;Microsoft YaHei&quot;;"><tspan dominant-baseline="middle" text-anchor="start" x="30" y="7">Belgium</tspan></text><path d="M 3.5 0 L 21.5 0 A 3.5 3.5 0 0 1 25 3.5 L 25 10.5 A 3.5 3.5 0 0 1 21.5 14 L 3.5 14 A 3.5 3.5 0 0 1 0 10.5 L 0 3.5 A 3.5 3.5 0 0 1 3.5 0 Z" fill="#bda29a" fill-opacity="1" stroke="none" transform="matrix(1,0,0,1,713.12109375,159)" clip-path="none"></path><text transform="matrix(1,0,0,1,713.12109375,159)" fill="#333" fill-opacity="1" stroke="none" clip-path="none" style="font: 12px &quot;Microsoft YaHei&quot;;"><tspan dominant-baseline="middle" text-anchor="start" x="30" y="7">Germany</tspan></text><path d="M 3.5 0 L 21.5 0 A 3.5 3.5 0 0 1 25 3.5 L 25 10.5 A 3.5 3.5 0 0 1 21.5 14 L 3.5 14 A 3.5 3.5 0 0 1 0 10.5 L 0 3.5 A 3.5 3.5 0 0 1 3.5 0 Z" fill="#6e7074" fill-opacity="1" stroke="none" transform="matrix(1,0,0,1,713.12109375,183)" clip-path="none"></path><text transform="matrix(1,0,0,1,713.12109375,183)" fill="#333" fill-opacity="1" stroke="none" clip-path="none" style="font: 12px &quot;Microsoft YaHei&quot;;"><tspan dominant-baseline="middle" text-anchor="start" x="30" y="7">Iran</tspan></text><path d="M 3.5 0 L 21.5 0 A 3.5 3.5 0 0 1 25 3.5 L 25 10.5 A 3.5 3.5 0 0 1 21.5 14 L 3.5 14 A 3.5 3.5 0 0 1 0 10.5 L 0 3.5 A 3.5 3.5 0 0 1 3.5 0 Z" fill="#546570" fill-opacity="1" stroke="none" transform="matrix(1,0,0,1,713.12109375,207)" clip-path="none"></path><text transform="matrix(1,0,0,1,713.12109375,207)" fill="#333" fill-opacity="1" stroke="none" clip-path="none" style="font: 12px &quot;Microsoft YaHei&quot;;"><tspan dominant-baseline="middle" text-anchor="start" x="30" y="7">Brazil</tspan></text><path d="M 3.5 0 L 21.5 0 A 3.5 3.5 0 0 1 25 3.5 L 25 10.5 A 3.5 3.5 0 0 1 21.5 14 L 3.5 14 A 3.5 3.5 0 0 1 0 10.5 L 0 3.5 A 3.5 3.5 0 0 1 3.5 0 Z" fill="#c4ccd3" fill-opacity="1" stroke="none" transform="matrix(1,0,0,1,713.12109375,231)" clip-path="none"></path><text transform="matrix(1,0,0,1,713.12109375,231)" fill="#333" fill-opacity="1" stroke="none" clip-path="none" style="font: 12px &quot;Microsoft YaHei&quot;;"><tspan dominant-baseline="middle" text-anchor="start" x="30" y="7">Netherlands</tspan></text><path d="M 3.5 0 L 21.5 0 A 3.5 3.5 0 0 1 25 3.5 L 25 10.5 A 3.5 3.5 0 0 1 21.5 14 L 3.5 14 A 3.5 3.5 0 0 1 0 10.5 L 0 3.5 A 3.5 3.5 0 0 1 3.5 0 Z" fill="#f05b72" fill-opacity="1" stroke="none" transform="matrix(1,0,0,1,713.12109375,255)" clip-path="none"></path><text transform="matrix(1,0,0,1,713.12109375,255)" fill="#333" fill-opacity="1" stroke="none" clip-path="none" style="font: 12px &quot;Microsoft YaHei&quot;;"><tspan dominant-baseline="middle" text-anchor="start" x="30" y="7">Turkey</tspan></text><path d="M 3.5 0 L 21.5 0 A 3.5 3.5 0 0 1 25 3.5 L 25 10.5 A 3.5 3.5 0 0 1 21.5 14 L 3.5 14 A 3.5 3.5 0 0 1 0 10.5 L 0 3.5 A 3.5 3.5 0 0 1 3.5 0 Z" fill="#ef5b9c" fill-opacity="1" stroke="none" transform="matrix(1,0,0,1,713.12109375,279)" clip-path="none"></path><text transform="matrix(1,0,0,1,713.12109375,279)" fill="#333" fill-opacity="1" stroke="none" clip-path="none" style="font: 12px &quot;Microsoft YaHei&quot;;"><tspan dominant-baseline="middle" text-anchor="start" x="30" y="7">Canada</tspan></text><path d="M 3.5 0 L 21.5 0 A 3.5 3.5 0 0 1 25 3.5 L 25 10.5 A 3.5 3.5 0 0 1 21.5 14 L 3.5 14 A 3.5 3.5 0 0 1 0 10.5 L 0 3.5 A 3.5 3.5 0 0 1 3.5 0 Z" fill="#f47920" fill-opacity="1" stroke="none" transform="matrix(1,0,0,1,713.12109375,303)" clip-path="none"></path><text transform="matrix(1,0,0,1,713.12109375,303)" fill="#333" fill-opacity="1" stroke="none" clip-path="none" style="font: 12px &quot;Microsoft YaHei&quot;;"><tspan dominant-baseline="middle" text-anchor="start" x="30" y="7">Sweden</tspan></text><path d="M 3.5 0 L 21.5 0 A 3.5 3.5 0 0 1 25 3.5 L 25 10.5 A 3.5 3.5 0 0 1 21.5 14 L 3.5 14 A 3.5 3.5 0 0 1 0 10.5 L 0 3.5 A 3.5 3.5 0 0 1 3.5 0 Z" fill="#905a3d" fill-opacity="1" stroke="none" transform="matrix(1,0,0,1,713.12109375,327)" clip-path="none"></path><text transform="matrix(1,0,0,1,713.12109375,327)" fill="#333" fill-opacity="1" stroke="none" clip-path="none" style="font: 12px &quot;Microsoft YaHei&quot;;"><tspan dominant-baseline="middle" text-anchor="start" x="30" y="7">Mexico</tspan></text><path d="M 3.5 0 L 21.5 0 A 3.5 3.5 0 0 1 25 3.5 L 25 10.5 A 3.5 3.5 0 0 1 21.5 14 L 3.5 14 A 3.5 3.5 0 0 1 0 10.5 L 0 3.5 A 3.5 3.5 0 0 1 3.5 0 Z" fill="#fab27b" fill-opacity="1" stroke="none" transform="matrix(1,0,0,1,713.12109375,351)" clip-path="none"></path><text transform="matrix(1,0,0,1,713.12109375,351)" fill="#333" fill-opacity="1" stroke="none" clip-path="none" style="font: 12px &quot;Microsoft YaHei&quot;;"><tspan dominant-baseline="middle" text-anchor="start" x="30" y="7">Switzerland</tspan></text><path d="M 3.5 0 L 21.5 0 A 3.5 3.5 0 0 1 25 3.5 L 25 10.5 A 3.5 3.5 0 0 1 21.5 14 L 3.5 14 A 3.5 3.5 0 0 1 0 10.5 L 0 3.5 A 3.5 3.5 0 0 1 3.5 0 Z" fill="#2a5caa" fill-opacity="1" stroke="none" transform="matrix(1,0,0,1,713.12109375,375)" clip-path="none"></path><text transform="matrix(1,0,0,1,713.12109375,375)" fill="#333" fill-opacity="1" stroke="none" clip-path="none" style="font: 12px &quot;Microsoft YaHei&quot;;"><tspan dominant-baseline="middle" text-anchor="start" x="30" y="7">Ireland</tspan></text><path d="M 3.5 0 L 21.5 0 A 3.5 3.5 0 0 1 25 3.5 L 25 10.5 A 3.5 3.5 0 0 1 21.5 14 L 3.5 14 A 3.5 3.5 0 0 1 0 10.5 L 0 3.5 A 3.5 3.5 0 0 1 3.5 0 Z" fill="#444693" fill-opacity="1" stroke="none" transform="matrix(1,0,0,1,713.12109375,399)" clip-path="none"></path><text transform="matrix(1,0,0,1,713.12109375,399)" fill="#333" fill-opacity="1" stroke="none" clip-path="none" style="font: 12px &quot;Microsoft YaHei&quot;;"><tspan dominant-baseline="middle" text-anchor="start" x="30" y="7">India</tspan></text><path d="M 3.5 0 L 21.5 0 A 3.5 3.5 0 0 1 25 3.5 L 25 10.5 A 3.5 3.5 0 0 1 21.5 14 L 3.5 14 A 3.5 3.5 0 0 1 0 10.5 L 0 3.5 A 3.5 3.5 0 0 1 3.5 0 Z" fill="#726930" fill-opacity="1" stroke="none" transform="matrix(1,0,0,1,713.12109375,423)" clip-path="none"></path><text transform="matrix(1,0,0,1,713.12109375,423)" fill="#333" fill-opacity="1" stroke="none" clip-path="none" style="font: 12px &quot;Microsoft YaHei&quot;;"><tspan dominant-baseline="middle" text-anchor="start" x="30" y="7">Russia</tspan></text><path d="M 3.5 0 L 21.5 0 A 3.5 3.5 0 0 1 25 3.5 L 25 10.5 A 3.5 3.5 0 0 1 21.5 14 L 3.5 14 A 3.5 3.5 0 0 1 0 10.5 L 0 3.5 A 3.5 3.5 0 0 1 3.5 0 Z" fill="#b2d235" fill-opacity="1" stroke="none" transform="matrix(1,0,0,1,713.12109375,447)" clip-path="none"></path><text transform="matrix(1,0,0,1,713.12109375,447)" fill="#333" fill-opacity="1" stroke="none" clip-path="none" style="font: 12px &quot;Microsoft YaHei&quot;;"><tspan dominant-baseline="middle" text-anchor="start" x="30" y="7">Portugal</tspan></text><path d="M 3.5 0 L 21.5 0 A 3.5 3.5 0 0 1 25 3.5 L 25 10.5 A 3.5 3.5 0 0 1 21.5 14 L 3.5 14 A 3.5 3.5 0 0 1 0 10.5 L 0 3.5 A 3.5 3.5 0 0 1 3.5 0 Z" fill="#6d8346" fill-opacity="1" stroke="none" transform="matrix(1,0,0,1,713.12109375,471)" clip-path="none"></path><text transform="matrix(1,0,0,1,713.12109375,471)" fill="#333" fill-opacity="1" stroke="none" clip-path="none" style="font: 12px &quot;Microsoft YaHei&quot;;"><tspan dominant-baseline="middle" text-anchor="start" x="30" y="7">Peru</tspan></text><path d="M -5 -5 L 316.7041 -5 L 316.7041 23 L -5 23 L -5 -5 Z" fill="rgba(0,0,0,0)" fill-opacity="1" stroke="#ccc" stroke-width="0" paint-order="fill" stroke-opacity="1" stroke-dasharray="" stroke-linecap="butt" stroke-linejoin="miter" stroke-miterlimit="10" transform="matrix(1,0,0,1,5,5)" clip-path="none"></path><text transform="matrix(1,0,0,1,5,5)" fill="#333" fill-opacity="1" stroke="none" clip-path="none" style="font: bolder 18px &quot;Microsoft YaHei&quot;;"><tspan dominant-baseline="middle" text-anchor="start" x="0" y="9">2020年4月海外累计新增死亡人数前20</tspan></text><defs></defs></g></svg>