<svg xmlns="http://www.w3.org/2000/svg" version="1.1" baseProfile="full" width="900" height="500" style="user-select: none; position: absolute; left: 0px; top: 0px;"><g><rect width="900" height="500" x="0" y="0" id="0" style="fill: transparent;"></rect></g><g><path d="M 90 440.5 L 810 440.5" fill="none" stroke="#ccc" stroke-width="1" paint-order="fill" stroke-opacity="1" stroke-dasharray="" stroke-linecap="butt" stroke-linejoin="miter" stroke-miterlimit="10" clip-path="none"></path><path d="M 90 376.5 L 810 376.5" fill="none" stroke="#ccc" stroke-width="1" paint-order="fill" stroke-opacity="1" stroke-dasharray="" stroke-linecap="butt" stroke-linejoin="miter" stroke-miterlimit="10" clip-path="none"></path><path d="M 90 313.5 L 810 313.5" fill="none" stroke="#ccc" stroke-width="1" paint-order="fill" stroke-opacity="1" stroke-dasharray="" stroke-linecap="butt" stroke-linejoin="miter" stroke-miterlimit="10" clip-path="none"></path><path d="M 90 250.5 L 810 250.5" fill="none" stroke="#ccc" stroke-width="1" paint-order="fill" stroke-opacity="1" stroke-dasharray="" stroke-linecap="butt" stroke-linejoin="miter" stroke-miterlimit="10" clip-path="none"></path><path d="M 90 186.5 L 810 186.5" fill="none" stroke="#ccc" stroke-width="1" paint-order="fill" stroke-opacity="1" stroke-dasharray="" stroke-linecap="butt" stroke-linejoin="miter" stroke-miterlimit="10" clip-path="none"></path><path d="M 90 123.5 L 810 123.5" fill="none" stroke="#ccc" stroke-width="1" paint-order="fill" stroke-opacity="1" stroke-dasharray="" stroke-linecap="butt" stroke-linejoin="miter" stroke-miterlimit="10" clip-path="none"></path><path d="M 90 60.5 L 810 60.5" fill="none" stroke="#ccc" stroke-width="1" paint-order="fill" stroke-opacity="1" stroke-dasharray="" stroke-linecap="butt" stroke-linejoin="miter" stroke-miterlimit="10" clip-path="none"></path><path d="M 90.5 60 L 90.5 440" fill="none" stroke="#ccc" stroke-width="1" paint-order="fill" stroke-opacity="1" stroke-dasharray="" stroke-linecap="butt" stroke-linejoin="miter" stroke-miterlimit="10" clip-path="none"></path><path d="M 186.5 60 L 186.5 440" fill="none" stroke="#ccc" stroke-width="1" paint-order="fill" stroke-opacity="1" stroke-dasharray="" stroke-linecap="butt" stroke-linejoin="miter" stroke-miterlimit="10" clip-path="none"></path><path d="M 282.5 60 L 282.5 440" fill="none" stroke="#ccc" stroke-width="1" paint-order="fill" stroke-opacity="1" stroke-dasharray="" stroke-linecap="butt" stroke-linejoin="miter" stroke-miterlimit="10" clip-path="none"></path><path d="M 378.5 60 L 378.5 440" fill="none" stroke="#ccc" stroke-width="1" paint-order="fill" stroke-opacity="1" stroke-dasharray="" stroke-linecap="butt" stroke-linejoin="miter" stroke-miterlimit="10" clip-path="none"></path><path d="M 474.5 60 L 474.5 440" fill="none" stroke="#ccc" stroke-width="1" paint-order="fill" stroke-opacity="1" stroke-dasharray="" stroke-linecap="butt" stroke-linejoin="miter" stroke-miterlimit="10" clip-path="none"></path><path d="M 570.5 60 L 570.5 440" fill="none" stroke="#ccc" stroke-width="1" paint-order="fill" stroke-opacity="1" stroke-dasharray="" stroke-linecap="butt" stroke-linejoin="miter" stroke-miterlimit="10" clip-path="none"></path><path d="M 666.5 60 L 666.5 440" fill="none" stroke="#ccc" stroke-width="1" paint-order="fill" stroke-opacity="1" stroke-dasharray="" stroke-linecap="butt" stroke-linejoin="miter" stroke-miterlimit="10" clip-path="none"></path><path d="M 762.5 60 L 762.5 440" fill="none" stroke="#ccc" stroke-width="1" paint-order="fill" stroke-opacity="1" stroke-dasharray="" stroke-linecap="butt" stroke-linejoin="miter" stroke-miterlimit="10" clip-path="none"></path><path d="M 810.5 60 L 810.5 440" fill="none" stroke="#ccc" stroke-width="1" paint-order="fill" stroke-opacity="1" stroke-dasharray="" stroke-linecap="butt" stroke-linejoin="miter" stroke-miterlimit="10" clip-path="none"></path><path d="M 90.5 440 L 90.5 60" fill="none" stroke="#333" stroke-width="1" paint-order="fill" stroke-opacity="1" stroke-dasharray="" stroke-linecap="round" stroke-linejoin="miter" stroke-miterlimit="10" clip-path="none"></path><path d="M 90 440.5 L 810 440.5" fill="none" stroke="#333" stroke-width="1" paint-order="fill" stroke-opacity="1" stroke-dasharray="" stroke-linecap="round" stroke-linejoin="miter" stroke-miterlimit="10" clip-path="none"></path><path d="M 90 440.5 L 85 440.5" fill="none" stroke="#333" stroke-width="1" paint-order="fill" stroke-opacity="1" stroke-dasharray="" stroke-linecap="butt" stroke-linejoin="miter" stroke-miterlimit="10" clip-path="none"></path><path d="M 90 376.5 L 85 376.5" fill="none" stroke="#333" stroke-width="1" paint-order="fill" stroke-opacity="1" stroke-dasharray="" stroke-linecap="butt" stroke-linejoin="miter" stroke-miterlimit="10" clip-path="none"></path><path d="M 90 313.5 L 85 313.5" fill="none" stroke="#333" stroke-width="1" paint-order="fill" stroke-opacity="1" stroke-dasharray="" stroke-linecap="butt" stroke-linejoin="miter" stroke-miterlimit="10" clip-path="none"></path><path d="M 90 250.5 L 85 250.5" fill="none" stroke="#333" stroke-width="1" paint-order="fill" stroke-opacity="1" stroke-dasharray="" stroke-linecap="butt" stroke-linejoin="miter" stroke-miterlimit="10" clip-path="none"></path><path d="M 90 186.5 L 85 186.5" fill="none" stroke="#333" stroke-width="1" paint-order="fill" stroke-opacity="1" stroke-dasharray="" stroke-linecap="butt" stroke-linejoin="miter" stroke-miterlimit="10" clip-path="none"></path><path d="M 90 123.5 L 85 123.5" fill="none" stroke="#333" stroke-width="1" paint-order="fill" stroke-opacity="1" stroke-dasharray="" stroke-linecap="butt" stroke-linejoin="miter" stroke-miterlimit="10" clip-path="none"></path><path d="M 90 60.5 L 85 60.5" fill="none" stroke="#333" stroke-width="1" paint-order="fill" stroke-opacity="1" stroke-dasharray="" stroke-linecap="butt" stroke-linejoin="miter" stroke-miterlimit="10" clip-path="none"></path><path d="M 90.5 440 L 90.5 445" fill="none" stroke="#333" stroke-width="1" paint-order="fill" stroke-opacity="1" stroke-dasharray="" stroke-linecap="butt" stroke-linejoin="miter" stroke-miterlimit="10" clip-path="none"></path><path d="M 186.5 440 L 186.5 445" fill="none" stroke="#333" stroke-width="1" paint-order="fill" stroke-opacity="1" stroke-dasharray="" stroke-linecap="butt" stroke-linejoin="miter" stroke-miterlimit="10" clip-path="none"></path><path d="M 282.5 440 L 282.5 445" fill="none" stroke="#333" stroke-width="1" paint-order="fill" stroke-opacity="1" stroke-dasharray="" stroke-linecap="butt" stroke-linejoin="miter" stroke-miterlimit="10" clip-path="none"></path><path d="M 378.5 440 L 378.5 445" fill="none" stroke="#333" stroke-width="1" paint-order="fill" stroke-opacity="1" stroke-dasharray="" stroke-linecap="butt" stroke-linejoin="miter" stroke-miterlimit="10" clip-path="none"></path><path d="M 474.5 440 L 474.5 445" fill="none" stroke="#333" stroke-width="1" paint-order="fill" stroke-opacity="1" stroke-dasharray="" stroke-linecap="butt" stroke-linejoin="miter" stroke-miterlimit="10" clip-path="none"></path><path d="M 570.5 440 L 570.5 445" fill="none" stroke="#333" stroke-width="1" paint-order="fill" stroke-opacity="1" stroke-dasharray="" stroke-linecap="butt" stroke-linejoin="miter" stroke-miterlimit="10" clip-path="none"></path><path d="M 666.5 440 L 666.5 445" fill="none" stroke="#333" stroke-width="1" paint-order="fill" stroke-opacity="1" stroke-dasharray="" stroke-linecap="butt" stroke-linejoin="miter" stroke-miterlimit="10" clip-path="none"></path><path d="M 762.5 440 L 762.5 445" fill="none" stroke="#333" stroke-width="1" paint-order="fill" stroke-opacity="1" stroke-dasharray="" stroke-linecap="butt" stroke-linejoin="miter" stroke-miterlimit="10" clip-path="none"></path><path d="M 810.5 440 L 810.5 445" fill="none" stroke="#333" stroke-width="1" paint-order="fill" stroke-opacity="1" stroke-dasharray="" stroke-linecap="butt" stroke-linejoin="miter" stroke-miterlimit="10" clip-path="none"></path><text transform="matrix(1,2.4492937051703357e-16,-2.4492937051703357e-16,1,82,440)" fill="#333" fill-opacity="1" stroke="none" clip-path="none" style="font: 12px &quot;Microsoft YaHei&quot;;"><tspan dominant-baseline="middle" text-anchor="end" x="0" y="0">0</tspan></text><text transform="matrix(1,2.4492937051703357e-16,-2.4492937051703357e-16,1,82,376.6666564941406)" fill="#333" fill-opacity="1" stroke="none" clip-path="none" style="font: 12px &quot;Microsoft YaHei&quot;;"><tspan dominant-baseline="middle" text-anchor="end" x="0" y="0">300</tspan></text><text transform="matrix(1,2.4492937051703357e-16,-2.4492937051703357e-16,1,82,313.3333435058594)" fill="#333" fill-opacity="1" stroke="none" clip-path="none" style="font: 12px &quot;Microsoft YaHei&quot;;"><tspan dominant-baseline="middle" text-anchor="end" x="0" y="0">600</tspan></text><text transform="matrix(1,2.4492937051703357e-16,-2.4492937051703357e-16,1,82,250)" fill="#333" fill-opacity="1" stroke="none" clip-path="none" style="font: 12px &quot;Microsoft YaHei&quot;;"><tspan dominant-baseline="middle" text-anchor="end" x="0" y="0">900</tspan></text><text transform="matrix(1,2.4492937051703357e-16,-2.4492937051703357e-16,1,82,186.6666717529297)" fill="#333" fill-opacity="1" stroke="none" clip-path="none" style="font: 12px &quot;Microsoft YaHei&quot;;"><tspan dominant-baseline="middle" text-anchor="end" x="0" y="0">1,200</tspan></text><text transform="matrix(1,2.4492937051703357e-16,-2.4492937051703357e-16,1,82,123.33334350585938)" fill="#333" fill-opacity="1" stroke="none" clip-path="none" style="font: 12px &quot;Microsoft YaHei&quot;;"><tspan dominant-baseline="middle" text-anchor="end" x="0" y="0">1,500</tspan></text><text transform="matrix(1,2.4492937051703357e-16,-2.4492937051703357e-16,1,82,60)" fill="#333" fill-opacity="1" stroke="none" clip-path="none" style="font: 12px &quot;Microsoft YaHei&quot;;"><tspan dominant-baseline="middle" text-anchor="end" x="0" y="0">1,800</tspan></text><text transform="matrix(1,0,0,1,102,448)" fill="#333" fill-opacity="1" stroke="none" clip-path="none" style="font: 12px &quot;Microsoft YaHei&quot;;"><tspan dominant-baseline="middle" text-anchor="middle" x="0" y="6">2020-04-01</tspan></text><text transform="matrix(1,0,0,1,198,448)" fill="#333" fill-opacity="1" stroke="none" clip-path="none" style="font: 12px &quot;Microsoft YaHei&quot;;"><tspan dominant-baseline="middle" text-anchor="middle" x="0" y="6">2020-04-05</tspan></text><text transform="matrix(1,0,0,1,294,448)" fill="#333" fill-opacity="1" stroke="none" clip-path="none" style="font: 12px &quot;Microsoft YaHei&quot;;"><tspan dominant-baseline="middle" text-anchor="middle" x="0" y="6">2020-04-09</tspan></text><text transform="matrix(1,0,0,1,390,448)" fill="#333" fill-opacity="1" stroke="none" clip-path="none" style="font: 12px &quot;Microsoft YaHei&quot;;"><tspan dominant-baseline="middle" text-anchor="middle" x="0" y="6">2020-04-13</tspan></text><text transform="matrix(1,0,0,1,486,448)" fill="#333" fill-opacity="1" stroke="none" clip-path="none" style="font: 12px &quot;Microsoft YaHei&quot;;"><tspan dominant-baseline="middle" text-anchor="middle" x="0" y="6">2020-04-17</tspan></text><text transform="matrix(1,0,0,1,582,448)" fill="#333" fill-opacity="1" stroke="none" clip-path="none" style="font: 12px &quot;Microsoft YaHei&quot;;"><tspan dominant-baseline="middle" text-anchor="middle" x="0" y="6">2020-04-21</tspan></text><text transform="matrix(1,0,0,1,678,448)" fill="#333" fill-opacity="1" stroke="none" clip-path="none" style="font: 12px &quot;Microsoft YaHei&quot;;"><tspan dominant-baseline="middle" text-anchor="middle" x="0" y="6">2020-04-25</tspan></text><text transform="matrix(1,0,0,1,774,448)" fill="#333" fill-opacity="1" stroke="none" clip-path="none" style="font: 12px &quot;Microsoft YaHei&quot;;"><tspan dominant-baseline="middle" text-anchor="middle" x="0" y="6">2020-04-29</tspan></text><path d="M 1 0 A 1 1 0 1 0 1 0.0001" fill="#c23531" fill-opacity="0.8" stroke="none" transform="matrix(14.187093734741211,0,0,14.187093734741211,102,321.9888916015625)" clip-path="none"></path><text transform="matrix(1,0,0,1,0,0)" fill="#c23531" fill-opacity="0.8" stroke="none" clip-path="none" style="font: 12px &quot;Microsoft YaHei&quot;;"><tspan dominant-baseline="middle" text-anchor="start" x="121.18709373474121" y="321.9888916015625">559</tspan></text><path d="M 1 0 A 1 1 0 1 0 1 0.0001" fill="#c23531" fill-opacity="0.8" stroke="none" transform="matrix(23.44672393798828,0,0,23.44672393798828,126,61.477779388427734)" clip-path="none"></path><text transform="matrix(1,0,0,1,0,0)" fill="#c23531" fill-opacity="0.8" stroke="none" clip-path="none" style="font: 12px &quot;Microsoft YaHei&quot;;"><tspan dominant-baseline="middle" text-anchor="start" x="154.44672393798828" y="61.477779388427734">1793</tspan></text><path d="M 1 0 A 1 1 0 1 0 1 0.0001" fill="#c23531" fill-opacity="0.8" stroke="none" transform="matrix(10.247623443603516,0,0,10.247623443603516,150,432.8222351074219)" clip-path="none"></path><text transform="matrix(1,0,0,1,0,0)" fill="#c23531" fill-opacity="0.8" stroke="none" clip-path="none" style="font: 12px &quot;Microsoft YaHei&quot;;"><tspan dominant-baseline="middle" text-anchor="start" x="165.24762344360352" y="432.8222351074219">34</tspan></text><path d="M 1 0 A 1 1 0 1 0 1 0.0001" fill="#c23531" fill-opacity="0.8" stroke="none" transform="matrix(10.075037956237793,0,0,10.075037956237793,174,437.6777648925781)" clip-path="none"></path><text transform="matrix(1,0,0,1,0,0)" fill="#c23531" fill-opacity="0.8" stroke="none" clip-path="none" style="font: 12px &quot;Microsoft YaHei&quot;;"><tspan dominant-baseline="middle" text-anchor="start" x="189.0750379562378" y="437.6777648925781">11</tspan></text><path d="M 1 0 A 1 1 0 1 0 1 0.0001" fill="#c23531" fill-opacity="0.8" stroke="none" transform="matrix(10.217608451843262,0,0,10.217608451843262,198,433.6666564941406)" clip-path="none"></path><text transform="matrix(1,0,0,1,0,0)" fill="#c23531" fill-opacity="0.8" stroke="none" clip-path="none" style="font: 12px &quot;Microsoft YaHei&quot;;"><tspan dominant-baseline="middle" text-anchor="start" x="213.21760845184326" y="433.6666564941406">30</tspan></text><path d="M 1 0 A 1 1 0 1 0 1 0.0001" fill="#c23531" fill-opacity="0.8" stroke="none" transform="matrix(19.867433547973633,0,0,19.867433547973633,222,162.1777801513672)" clip-path="none"></path><text transform="matrix(1,0,0,1,0,0)" fill="#c23531" fill-opacity="0.8" stroke="none" clip-path="none" style="font: 12px &quot;Microsoft YaHei&quot;;"><tspan dominant-baseline="middle" text-anchor="start" x="246.86743354797363" y="162.1777801513672">1316</tspan></text><path d="M 1 0 A 1 1 0 1 0 1 0.0001" fill="#c23531" fill-opacity="0.8" stroke="none" transform="matrix(10.232616424560547,0,0,10.232616424560547,246,433.24444580078125)" clip-path="none"></path><text transform="matrix(1,0,0,1,0,0)" fill="#c23531" fill-opacity="0.8" stroke="none" clip-path="none" style="font: 12px &quot;Microsoft YaHei&quot;;"><tspan dominant-baseline="middle" text-anchor="start" x="261.23261642456055" y="433.24444580078125">32</tspan></text><path d="M 1 0 A 1 1 0 1 0 1 0.0001" fill="#c23531" fill-opacity="0.8" stroke="none" transform="matrix(11.200600624084473,0,0,11.200600624084473,270,406.0111083984375)" clip-path="none"></path><text transform="matrix(1,0,0,1,0,0)" fill="#c23531" fill-opacity="0.8" stroke="none" clip-path="none" style="font: 12px &quot;Microsoft YaHei&quot;;"><tspan dominant-baseline="middle" text-anchor="start" x="286.2006006240845" y="406.0111083984375">161</tspan></text><path d="M 1 0 A 1 1 0 1 0 1 0.0001" fill="#c23531" fill-opacity="0.8" stroke="none" transform="matrix(17.878938674926758,0,0,17.878938674926758,294,218.12222290039062)" clip-path="none"></path><text transform="matrix(1,0,0,1,0,0)" fill="#c23531" fill-opacity="0.8" stroke="none" clip-path="none" style="font: 12px &quot;Microsoft YaHei&quot;;"><tspan dominant-baseline="middle" text-anchor="start" x="316.87893867492676" y="218.12222290039062">1051</tspan></text><path d="M 1 0 A 1 1 0 1 0 1 0.0001" fill="#c23531" fill-opacity="0.8" stroke="none" transform="matrix(10.307653427124023,0,0,10.307653427124023,318,431.1333312988281)" clip-path="none"></path><text transform="matrix(1,0,0,1,0,0)" fill="#c23531" fill-opacity="0.8" stroke="none" clip-path="none" style="font: 12px &quot;Microsoft YaHei&quot;;"><tspan dominant-baseline="middle" text-anchor="start" x="333.307653427124" y="431.1333312988281">42</tspan></text><path d="M 1 0 A 1 1 0 1 0 1 0.0001" fill="#c23531" fill-opacity="0.8" stroke="none" transform="matrix(10.472736358642578,0,0,10.472736358642578,342,426.4888916015625)" clip-path="none"></path><text transform="matrix(1,0,0,1,0,0)" fill="#c23531" fill-opacity="0.8" stroke="none" clip-path="none" style="font: 12px &quot;Microsoft YaHei&quot;;"><tspan dominant-baseline="middle" text-anchor="start" x="357.4727363586426" y="426.4888916015625">64</tspan></text><path d="M 1 0 A 1 1 0 1 0 1 0.0001" fill="#c23531" fill-opacity="0.8" stroke="none" transform="matrix(10.862931251525879,0,0,10.862931251525879,366,415.5111083984375)" clip-path="none"></path><text transform="matrix(1,0,0,1,0,0)" fill="#c23531" fill-opacity="0.8" stroke="none" clip-path="none" style="font: 12px &quot;Microsoft YaHei&quot;;"><tspan dominant-baseline="middle" text-anchor="start" x="381.8629312515259" y="415.5111083984375">116</tspan></text><path d="M 1 0 A 1 1 0 1 0 1 0.0001" fill="#c23531" fill-opacity="0.8" stroke="none" transform="matrix(10.547774314880371,0,0,10.547774314880371,390,424.3777770996094)" clip-path="none"></path><text transform="matrix(1,0,0,1,0,0)" fill="#c23531" fill-opacity="0.8" stroke="none" clip-path="none" style="font: 12px &quot;Microsoft YaHei&quot;;"><tspan dominant-baseline="middle" text-anchor="start" x="405.54777431488037" y="424.3777770996094">74</tspan></text><path d="M 1 0 A 1 1 0 1 0 1 0.0001" fill="#c23531" fill-opacity="0.8" stroke="none" transform="matrix(10.667834281921387,0,0,10.667834281921387,414,421)" clip-path="none"></path><text transform="matrix(1,0,0,1,0,0)" fill="#c23531" fill-opacity="0.8" stroke="none" clip-path="none" style="font: 12px &quot;Microsoft YaHei&quot;;"><tspan dominant-baseline="middle" text-anchor="start" x="429.6678342819214" y="421">90</tspan></text><path d="M 1 0 A 1 1 0 1 0 1 0.0001" fill="#c23531" fill-opacity="0.8" stroke="none" transform="matrix(10.330164909362793,0,0,10.330164909362793,438,430.5)" clip-path="none"></path><text transform="matrix(1,0,0,1,0,0)" fill="#c23531" fill-opacity="0.8" stroke="none" clip-path="none" style="font: 12px &quot;Microsoft YaHei&quot;;"><tspan dominant-baseline="middle" text-anchor="start" x="453.3301649093628" y="430.5">45</tspan></text><path d="M 1 0 A 1 1 0 1 0 1 0.0001" fill="#c23531" fill-opacity="0.8" stroke="none" transform="matrix(10.345172882080078,0,0,10.345172882080078,462,430.0777893066406)" clip-path="none"></path><text transform="matrix(1,0,0,1,0,0)" fill="#c23531" fill-opacity="0.8" stroke="none" clip-path="none" style="font: 12px &quot;Microsoft YaHei&quot;;"><tspan dominant-baseline="middle" text-anchor="start" x="477.3451728820801" y="430.0777893066406">47</tspan></text><path d="M 1 0 A 1 1 0 1 0 1 0.0001" fill="#c23531" fill-opacity="0.8" stroke="none" transform="matrix(12.64132022857666,0,0,12.64132022857666,486,365.477783203125)" clip-path="none"></path><text transform="matrix(1,0,0,1,0,0)" fill="#c23531" fill-opacity="0.8" stroke="none" clip-path="none" style="font: 12px &quot;Microsoft YaHei&quot;;"><tspan dominant-baseline="middle" text-anchor="start" x="503.64132022857666" y="365.477783203125">353</tspan></text><path d="M 1 0 A 1 1 0 1 0 1 0.0001" fill="#c23531" fill-opacity="0.8" stroke="none" transform="matrix(10.172586441040039,0,0,10.172586441040039,510,434.9333190917969)" clip-path="none"></path><text transform="matrix(1,0,0,1,0,0)" fill="#c23531" fill-opacity="0.8" stroke="none" clip-path="none" style="font: 12px &quot;Microsoft YaHei&quot;;"><tspan dominant-baseline="middle" text-anchor="start" x="525.17258644104" y="434.9333190917969">24</tspan></text><path d="M 1 0 A 1 1 0 1 0 1 0.0001" fill="#c23531" fill-opacity="0.8" stroke="none" transform="matrix(11.215607643127441,0,0,11.215607643127441,534,405.5888977050781)" clip-path="none"></path><text transform="matrix(1,0,0,1,0,0)" fill="#c23531" fill-opacity="0.8" stroke="none" clip-path="none" style="font: 12px &quot;Microsoft YaHei&quot;;"><tspan dominant-baseline="middle" text-anchor="start" x="550.2156076431274" y="405.5888977050781">163</tspan></text><path d="M 1 0 A 1 1 0 1 0 1 0.0001" fill="#c23531" fill-opacity="0.8" stroke="none" transform="matrix(10.090044975280762,0,0,10.090044975280762,558,437.25555419921875)" clip-path="none"></path><text transform="matrix(1,0,0,1,0,0)" fill="#c23531" fill-opacity="0.8" stroke="none" clip-path="none" style="font: 12px &quot;Microsoft YaHei&quot;;"><tspan dominant-baseline="middle" text-anchor="start" x="573.0900449752808" y="437.25555419921875">13</tspan></text><path d="M 1 0 A 1 1 0 1 0 1 0.0001" fill="#c23531" fill-opacity="0.8" stroke="none" transform="matrix(10.232616424560547,0,0,10.232616424560547,582,433.24444580078125)" clip-path="none"></path><text transform="matrix(1,0,0,1,0,0)" fill="#c23531" fill-opacity="0.8" stroke="none" clip-path="none" style="font: 12px &quot;Microsoft YaHei&quot;;"><tspan dominant-baseline="middle" text-anchor="start" x="597.2326164245605" y="433.24444580078125">32</tspan></text><path d="M 1 0 A 1 1 0 1 0 1 0.0001" fill="#c23531" fill-opacity="0.8" stroke="none" transform="matrix(10.075037956237793,0,0,10.075037956237793,606,437.6777648925781)" clip-path="none"></path><text transform="matrix(1,0,0,1,0,0)" fill="#c23531" fill-opacity="0.8" stroke="none" clip-path="none" style="font: 12px &quot;Microsoft YaHei&quot;;"><tspan dominant-baseline="middle" text-anchor="start" x="621.0750379562378" y="437.6777648925781">11</tspan></text><path d="M 1 0 A 1 1 0 1 0 1 0.0001" fill="#c23531" fill-opacity="0.8" stroke="none" transform="matrix(10.052526473999023,0,0,10.052526473999023,630,438.31109619140625)" clip-path="none"></path><text transform="matrix(1,0,0,1,0,0)" fill="#c23531" fill-opacity="0.8" stroke="none" clip-path="none" style="font: 12px &quot;Microsoft YaHei&quot;;"><tspan dominant-baseline="middle" text-anchor="start" x="645.052526473999" y="438.31109619140625">8</tspan></text><path d="M 1 0 A 1 1 0 1 0 1 0.0001" fill="#c23531" fill-opacity="0.8" stroke="none" transform="matrix(14.389695167541504,0,0,14.389695167541504,654,316.28887939453125)" clip-path="none"></path><text transform="matrix(1,0,0,1,0,0)" fill="#c23531" fill-opacity="0.8" stroke="none" clip-path="none" style="font: 12px &quot;Microsoft YaHei&quot;;"><tspan dominant-baseline="middle" text-anchor="start" x="673.3896951675415" y="316.28887939453125">586</tspan></text><path d="M 1 0 A 1 1 0 1 0 1 0.0001" fill="#c23531" fill-opacity="0.8" stroke="none" transform="matrix(10.097548484802246,0,0,10.097548484802246,678,437.04443359375)" clip-path="none"></path><text transform="matrix(1,0,0,1,0,0)" fill="#c23531" fill-opacity="0.8" stroke="none" clip-path="none" style="font: 12px &quot;Microsoft YaHei&quot;;"><tspan dominant-baseline="middle" text-anchor="start" x="693.0975484848022" y="437.04443359375">14</tspan></text><path d="M 1 0 A 1 1 0 1 0 1 0.0001" fill="#c23531" fill-opacity="0.8" stroke="none" transform="matrix(10.052526473999023,0,0,10.052526473999023,702,438.31109619140625)" clip-path="none"></path><text transform="matrix(1,0,0,1,0,0)" fill="#c23531" fill-opacity="0.8" stroke="none" clip-path="none" style="font: 12px &quot;Microsoft YaHei&quot;;"><tspan dominant-baseline="middle" text-anchor="start" x="717.052526473999" y="438.31109619140625">8</tspan></text><path d="M 1 0 A 1 1 0 1 0 1 0.0001" fill="#c23531" fill-opacity="0.8" stroke="none" transform="matrix(10.015007972717285,0,0,10.015007972717285,726,439.3666687011719)" clip-path="none"></path><text transform="matrix(1,0,0,1,0,0)" fill="#c23531" fill-opacity="0.8" stroke="none" clip-path="none" style="font: 12px &quot;Microsoft YaHei&quot;;"><tspan dominant-baseline="middle" text-anchor="start" x="741.0150079727173" y="439.3666687011719">3</tspan></text><path d="M 1 0 A 1 1 0 1 0 1 0.0001" fill="#c23531" fill-opacity="0.8" stroke="none" transform="matrix(10.187593460083008,0,0,10.187593460083008,750,434.5111083984375)" clip-path="none"></path><text transform="matrix(1,0,0,1,0,0)" fill="#c23531" fill-opacity="0.8" stroke="none" clip-path="none" style="font: 12px &quot;Microsoft YaHei&quot;;"><tspan dominant-baseline="middle" text-anchor="start" x="765.187593460083" y="434.5111083984375">26</tspan></text><path d="M 1 0 A 1 1 0 1 0 1 0.0001" fill="#c23531" fill-opacity="0.8" stroke="none" transform="matrix(10.007503509521484,0,0,10.007503509521484,774,439.5777893066406)" clip-path="none"></path><text transform="matrix(1,0,0,1,0,0)" fill="#c23531" fill-opacity="0.8" stroke="none" clip-path="none" style="font: 12px &quot;Microsoft YaHei&quot;;"><tspan dominant-baseline="middle" text-anchor="start" x="789.0075035095215" y="439.5777893066406">2</tspan></text><path d="M 1 0 A 1 1 0 1 0 1 0.0001" fill="#c23531" fill-opacity="0.8" stroke="none" transform="matrix(10.02251148223877,0,0,10.02251148223877,798,439.1555480957031)" clip-path="none"></path><text transform="matrix(1,0,0,1,0,0)" fill="#c23531" fill-opacity="0.8" stroke="none" clip-path="none" style="font: 12px &quot;Microsoft YaHei&quot;;"><tspan dominant-baseline="middle" text-anchor="start" x="813.0225114822388" y="439.1555480957031">4</tspan></text><path d="M -5 -157 L 71.1484 -157 L 71.1484 17 L -5 17 L -5 -157 Z" fill="rgba(0,0,0,0)" fill-opacity="1" stroke="#ccc" stroke-width="0" paint-order="fill" stroke-opacity="1" stroke-dasharray="" stroke-linecap="butt" stroke-linejoin="miter" stroke-miterlimit="10" transform="matrix(1,0,0,1,5,483)" clip-path="none"></path><path d="M -5 -5 L 77.5 -5 L 77.5 19 L -5 19 L -5 -5 Z" fill="rgba(0,0,0,0)" fill-opacity="1" stroke="#ccc" stroke-width="0" paint-order="fill" stroke-opacity="1" stroke-dasharray="" stroke-linecap="butt" stroke-linejoin="miter" stroke-miterlimit="10" transform="matrix(1,0,0,1,413.75,5)" clip-path="none"></path><text transform="matrix(1,0,0,1,5,483)" fill="#333" fill-opacity="1" stroke="none" clip-path="none" style="font: 12px &quot;Microsoft YaHei&quot;;"><tspan dominant-baseline="middle" text-anchor="start" x="38" y="6">1</tspan></text><text transform="matrix(1,0,0,1,5,483)" fill="#333" fill-opacity="1" stroke="none" clip-path="none" style="font: 12px &quot;Microsoft YaHei&quot;;"><tspan dominant-baseline="middle" text-anchor="start" x="38" y="-146">2000</tspan></text><path d="M 20 0 L 20 0 L 20 140 L 0 140 Z" fill-opacity="undefined" stroke="none" transform="matrix(1,0,0,-1,5,483)" clip-path="none" fill="url(#zr2322-gradient-0)"></path><path d="M 20 0 L 20 0 L 20 140 L 0 140 Z" fill-opacity="undefined" stroke="none" transform="matrix(1,0,0,-1,5,483)" clip-path="none" fill="url(#zr2322-gradient-1)"></path><path d="M 0 0 L 12 0 L 12 -12 Z" fill="#5793f3" fill-opacity="1" stroke="none" transform="matrix(1,0,0,-1,25,483)" clip-path="none"></path><path d="M 0 0 L 12 0 L 12 12 Z" fill="#5793f3" fill-opacity="1" stroke="none" transform="matrix(1,0,0,-1,25,343)" clip-path="none"></path><path d="M 19.5 7 A 7 7 0 1 0 19.5 7.0007" fill="#c23531" fill-opacity="1" stroke="none" transform="matrix(1,0,0,1,408.25,5)" clip-path="none"></path><text transform="matrix(1,0,0,1,408.25,5)" fill="#333" fill-opacity="1" stroke="none" clip-path="none" style="font: 12px &quot;Microsoft YaHei&quot;;"><tspan dominant-baseline="middle" text-anchor="start" x="30" y="7">确诊人数</tspan></text><path d="M -5 -5 L 330.5029 -5 L 330.5029 23 L -5 23 L -5 -5 Z" fill="rgba(0,0,0,0)" fill-opacity="1" stroke="#ccc" stroke-width="0" paint-order="fill" stroke-opacity="1" stroke-dasharray="" stroke-linecap="butt" stroke-linejoin="miter" stroke-miterlimit="10" transform="matrix(1,0,0,1,5,5)" clip-path="none"></path><text transform="matrix(1,0,0,1,5,5)" fill="#333" fill-opacity="1" stroke="none" clip-path="none" style="font: bolder 18px &quot;Microsoft YaHei&quot;;"><tspan dominant-baseline="middle" text-anchor="start" x="0" y="9">2020年4月全国累计新增确诊人数散点图</tspan></text><defs><linearGradient id="zr2322-gradient-0" x1="0" y1="0" x2="0" y2="1" gradientUnits="objectBoundingBox"><stop offset="0%" stop-color="#aaaaaa" stop-opacity="1"></stop><stop offset="1%" stop-color="#aaaaaa" stop-opacity="1"></stop><stop offset="2%" stop-color="#aaaaaa" stop-opacity="1"></stop><stop offset="3%" stop-color="#aaaaaa" stop-opacity="1"></stop><stop offset="4%" stop-color="#aaaaaa" stop-opacity="1"></stop><stop offset="5%" stop-color="#aaaaaa" stop-opacity="1"></stop><stop offset="6%" stop-color="#aaaaaa" stop-opacity="1"></stop><stop offset="7.000000000000001%" stop-color="#aaaaaa" stop-opacity="1"></stop><stop offset="8%" stop-color="#aaaaaa" stop-opacity="1"></stop><stop offset="9%" stop-color="#aaaaaa" stop-opacity="1"></stop><stop offset="10%" stop-color="#aaaaaa" stop-opacity="1"></stop><stop offset="11%" stop-color="#aaaaaa" stop-opacity="1"></stop><stop offset="12%" stop-color="#aaaaaa" stop-opacity="1"></stop><stop offset="13%" stop-color="#aaaaaa" stop-opacity="1"></stop><stop offset="14.000000000000002%" stop-color="#aaaaaa" stop-opacity="1"></stop><stop offset="15%" stop-color="#aaaaaa" stop-opacity="1"></stop><stop offset="16%" stop-color="#aaaaaa" stop-opacity="1"></stop><stop offset="17%" stop-color="#aaaaaa" stop-opacity="1"></stop><stop offset="18%" stop-color="#aaaaaa" stop-opacity="1"></stop><stop offset="19%" stop-color="#aaaaaa" stop-opacity="1"></stop><stop offset="20%" stop-color="#aaaaaa" stop-opacity="1"></stop><stop offset="21%" stop-color="#aaaaaa" stop-opacity="1"></stop><stop offset="22%" stop-color="#aaaaaa" stop-opacity="1"></stop><stop offset="23%" stop-color="#aaaaaa" stop-opacity="1"></stop><stop offset="24%" stop-color="#aaaaaa" stop-opacity="1"></stop><stop offset="25%" stop-color="#aaaaaa" stop-opacity="1"></stop><stop offset="26%" stop-color="#aaaaaa" stop-opacity="1"></stop><stop offset="27%" stop-color="#aaaaaa" stop-opacity="1"></stop><stop offset="28.000000000000004%" stop-color="#aaaaaa" stop-opacity="1"></stop><stop offset="28.999999999999996%" stop-color="#aaaaaa" stop-opacity="1"></stop><stop offset="30%" stop-color="#aaaaaa" stop-opacity="1"></stop><stop offset="31%" stop-color="#aaaaaa" stop-opacity="1"></stop><stop offset="32%" stop-color="#aaaaaa" stop-opacity="1"></stop><stop offset="33%" stop-color="#aaaaaa" stop-opacity="1"></stop><stop offset="34%" stop-color="#aaaaaa" stop-opacity="1"></stop><stop offset="35%" stop-color="#aaaaaa" stop-opacity="1"></stop><stop offset="36%" stop-color="#aaaaaa" stop-opacity="1"></stop><stop offset="37%" stop-color="#aaaaaa" stop-opacity="1"></stop><stop offset="38%" stop-color="#aaaaaa" stop-opacity="1"></stop><stop offset="39%" stop-color="#aaaaaa" stop-opacity="1"></stop><stop offset="40%" stop-color="#aaaaaa" stop-opacity="1"></stop><stop offset="41%" stop-color="#aaaaaa" stop-opacity="1"></stop><stop offset="42%" stop-color="#aaaaaa" stop-opacity="1"></stop><stop offset="43%" stop-color="#aaaaaa" stop-opacity="1"></stop><stop offset="44%" stop-color="#aaaaaa" stop-opacity="1"></stop><stop offset="45%" stop-color="#aaaaaa" stop-opacity="1"></stop><stop offset="46%" stop-color="#aaaaaa" stop-opacity="1"></stop><stop offset="47%" stop-color="#aaaaaa" stop-opacity="1"></stop><stop offset="48%" stop-color="#aaaaaa" stop-opacity="1"></stop><stop offset="49%" stop-color="#aaaaaa" stop-opacity="1"></stop><stop offset="50%" stop-color="#aaaaaa" stop-opacity="1"></stop><stop offset="51%" stop-color="#aaaaaa" stop-opacity="1"></stop><stop offset="52%" stop-color="#aaaaaa" stop-opacity="1"></stop><stop offset="53%" stop-color="#aaaaaa" stop-opacity="1"></stop><stop offset="54%" stop-color="#aaaaaa" stop-opacity="1"></stop><stop offset="55.00000000000001%" stop-color="#aaaaaa" stop-opacity="1"></stop><stop offset="56.00000000000001%" stop-color="#aaaaaa" stop-opacity="1"></stop><stop offset="56.99999999999999%" stop-color="#aaaaaa" stop-opacity="1"></stop><stop offset="57.99999999999999%" stop-color="#aaaaaa" stop-opacity="1"></stop><stop offset="59%" stop-color="#aaaaaa" stop-opacity="1"></stop><stop offset="60%" stop-color="#aaaaaa" stop-opacity="1"></stop><stop offset="61%" stop-color="#aaaaaa" stop-opacity="1"></stop><stop offset="62%" stop-color="#aaaaaa" stop-opacity="1"></stop><stop offset="63%" stop-color="#aaaaaa" stop-opacity="1"></stop><stop offset="64%" stop-color="#aaaaaa" stop-opacity="1"></stop><stop offset="65%" stop-color="#aaaaaa" stop-opacity="1"></stop><stop offset="66%" stop-color="#aaaaaa" stop-opacity="1"></stop><stop offset="67%" stop-color="#aaaaaa" stop-opacity="1"></stop><stop offset="68%" stop-color="#aaaaaa" stop-opacity="1"></stop><stop offset="69%" stop-color="#aaaaaa" stop-opacity="1"></stop><stop offset="70%" stop-color="#aaaaaa" stop-opacity="1"></stop><stop offset="71%" stop-color="#aaaaaa" stop-opacity="1"></stop><stop offset="72%" stop-color="#aaaaaa" stop-opacity="1"></stop><stop offset="73%" stop-color="#aaaaaa" stop-opacity="1"></stop><stop offset="74%" stop-color="#aaaaaa" stop-opacity="1"></stop><stop offset="75%" stop-color="#aaaaaa" stop-opacity="1"></stop><stop offset="76%" stop-color="#aaaaaa" stop-opacity="1"></stop><stop offset="77%" stop-color="#aaaaaa" stop-opacity="1"></stop><stop offset="78%" stop-color="#aaaaaa" stop-opacity="1"></stop><stop offset="79%" stop-color="#aaaaaa" stop-opacity="1"></stop><stop offset="80%" stop-color="#aaaaaa" stop-opacity="1"></stop><stop offset="81%" stop-color="#aaaaaa" stop-opacity="1"></stop><stop offset="82%" stop-color="#aaaaaa" stop-opacity="1"></stop><stop offset="83%" stop-color="#aaaaaa" stop-opacity="1"></stop><stop offset="84%" stop-color="#aaaaaa" stop-opacity="1"></stop><stop offset="85%" stop-color="#aaaaaa" stop-opacity="1"></stop><stop offset="86%" stop-color="#aaaaaa" stop-opacity="1"></stop><stop offset="87%" stop-color="#aaaaaa" stop-opacity="1"></stop><stop offset="88%" stop-color="#aaaaaa" stop-opacity="1"></stop><stop offset="89%" stop-color="#aaaaaa" stop-opacity="1"></stop><stop offset="90%" stop-color="#aaaaaa" stop-opacity="1"></stop><stop offset="91%" stop-color="#aaaaaa" stop-opacity="1"></stop><stop offset="92%" stop-color="#aaaaaa" stop-opacity="1"></stop><stop offset="93%" stop-color="#aaaaaa" stop-opacity="1"></stop><stop offset="94%" stop-color="#aaaaaa" stop-opacity="1"></stop><stop offset="95%" stop-color="#aaaaaa" stop-opacity="1"></stop><stop offset="96%" stop-color="#aaaaaa" stop-opacity="1"></stop><stop offset="97%" stop-color="#aaaaaa" stop-opacity="1"></stop><stop offset="98%" stop-color="#aaaaaa" stop-opacity="1"></stop><stop offset="99%" stop-color="#aaaaaa" stop-opacity="1"></stop><stop offset="100%" stop-color="#aaaaaa" stop-opacity="1"></stop></linearGradient><linearGradient id="zr2322-gradient-1" x1="0" y1="0" x2="0" y2="1" gradientUnits="objectBoundingBox"><stop offset="0%" stop-color="#5793f3" stop-opacity="1"></stop><stop offset="1%" stop-color="#5793f3" stop-opacity="1"></stop><stop offset="2%" stop-color="#5793f3" stop-opacity="1"></stop><stop offset="3%" stop-color="#5793f3" stop-opacity="1"></stop><stop offset="4%" stop-color="#5793f3" stop-opacity="1"></stop><stop offset="5%" stop-color="#5793f3" stop-opacity="1"></stop><stop offset="6%" stop-color="#5793f3" stop-opacity="1"></stop><stop offset="7.000000000000001%" stop-color="#5793f3" stop-opacity="1"></stop><stop offset="8%" stop-color="#5793f3" stop-opacity="1"></stop><stop offset="9%" stop-color="#5793f3" stop-opacity="1"></stop><stop offset="10%" stop-color="#5793f3" stop-opacity="1"></stop><stop offset="11%" stop-color="#5793f3" stop-opacity="1"></stop><stop offset="12%" stop-color="#5793f3" stop-opacity="1"></stop><stop offset="13%" stop-color="#5793f3" stop-opacity="1"></stop><stop offset="14.000000000000002%" stop-color="#5793f3" stop-opacity="1"></stop><stop offset="15%" stop-color="#5793f3" stop-opacity="1"></stop><stop offset="16%" stop-color="#5793f3" stop-opacity="1"></stop><stop offset="17%" stop-color="#5793f3" stop-opacity="1"></stop><stop offset="18%" stop-color="#5793f3" stop-opacity="1"></stop><stop offset="19%" stop-color="#5793f3" stop-opacity="1"></stop><stop offset="20%" stop-color="#5793f3" stop-opacity="1"></stop><stop offset="21%" stop-color="#5793f3" stop-opacity="1"></stop><stop offset="22%" stop-color="#5793f3" stop-opacity="1"></stop><stop offset="23%" stop-color="#5793f3" stop-opacity="1"></stop><stop offset="24%" stop-color="#5793f3" stop-opacity="1"></stop><stop offset="25%" stop-color="#5793f3" stop-opacity="1"></stop><stop offset="26%" stop-color="#5793f3" stop-opacity="1"></stop><stop offset="27%" stop-color="#5793f3" stop-opacity="1"></stop><stop offset="28.000000000000004%" stop-color="#5793f3" stop-opacity="1"></stop><stop offset="28.999999999999996%" stop-color="#5793f3" stop-opacity="1"></stop><stop offset="30%" stop-color="#5793f3" stop-opacity="1"></stop><stop offset="31%" stop-color="#5793f3" stop-opacity="1"></stop><stop offset="32%" stop-color="#5793f3" stop-opacity="1"></stop><stop offset="33%" stop-color="#5793f3" stop-opacity="1"></stop><stop offset="34%" stop-color="#5793f3" stop-opacity="1"></stop><stop offset="35%" stop-color="#5793f3" stop-opacity="1"></stop><stop offset="36%" stop-color="#5793f3" stop-opacity="1"></stop><stop offset="37%" stop-color="#5793f3" stop-opacity="1"></stop><stop offset="38%" stop-color="#5793f3" stop-opacity="1"></stop><stop offset="39%" stop-color="#5793f3" stop-opacity="1"></stop><stop offset="40%" stop-color="#5793f3" stop-opacity="1"></stop><stop offset="41%" stop-color="#5793f3" stop-opacity="1"></stop><stop offset="42%" stop-color="#5793f3" stop-opacity="1"></stop><stop offset="43%" stop-color="#5793f3" stop-opacity="1"></stop><stop offset="44%" stop-color="#5793f3" stop-opacity="1"></stop><stop offset="45%" stop-color="#5793f3" stop-opacity="1"></stop><stop offset="46%" stop-color="#5793f3" stop-opacity="1"></stop><stop offset="47%" stop-color="#5793f3" stop-opacity="1"></stop><stop offset="48%" stop-color="#5793f3" stop-opacity="1"></stop><stop offset="49%" stop-color="#5793f3" stop-opacity="1"></stop><stop offset="50%" stop-color="#5793f3" stop-opacity="1"></stop><stop offset="51%" stop-color="#5793f3" stop-opacity="1"></stop><stop offset="52%" stop-color="#5793f3" stop-opacity="1"></stop><stop offset="53%" stop-color="#5793f3" stop-opacity="1"></stop><stop offset="54%" stop-color="#5793f3" stop-opacity="1"></stop><stop offset="55.00000000000001%" stop-color="#5793f3" stop-opacity="1"></stop><stop offset="56.00000000000001%" stop-color="#5793f3" stop-opacity="1"></stop><stop offset="56.99999999999999%" stop-color="#5793f3" stop-opacity="1"></stop><stop offset="57.99999999999999%" stop-color="#5793f3" stop-opacity="1"></stop><stop offset="59%" stop-color="#5793f3" stop-opacity="1"></stop><stop offset="60%" stop-color="#5793f3" stop-opacity="1"></stop><stop offset="61%" stop-color="#5793f3" stop-opacity="1"></stop><stop offset="62%" stop-color="#5793f3" stop-opacity="1"></stop><stop offset="63%" stop-color="#5793f3" stop-opacity="1"></stop><stop offset="64%" stop-color="#5793f3" stop-opacity="1"></stop><stop offset="65%" stop-color="#5793f3" stop-opacity="1"></stop><stop offset="66%" stop-color="#5793f3" stop-opacity="1"></stop><stop offset="67%" stop-color="#5793f3" stop-opacity="1"></stop><stop offset="68%" stop-color="#5793f3" stop-opacity="1"></stop><stop offset="69%" stop-color="#5793f3" stop-opacity="1"></stop><stop offset="70%" stop-color="#5793f3" stop-opacity="1"></stop><stop offset="71%" stop-color="#5793f3" stop-opacity="1"></stop><stop offset="72%" stop-color="#5793f3" stop-opacity="1"></stop><stop offset="73%" stop-color="#5793f3" stop-opacity="1"></stop><stop offset="74%" stop-color="#5793f3" stop-opacity="1"></stop><stop offset="75%" stop-color="#5793f3" stop-opacity="1"></stop><stop offset="76%" stop-color="#5793f3" stop-opacity="1"></stop><stop offset="77%" stop-color="#5793f3" stop-opacity="1"></stop><stop offset="78%" stop-color="#5793f3" stop-opacity="1"></stop><stop offset="79%" stop-color="#5793f3" stop-opacity="1"></stop><stop offset="80%" stop-color="#5793f3" stop-opacity="1"></stop><stop offset="81%" stop-color="#5793f3" stop-opacity="1"></stop><stop offset="82%" stop-color="#5793f3" stop-opacity="1"></stop><stop offset="83%" stop-color="#5793f3" stop-opacity="1"></stop><stop offset="84%" stop-color="#5793f3" stop-opacity="1"></stop><stop offset="85%" stop-color="#5793f3" stop-opacity="1"></stop><stop offset="86%" stop-color="#5793f3" stop-opacity="1"></stop><stop offset="87%" stop-color="#5793f3" stop-opacity="1"></stop><stop offset="88%" stop-color="#5793f3" stop-opacity="1"></stop><stop offset="89%" stop-color="#5793f3" stop-opacity="1"></stop><stop offset="90%" stop-color="#5793f3" stop-opacity="1"></stop><stop offset="91%" stop-color="#5793f3" stop-opacity="1"></stop><stop offset="92%" stop-color="#5793f3" stop-opacity="1"></stop><stop offset="93%" stop-color="#5793f3" stop-opacity="1"></stop><stop offset="94%" stop-color="#5793f3" stop-opacity="1"></stop><stop offset="95%" stop-color="#5793f3" stop-opacity="1"></stop><stop offset="96%" stop-color="#5793f3" stop-opacity="1"></stop><stop offset="97%" stop-color="#5793f3" stop-opacity="1"></stop><stop offset="98%" stop-color="#5793f3" stop-opacity="1"></stop><stop offset="99%" stop-color="#5793f3" stop-opacity="1"></stop><stop offset="100%" stop-color="#5793f3" stop-opacity="1"></stop></linearGradient></defs></g></svg>