<svg xmlns="http://www.w3.org/2000/svg" version="1.1" baseProfile="full" width="900" height="500" style="user-select: none; position: absolute; left: 0px; top: 0px;"><g><rect width="900" height="500" x="0" y="0" id="0" style="fill: transparent;"></rect></g><g><path d="M 90.5 440 L 90.5 60" fill="none" stroke="#333" stroke-width="1" paint-order="fill" stroke-opacity="1" stroke-dasharray="" stroke-linecap="round" stroke-linejoin="miter" stroke-miterlimit="10" clip-path="none"></path><path d="M 90 440.5 L 810 440.5" fill="none" stroke="#333" stroke-width="1" paint-order="fill" stroke-opacity="1" stroke-dasharray="" stroke-linecap="round" stroke-linejoin="miter" stroke-miterlimit="10" clip-path="none"></path><path d="M 90 440.5 L 85 440.5" fill="none" stroke="#333" stroke-width="1" paint-order="fill" stroke-opacity="1" stroke-dasharray="" stroke-linecap="butt" stroke-linejoin="miter" stroke-miterlimit="10" clip-path="none"></path><path d="M 90 376.5 L 85 376.5" fill="none" stroke="#333" stroke-width="1" paint-order="fill" stroke-opacity="1" stroke-dasharray="" stroke-linecap="butt" stroke-linejoin="miter" stroke-miterlimit="10" clip-path="none"></path><path d="M 90 313.5 L 85 313.5" fill="none" stroke="#333" stroke-width="1" paint-order="fill" stroke-opacity="1" stroke-dasharray="" stroke-linecap="butt" stroke-linejoin="miter" stroke-miterlimit="10" clip-path="none"></path><path d="M 90 250.5 L 85 250.5" fill="none" stroke="#333" stroke-width="1" paint-order="fill" stroke-opacity="1" stroke-dasharray="" stroke-linecap="butt" stroke-linejoin="miter" stroke-miterlimit="10" clip-path="none"></path><path d="M 90 186.5 L 85 186.5" fill="none" stroke="#333" stroke-width="1" paint-order="fill" stroke-opacity="1" stroke-dasharray="" stroke-linecap="butt" stroke-linejoin="miter" stroke-miterlimit="10" clip-path="none"></path><path d="M 90 123.5 L 85 123.5" fill="none" stroke="#333" stroke-width="1" paint-order="fill" stroke-opacity="1" stroke-dasharray="" stroke-linecap="butt" stroke-linejoin="miter" stroke-miterlimit="10" clip-path="none"></path><path d="M 90 60.5 L 85 60.5" fill="none" stroke="#333" stroke-width="1" paint-order="fill" stroke-opacity="1" stroke-dasharray="" stroke-linecap="butt" stroke-linejoin="miter" stroke-miterlimit="10" clip-path="none"></path><path d="M 90.5 440 L 90.5 445" fill="none" stroke="#333" stroke-width="1" paint-order="fill" stroke-opacity="1" stroke-dasharray="" stroke-linecap="butt" stroke-linejoin="miter" stroke-miterlimit="10" clip-path="none"></path><path d="M 128.5 440 L 128.5 445" fill="none" stroke="#333" stroke-width="1" paint-order="fill" stroke-opacity="1" stroke-dasharray="" stroke-linecap="butt" stroke-linejoin="miter" stroke-miterlimit="10" clip-path="none"></path><path d="M 166.5 440 L 166.5 445" fill="none" stroke="#333" stroke-width="1" paint-order="fill" stroke-opacity="1" stroke-dasharray="" stroke-linecap="butt" stroke-linejoin="miter" stroke-miterlimit="10" clip-path="none"></path><path d="M 203.5 440 L 203.5 445" fill="none" stroke="#333" stroke-width="1" paint-order="fill" stroke-opacity="1" stroke-dasharray="" stroke-linecap="butt" stroke-linejoin="miter" stroke-miterlimit="10" clip-path="none"></path><path d="M 241.5 440 L 241.5 445" fill="none" stroke="#333" stroke-width="1" paint-order="fill" stroke-opacity="1" stroke-dasharray="" stroke-linecap="butt" stroke-linejoin="miter" stroke-miterlimit="10" clip-path="none"></path><path d="M 279.5 440 L 279.5 445" fill="none" stroke="#333" stroke-width="1" paint-order="fill" stroke-opacity="1" stroke-dasharray="" stroke-linecap="butt" stroke-linejoin="miter" stroke-miterlimit="10" clip-path="none"></path><path d="M 317.5 440 L 317.5 445" fill="none" stroke="#333" stroke-width="1" paint-order="fill" stroke-opacity="1" stroke-dasharray="" stroke-linecap="butt" stroke-linejoin="miter" stroke-miterlimit="10" clip-path="none"></path><path d="M 355.5 440 L 355.5 445" fill="none" stroke="#333" stroke-width="1" paint-order="fill" stroke-opacity="1" stroke-dasharray="" stroke-linecap="butt" stroke-linejoin="miter" stroke-miterlimit="10" clip-path="none"></path><path d="M 393.5 440 L 393.5 445" fill="none" stroke="#333" stroke-width="1" paint-order="fill" stroke-opacity="1" stroke-dasharray="" stroke-linecap="butt" stroke-linejoin="miter" stroke-miterlimit="10" clip-path="none"></path><path d="M 431.5 440 L 431.5 445" fill="none" stroke="#333" stroke-width="1" paint-order="fill" stroke-opacity="1" stroke-dasharray="" stroke-linecap="butt" stroke-linejoin="miter" stroke-miterlimit="10" clip-path="none"></path><path d="M 469.5 440 L 469.5 445" fill="none" stroke="#333" stroke-width="1" paint-order="fill" stroke-opacity="1" stroke-dasharray="" stroke-linecap="butt" stroke-linejoin="miter" stroke-miterlimit="10" clip-path="none"></path><path d="M 507.5 440 L 507.5 445" fill="none" stroke="#333" stroke-width="1" paint-order="fill" stroke-opacity="1" stroke-dasharray="" stroke-linecap="butt" stroke-linejoin="miter" stroke-miterlimit="10" clip-path="none"></path><path d="M 544.5 440 L 544.5 445" fill="none" stroke="#333" stroke-width="1" paint-order="fill" stroke-opacity="1" stroke-dasharray="" stroke-linecap="butt" stroke-linejoin="miter" stroke-miterlimit="10" clip-path="none"></path><path d="M 582.5 440 L 582.5 445" fill="none" stroke="#333" stroke-width="1" paint-order="fill" stroke-opacity="1" stroke-dasharray="" stroke-linecap="butt" stroke-linejoin="miter" stroke-miterlimit="10" clip-path="none"></path><path d="M 620.5 440 L 620.5 445" fill="none" stroke="#333" stroke-width="1" paint-order="fill" stroke-opacity="1" stroke-dasharray="" stroke-linecap="butt" stroke-linejoin="miter" stroke-miterlimit="10" clip-path="none"></path><path d="M 658.5 440 L 658.5 445" fill="none" stroke="#333" stroke-width="1" paint-order="fill" stroke-opacity="1" stroke-dasharray="" stroke-linecap="butt" stroke-linejoin="miter" stroke-miterlimit="10" clip-path="none"></path><path d="M 696.5 440 L 696.5 445" fill="none" stroke="#333" stroke-width="1" paint-order="fill" stroke-opacity="1" stroke-dasharray="" stroke-linecap="butt" stroke-linejoin="miter" stroke-miterlimit="10" clip-path="none"></path><path d="M 734.5 440 L 734.5 445" fill="none" stroke="#333" stroke-width="1" paint-order="fill" stroke-opacity="1" stroke-dasharray="" stroke-linecap="butt" stroke-linejoin="miter" stroke-miterlimit="10" clip-path="none"></path><path d="M 772.5 440 L 772.5 445" fill="none" stroke="#333" stroke-width="1" paint-order="fill" stroke-opacity="1" stroke-dasharray="" stroke-linecap="butt" stroke-linejoin="miter" stroke-miterlimit="10" clip-path="none"></path><path d="M 810.5 440 L 810.5 445" fill="none" stroke="#333" stroke-width="1" paint-order="fill" stroke-opacity="1" stroke-dasharray="" stroke-linecap="butt" stroke-linejoin="miter" stroke-miterlimit="10" clip-path="none"></path><text transform="matrix(1,2.4492937051703357e-16,-2.4492937051703357e-16,1,82,440)" fill="#333" fill-opacity="1" stroke="none" clip-path="none" style="font: 12px &quot;Microsoft YaHei&quot;;"><tspan dominant-baseline="middle" text-anchor="end" x="0" y="0">0</tspan></text><text transform="matrix(1,2.4492937051703357e-16,-2.4492937051703357e-16,1,82,376.6666564941406)" fill="#333" fill-opacity="1" stroke="none" clip-path="none" style="font: 12px &quot;Microsoft YaHei&quot;;"><tspan dominant-baseline="middle" text-anchor="end" x="0" y="0">50</tspan></text><text transform="matrix(1,2.4492937051703357e-16,-2.4492937051703357e-16,1,82,313.3333435058594)" fill="#333" fill-opacity="1" stroke="none" clip-path="none" style="font: 12px &quot;Microsoft YaHei&quot;;"><tspan dominant-baseline="middle" text-anchor="end" x="0" y="0">100</tspan></text><text transform="matrix(1,2.4492937051703357e-16,-2.4492937051703357e-16,1,82,250)" fill="#333" fill-opacity="1" stroke="none" clip-path="none" style="font: 12px &quot;Microsoft YaHei&quot;;"><tspan dominant-baseline="middle" text-anchor="end" x="0" y="0">150</tspan></text><text transform="matrix(1,2.4492937051703357e-16,-2.4492937051703357e-16,1,82,186.6666717529297)" fill="#333" fill-opacity="1" stroke="none" clip-path="none" style="font: 12px &quot;Microsoft YaHei&quot;;"><tspan dominant-baseline="middle" text-anchor="end" x="0" y="0">200</tspan></text><text transform="matrix(1,2.4492937051703357e-16,-2.4492937051703357e-16,1,82,123.33334350585938)" fill="#333" fill-opacity="1" stroke="none" clip-path="none" style="font: 12px &quot;Microsoft YaHei&quot;;"><tspan dominant-baseline="middle" text-anchor="end" x="0" y="0">250</tspan></text><text transform="matrix(1,2.4492937051703357e-16,-2.4492937051703357e-16,1,82,60)" fill="#333" fill-opacity="1" stroke="none" clip-path="none" style="font: 12px &quot;Microsoft YaHei&quot;;"><tspan dominant-baseline="middle" text-anchor="end" x="0" y="0">300</tspan></text><text transform="matrix(0.8660253882408142,-0.5,0.5,0.8660253882408142,108.94737243652344,448)" fill="#333" fill-opacity="1" stroke="none" clip-path="none" style="font: 12px &quot;Microsoft YaHei&quot;;"><tspan dominant-baseline="middle" text-anchor="end" x="0" y="0">三门峡</tspan></text><text transform="matrix(0.8660253882408142,-0.5,0.5,0.8660253882408142,146.84210205078125,448)" fill="#333" fill-opacity="1" stroke="none" clip-path="none" style="font: 12px &quot;Microsoft YaHei&quot;;"><tspan dominant-baseline="middle" text-anchor="end" x="0" y="0">信阳</tspan></text><text transform="matrix(0.8660253882408142,-0.5,0.5,0.8660253882408142,184.73684692382812,448)" fill="#333" fill-opacity="1" stroke="none" clip-path="none" style="font: 12px &quot;Microsoft YaHei&quot;;"><tspan dominant-baseline="middle" text-anchor="end" x="0" y="0">南阳</tspan></text><text transform="matrix(0.8660253882408142,-0.5,0.5,0.8660253882408142,222.63157653808594,448)" fill="#333" fill-opacity="1" stroke="none" clip-path="none" style="font: 12px &quot;Microsoft YaHei&quot;;"><tspan dominant-baseline="middle" text-anchor="end" x="0" y="0">周口</tspan></text><text transform="matrix(0.8660253882408142,-0.5,0.5,0.8660253882408142,260.52630615234375,448)" fill="#333" fill-opacity="1" stroke="none" clip-path="none" style="font: 12px &quot;Microsoft YaHei&quot;;"><tspan dominant-baseline="middle" text-anchor="end" x="0" y="0">商丘</tspan></text><text transform="matrix(0.8660253882408142,-0.5,0.5,0.8660253882408142,298.4210510253906,448)" fill="#333" fill-opacity="1" stroke="none" clip-path="none" style="font: 12px &quot;Microsoft YaHei&quot;;"><tspan dominant-baseline="middle" text-anchor="end" x="0" y="0">境外输入</tspan></text><text transform="matrix(0.8660253882408142,-0.5,0.5,0.8660253882408142,336.3157958984375,448)" fill="#333" fill-opacity="1" stroke="none" clip-path="none" style="font: 12px &quot;Microsoft YaHei&quot;;"><tspan dominant-baseline="middle" text-anchor="end" x="0" y="0">安阳</tspan></text><text transform="matrix(0.8660253882408142,-0.5,0.5,0.8660253882408142,374.2105407714844,448)" fill="#333" fill-opacity="1" stroke="none" clip-path="none" style="font: 12px &quot;Microsoft YaHei&quot;;"><tspan dominant-baseline="middle" text-anchor="end" x="0" y="0">平顶山</tspan></text><text transform="matrix(0.8660253882408142,-0.5,0.5,0.8660253882408142,412.1052551269531,448)" fill="#333" fill-opacity="1" stroke="none" clip-path="none" style="font: 12px &quot;Microsoft YaHei&quot;;"><tspan dominant-baseline="middle" text-anchor="end" x="0" y="0">开封</tspan></text><text transform="matrix(0.8660253882408142,-0.5,0.5,0.8660253882408142,450,448)" fill="#333" fill-opacity="1" stroke="none" clip-path="none" style="font: 12px &quot;Microsoft YaHei&quot;;"><tspan dominant-baseline="middle" text-anchor="end" x="0" y="0">新乡</tspan></text><text transform="matrix(0.8660253882408142,-0.5,0.5,0.8660253882408142,487.8947448730469,448)" fill="#333" fill-opacity="1" stroke="none" clip-path="none" style="font: 12px &quot;Microsoft YaHei&quot;;"><tspan dominant-baseline="middle" text-anchor="end" x="0" y="0">洛阳</tspan></text><text transform="matrix(0.8660253882408142,-0.5,0.5,0.8660253882408142,525.7894287109375,448)" fill="#333" fill-opacity="1" stroke="none" clip-path="none" style="font: 12px &quot;Microsoft YaHei&quot;;"><tspan dominant-baseline="middle" text-anchor="end" x="0" y="0">济源</tspan></text><text transform="matrix(0.8660253882408142,-0.5,0.5,0.8660253882408142,563.6842041015625,448)" fill="#333" fill-opacity="1" stroke="none" clip-path="none" style="font: 12px &quot;Microsoft YaHei&quot;;"><tspan dominant-baseline="middle" text-anchor="end" x="0" y="0">漯河</tspan></text><text transform="matrix(0.8660253882408142,-0.5,0.5,0.8660253882408142,601.5789794921875,448)" fill="#333" fill-opacity="1" stroke="none" clip-path="none" style="font: 12px &quot;Microsoft YaHei&quot;;"><tspan dominant-baseline="middle" text-anchor="end" x="0" y="0">濮阳</tspan></text><text transform="matrix(0.8660253882408142,-0.5,0.5,0.8660253882408142,639.4736938476562,448)" fill="#333" fill-opacity="1" stroke="none" clip-path="none" style="font: 12px &quot;Microsoft YaHei&quot;;"><tspan dominant-baseline="middle" text-anchor="end" x="0" y="0">焦作</tspan></text><text transform="matrix(0.8660253882408142,-0.5,0.5,0.8660253882408142,677.368408203125,448)" fill="#333" fill-opacity="1" stroke="none" clip-path="none" style="font: 12px &quot;Microsoft YaHei&quot;;"><tspan dominant-baseline="middle" text-anchor="end" x="0" y="0">许昌</tspan></text><text transform="matrix(0.8660253882408142,-0.5,0.5,0.8660253882408142,715.26318359375,448)" fill="#333" fill-opacity="1" stroke="none" clip-path="none" style="font: 12px &quot;Microsoft YaHei&quot;;"><tspan dominant-baseline="middle" text-anchor="end" x="0" y="0">郑州</tspan></text><text transform="matrix(0.8660253882408142,-0.5,0.5,0.8660253882408142,753.1578979492188,448)" fill="#333" fill-opacity="1" stroke="none" clip-path="none" style="font: 12px &quot;Microsoft YaHei&quot;;"><tspan dominant-baseline="middle" text-anchor="end" x="0" y="0">驻马店</tspan></text><text transform="matrix(0.8660253882408142,-0.5,0.5,0.8660253882408142,791.0526123046875,448)" fill="#333" fill-opacity="1" stroke="none" clip-path="none" style="font: 12px &quot;Microsoft YaHei&quot;;"><tspan dominant-baseline="middle" text-anchor="end" x="0" y="0">鹤壁</tspan></text><path d="M 93.7895 440 L 106.97030000000001 440 L 106.97030000000001 431.1333 L 93.7895 431.1333 L 93.7895 440 Z" fill="#c23531" fill-opacity="undefined" stroke="none" clip-path="none"></path><path d="M 131.6842 440 L 144.865 440 L 144.865 92.93329999999997 L 131.6842 92.93329999999997 L 131.6842 440 Z" fill="#c23531" fill-opacity="undefined" stroke="none" clip-path="none"></path><path d="M 169.5789 440 L 182.7597 440 L 182.7597 242.4 L 169.5789 242.4 L 169.5789 440 Z" fill="#c23531" fill-opacity="undefined" stroke="none" clip-path="none"></path><path d="M 207.4737 440 L 220.6545 440 L 220.6545 343.7333 L 207.4737 343.7333 L 207.4737 440 Z" fill="#c23531" fill-opacity="undefined" stroke="none" clip-path="none"></path><path d="M 245.3684 440 L 258.5492 440 L 258.5492 324.7333 L 245.3684 324.7333 L 245.3684 440 Z" fill="#c23531" fill-opacity="undefined" stroke="none" clip-path="none"></path><path d="M 283.2632 440 L 296.44399999999996 440 L 296.44399999999996 436.2 L 283.2632 436.2 L 283.2632 440 Z" fill="#c23531" fill-opacity="undefined" stroke="none" clip-path="none"></path><path d="M 321.1579 440 L 334.33869999999996 440 L 334.33869999999996 372.8667 L 321.1579 372.8667 L 321.1579 440 Z" fill="#c23531" fill-opacity="undefined" stroke="none" clip-path="none"></path><path d="M 359.0526 440 L 372.23339999999996 440 L 372.23339999999996 366.5333 L 359.0526 366.5333 L 359.0526 440 Z" fill="#c23531" fill-opacity="undefined" stroke="none" clip-path="none"></path><path d="M 396.9474 440 L 410.1282 440 L 410.1282 407.06669999999997 L 396.9474 407.06669999999997 L 396.9474 440 Z" fill="#c23531" fill-opacity="undefined" stroke="none" clip-path="none"></path><path d="M 434.8421 440 L 448.0229 440 L 448.0229 367.8 L 434.8421 367.8 L 434.8421 440 Z" fill="#c23531" fill-opacity="undefined" stroke="none" clip-path="none"></path><path d="M 472.7368 440 L 485.9176 440 L 485.9176 400.7333 L 472.7368 400.7333 L 472.7368 440 Z" fill="#c23531" fill-opacity="undefined" stroke="none" clip-path="none"></path><path d="M 510.6316 440 L 523.8124 440 L 523.8124 433.6667 L 510.6316 433.6667 L 510.6316 440 Z" fill="#c23531" fill-opacity="undefined" stroke="none" clip-path="none"></path><path d="M 548.5263 440 L 561.7071 440 L 561.7071 394.4 L 548.5263 394.4 L 548.5263 440 Z" fill="#c23531" fill-opacity="undefined" stroke="none" clip-path="none"></path><path d="M 586.4211 440 L 599.6019 440 L 599.6019 418.4667 L 586.4211 418.4667 L 586.4211 440 Z" fill="#c23531" fill-opacity="undefined" stroke="none" clip-path="none"></path><path d="M 624.3158 440 L 637.4966 440 L 637.4966 399.4667 L 624.3158 399.4667 L 624.3158 440 Z" fill="#c23531" fill-opacity="undefined" stroke="none" clip-path="none"></path><path d="M 662.2105 440 L 675.3913 440 L 675.3913 390.6 L 662.2105 390.6 L 662.2105 440 Z" fill="#c23531" fill-opacity="undefined" stroke="none" clip-path="none"></path><path d="M 700.1053 440 L 713.2861 440 L 713.2861 241.1333 L 700.1053 241.1333 L 700.1053 440 Z" fill="#c23531" fill-opacity="undefined" stroke="none" clip-path="none"></path><path d="M 738 440 L 751.1808 440 L 751.1808 263.93330000000003 L 738 263.93330000000003 L 738 440 Z" fill="#c23531" fill-opacity="undefined" stroke="none" clip-path="none"></path><path d="M 775.8947 440 L 789.0754999999999 440 L 789.0754999999999 415.9333 L 775.8947 415.9333 L 775.8947 440 Z" fill="#c23531" fill-opacity="undefined" stroke="none" clip-path="none"></path><path d="M 110.9245 440 L 124.1053 440 L 124.1053 432.4 L 110.9245 432.4 L 110.9245 440 Z" fill="#2f4554" fill-opacity="undefined" stroke="none" clip-path="none"></path><path d="M 148.8192 440 L 162 440 L 162 95.4667 L 148.8192 95.4667 L 148.8192 440 Z" fill="#2f4554" fill-opacity="undefined" stroke="none" clip-path="none"></path><path d="M 186.714 440 L 199.8948 440 L 199.8948 246.2 L 186.714 246.2 L 186.714 440 Z" fill="#2f4554" fill-opacity="undefined" stroke="none" clip-path="none"></path><path d="M 224.6087 440 L 237.7895 440 L 237.7895 345 L 224.6087 345 L 224.6087 440 Z" fill="#2f4554" fill-opacity="undefined" stroke="none" clip-path="none"></path><path d="M 262.5034 440 L 275.6842 440 L 275.6842 328.5333 L 262.5034 328.5333 L 262.5034 440 Z" fill="#2f4554" fill-opacity="undefined" stroke="none" clip-path="none"></path><path d="M 300.3982 440 L 313.57899999999995 440 L 313.57899999999995 436.2 L 300.3982 436.2 L 300.3982 440 Z" fill="#2f4554" fill-opacity="undefined" stroke="none" clip-path="none"></path><path d="M 338.2929 440 L 351.47369999999995 440 L 351.47369999999995 372.8667 L 338.2929 372.8667 L 338.2929 440 Z" fill="#2f4554" fill-opacity="undefined" stroke="none" clip-path="none"></path><path d="M 376.1876 440 L 389.36839999999995 440 L 389.36839999999995 367.8 L 376.1876 367.8 L 376.1876 440 Z" fill="#2f4554" fill-opacity="undefined" stroke="none" clip-path="none"></path><path d="M 414.0824 440 L 427.2632 440 L 427.2632 407.06669999999997 L 414.0824 407.06669999999997 L 414.0824 440 Z" fill="#2f4554" fill-opacity="undefined" stroke="none" clip-path="none"></path><path d="M 451.9771 440 L 465.1579 440 L 465.1579 371.6 L 451.9771 371.6 L 451.9771 440 Z" fill="#2f4554" fill-opacity="undefined" stroke="none" clip-path="none"></path><path d="M 489.8719 440 L 503.05269999999996 440 L 503.05269999999996 402 L 489.8719 402 L 489.8719 440 Z" fill="#2f4554" fill-opacity="undefined" stroke="none" clip-path="none"></path><path d="M 527.7666 440 L 540.9474 440 L 540.9474 433.6667 L 527.7666 433.6667 L 527.7666 440 Z" fill="#2f4554" fill-opacity="undefined" stroke="none" clip-path="none"></path><path d="M 565.6613 440 L 578.8421 440 L 578.8421 394.4 L 565.6613 394.4 L 565.6613 440 Z" fill="#2f4554" fill-opacity="undefined" stroke="none" clip-path="none"></path><path d="M 603.5561 440 L 616.7369 440 L 616.7369 418.4667 L 603.5561 418.4667 L 603.5561 440 Z" fill="#2f4554" fill-opacity="undefined" stroke="none" clip-path="none"></path><path d="M 641.4508 440 L 654.6315999999999 440 L 654.6315999999999 400.7333 L 641.4508 400.7333 L 641.4508 440 Z" fill="#2f4554" fill-opacity="undefined" stroke="none" clip-path="none"></path><path d="M 679.3455 440 L 692.5263 440 L 692.5263 391.8667 L 679.3455 391.8667 L 679.3455 440 Z" fill="#2f4554" fill-opacity="undefined" stroke="none" clip-path="none"></path><path d="M 717.2403 440 L 730.4211 440 L 730.4211 247.4667 L 717.2403 247.4667 L 717.2403 440 Z" fill="#2f4554" fill-opacity="undefined" stroke="none" clip-path="none"></path><path d="M 755.135 440 L 768.3158 440 L 768.3158 263.93330000000003 L 755.135 263.93330000000003 L 755.135 440 Z" fill="#2f4554" fill-opacity="undefined" stroke="none" clip-path="none"></path><path d="M 793.0297 440 L 806.2105 440 L 806.2105 415.9333 L 793.0297 415.9333 L 793.0297 440 Z" fill="#2f4554" fill-opacity="undefined" stroke="none" clip-path="none"></path><path d="M -5 -5 L 224.1035 -5 L 224.1035 19 L -5 19 L -5 -5 Z" fill="rgba(0,0,0,0)" fill-opacity="1" stroke="#ccc" stroke-width="0" paint-order="fill" stroke-opacity="1" stroke-dasharray="" stroke-linecap="butt" stroke-linejoin="miter" stroke-miterlimit="10" transform="matrix(1,0,0,1,340.4482421875,5)" clip-path="none"></path><path d="M 3.5 0 L 21.5 0 A 3.5 3.5 0 0 1 25 3.5 L 25 10.5 A 3.5 3.5 0 0 1 21.5 14 L 3.5 14 A 3.5 3.5 0 0 1 0 10.5 L 0 3.5 A 3.5 3.5 0 0 1 3.5 0 Z" fill="#c23531" fill-opacity="1" stroke="none" transform="matrix(1,0,0,1,340.4482421875,5)" clip-path="none"></path><text transform="matrix(1,0,0,1,340.4482421875,5)" fill="#333" fill-opacity="1" stroke="none" clip-path="none" style="font: 12px &quot;Microsoft YaHei&quot;;"><tspan dominant-baseline="middle" text-anchor="start" x="30" y="7">new_confirmed</tspan></text><path d="M 3.5 0 L 21.5 0 A 3.5 3.5 0 0 1 25 3.5 L 25 10.5 A 3.5 3.5 0 0 1 21.5 14 L 3.5 14 A 3.5 3.5 0 0 1 0 10.5 L 0 3.5 A 3.5 3.5 0 0 1 3.5 0 Z" fill="#2f4554" fill-opacity="1" stroke="none" transform="matrix(1,0,0,1,468.1865234375,5)" clip-path="none"></path><text transform="matrix(1,0,0,1,468.1865234375,5)" fill="#333" fill-opacity="1" stroke="none" clip-path="none" style="font: 12px &quot;Microsoft YaHei&quot;;"><tspan dominant-baseline="middle" text-anchor="start" x="30" y="7">new_cured</tspan></text><path d="M -5 -5 L 322.1006 -5 L 322.1006 23 L -5 23 L -5 -5 Z" fill="rgba(0,0,0,0)" fill-opacity="1" stroke="#ccc" stroke-width="0" paint-order="fill" stroke-opacity="1" stroke-dasharray="" stroke-linecap="butt" stroke-linejoin="miter" stroke-miterlimit="10" transform="matrix(1,0,0,1,5,5)" clip-path="none"></path><text transform="matrix(1,0,0,1,5,5)" fill="#333" fill-opacity="1" stroke="none" clip-path="none" style="font: bolder 18px &quot;Microsoft YaHei&quot;;"><tspan dominant-baseline="middle" text-anchor="start" x="0" y="9">河南省4月新增确诊和新增治愈人数对比</tspan></text></g></svg>