<?xml version="1.0" encoding="utf-8" standalone="no"?>
<!DOCTYPE svg PUBLIC "-//W3C//DTD SVG 1.1//EN"
  "http://www.w3.org/Graphics/SVG/1.1/DTD/svg11.dtd">
<svg xmlns:xlink="http://www.w3.org/1999/xlink" width="1080pt" height="360pt" viewBox="0 0 1080 360" xmlns="http://www.w3.org/2000/svg" version="1.1">
 <metadata>
  <rdf:RDF xmlns:dc="http://purl.org/dc/elements/1.1/" xmlns:cc="http://creativecommons.org/ns#" xmlns:rdf="http://www.w3.org/1999/02/22-rdf-syntax-ns#">
   <cc:Work>
    <dc:type rdf:resource="http://purl.org/dc/dcmitype/StillImage"/>
    <dc:date>2022-06-21T18:27:46.836027</dc:date>
    <dc:format>image/svg+xml</dc:format>
    <dc:creator>
     <cc:Agent>
      <dc:title>Matplotlib v3.5.1, https://matplotlib.org/</dc:title>
     </cc:Agent>
    </dc:creator>
   </cc:Work>
  </rdf:RDF>
 </metadata>
 <defs>
  <style type="text/css">*{stroke-linejoin: round; stroke-linecap: butt}</style>
 </defs>
 <g id="figure_1">
  <g id="patch_1">
   <path d="M 0 360 
L 1080 360 
L 1080 0 
L 0 0 
z
" style="fill: #ffffff"/>
  </g>
  <g id="axes_1">
   <g id="patch_2">
    <path d="M 135 320.4 
L 972 320.4 
L 972 43.2 
L 135 43.2 
z
" style="fill: #ffffff"/>
   </g>
   <g id="matplotlib.axis_1">
    <g id="xtick_1">
     <g id="text_1">
      <!-- 三门峡 -->
      <g style="fill: #262626" transform="translate(142.026316 335.36875)scale(0.1 -0.1)">
       <defs>
        <path id="SimHei-4e09" d="M 6000 -200 
Q 5550 -175 5200 -175 
L 1300 -175 
Q 900 -175 375 -200 
L 375 350 
Q 850 325 1300 325 
L 5200 325 
Q 5575 325 6000 375 
L 6000 -200 
z
M 900 4600 
Q 1400 4575 1825 4575 
L 4600 4575 
Q 5075 4575 5475 4600 
L 5475 4075 
Q 5100 4100 4600 4100 
L 1800 4100 
Q 1375 4100 900 4075 
L 900 4600 
z
M 2075 2100 
Q 1700 2100 1275 2075 
L 1275 2625 
Q 1675 2600 2075 2600 
L 4225 2600 
Q 4600 2600 5050 2625 
L 5050 2075 
Q 4550 2100 4225 2100 
L 2075 2100 
z
" transform="scale(0.015625)"/>
        <path id="SimHei-95e8" d="M 5800 4825 
Q 5775 4325 5775 3850 
L 5775 375 
Q 5775 -225 5450 -325 
Q 5125 -425 4675 -475 
Q 4625 -200 4450 100 
Q 4950 100 5100 162 
Q 5250 225 5250 475 
L 5250 4400 
L 3775 4400 
Q 3175 4400 2700 4325 
L 2700 4850 
Q 3575 4825 3775 4825 
L 5800 4825 
z
M 1175 3875 
Q 1150 3500 1150 3200 
L 1150 -450 
L 600 -450 
Q 625 25 625 450 
L 625 3075 
Q 625 3500 600 3875 
L 1175 3875 
z
M 1525 5300 
Q 1825 4825 2150 4375 
Q 1925 4225 1650 4075 
Q 1350 4550 1025 5000 
Q 1300 5150 1525 5300 
z
" transform="scale(0.015625)"/>
        <path id="SimHei-5ce1" d="M 4050 4375 
Q 4050 4800 4025 5250 
Q 4300 5175 4550 5175 
Q 4500 5025 4487 4812 
Q 4475 4600 4475 4375 
Q 5325 4375 5800 4400 
L 5800 3975 
Q 5325 4000 4475 4000 
L 4475 2175 
Q 5875 2175 6050 2200 
L 6050 1750 
Q 5875 1800 4550 1800 
Q 4875 850 5350 425 
Q 5825 0 6200 -175 
Q 5875 -400 5750 -575 
Q 5075 -75 4762 400 
Q 4450 875 4300 1300 
Q 4025 650 3550 187 
Q 3075 -275 2525 -600 
Q 2350 -375 2000 -200 
Q 2650 25 3175 487 
Q 3700 950 3950 1800 
Q 3025 1800 2625 1775 
L 2625 2200 
Q 3175 2175 4050 2175 
L 4050 4000 
Q 3325 4000 2825 3975 
L 2825 4400 
Q 3325 4375 4050 4375 
z
M 900 3925 
Q 875 3475 875 3075 
L 875 875 
L 1275 900 
L 1275 4225 
Q 1275 4675 1250 5000 
L 1725 5000 
Q 1700 4675 1700 4225 
L 1700 925 
L 2075 950 
L 2075 3150 
Q 2075 3475 2050 3850 
L 2550 3850 
Q 2525 3525 2525 3150 
L 2525 1175 
Q 2525 725 2550 325 
L 2075 325 
L 2075 600 
L 400 450 
Q 425 875 425 1400 
L 425 3075 
Q 425 3475 400 3925 
L 900 3925 
z
M 5650 3500 
Q 5450 3100 5250 2500 
Q 5000 2600 4825 2625 
Q 5050 3200 5150 3650 
Q 5375 3550 5650 3500 
z
M 3350 3625 
Q 3600 3000 3675 2700 
Q 3425 2625 3225 2525 
Q 3150 2950 2925 3500 
Q 3125 3550 3350 3625 
z
" transform="scale(0.015625)"/>
       </defs>
       <use xlink:href="#SimHei-4e09"/>
       <use xlink:href="#SimHei-95e8" x="100"/>
       <use xlink:href="#SimHei-5ce1" x="200"/>
      </g>
     </g>
    </g>
    <g id="xtick_2">
     <g id="text_2">
      <!-- 信阳 -->
      <g style="fill: #262626" transform="translate(191.078947 335.251562)scale(0.1 -0.1)">
       <defs>
        <path id="SimHei-4fe1" d="M 5650 1575 
Q 5625 1275 5625 575 
Q 5625 -100 5650 -450 
L 5175 -450 
L 5175 -25 
L 3025 -25 
L 3025 -550 
L 2525 -550 
Q 2550 -175 2550 500 
Q 2550 1200 2525 1575 
L 5650 1575 
z
M 2125 4975 
Q 1975 4825 1650 3975 
L 1650 550 
Q 1650 -200 1675 -625 
L 1125 -625 
Q 1200 -175 1200 575 
L 1200 3100 
Q 900 2500 625 2100 
Q 475 2350 250 2500 
Q 525 2800 925 3562 
Q 1325 4325 1525 5175 
Q 1800 5075 2125 4975 
z
M 5175 375 
L 5175 1225 
L 3025 1225 
L 3025 375 
L 5175 375 
z
M 6075 3900 
Q 5575 3925 4100 3925 
Q 2625 3925 2100 3900 
L 2100 4325 
L 6075 4325 
L 6075 3900 
z
M 5700 3000 
Q 5275 3025 4150 3025 
Q 3025 3025 2475 3000 
L 2475 3425 
Q 2950 3400 4100 3400 
Q 5275 3400 5700 3425 
L 5700 3000 
z
M 5700 2125 
Q 5350 2150 4175 2150 
Q 3025 2150 2475 2125 
L 2475 2550 
Q 3000 2525 4175 2525 
Q 5375 2525 5700 2550 
L 5700 2125 
z
M 4025 5200 
Q 4100 5050 4175 4875 
Q 4250 4700 4325 4500 
Q 4100 4425 3875 4375 
Q 3700 4900 3575 5025 
Q 3825 5125 4025 5200 
z
" transform="scale(0.015625)"/>
        <path id="SimHei-9633" d="M 5850 4775 
Q 5825 4325 5825 3925 
L 5825 550 
Q 5825 150 5850 -400 
L 5350 -400 
L 5350 300 
L 3550 300 
L 3550 -450 
L 3050 -450 
Q 3075 100 3075 475 
L 3075 3925 
Q 3075 4325 3050 4775 
L 5850 4775 
z
M 2675 4925 
Q 2525 4450 2387 4037 
Q 2250 3625 2050 2850 
Q 2375 2425 2525 2062 
Q 2675 1700 2650 1300 
Q 2625 900 2337 737 
Q 2050 575 1550 525 
Q 1500 900 1350 1025 
Q 1850 1025 2025 1162 
Q 2200 1300 2175 1575 
Q 2150 1850 1975 2162 
Q 1800 2475 1525 2775 
Q 1925 4075 2050 4550 
L 1100 4550 
L 1100 -600 
L 625 -600 
Q 650 -50 650 500 
L 650 3775 
Q 650 4475 625 4925 
L 2675 4925 
z
M 5350 2700 
L 5350 4375 
L 3550 4375 
L 3550 2700 
L 5350 2700 
z
M 5350 675 
L 5350 2300 
L 3550 2300 
L 3550 675 
L 5350 675 
z
" transform="scale(0.015625)"/>
       </defs>
       <use xlink:href="#SimHei-4fe1"/>
       <use xlink:href="#SimHei-9633" x="100"/>
      </g>
     </g>
    </g>
    <g id="xtick_3">
     <g id="text_3">
      <!-- 南阳 -->
      <g style="fill: #262626" transform="translate(235.131579 335.36875)scale(0.1 -0.1)">
       <defs>
        <path id="SimHei-5357" d="M 4550 -100 
Q 4925 -100 5100 -87 
Q 5275 -75 5225 175 
L 5225 3075 
L 1125 3075 
L 1125 -600 
L 575 -600 
Q 625 25 625 675 
L 625 2200 
Q 625 2800 575 3450 
L 2750 3450 
L 2875 4150 
L 1875 4150 
Q 1250 4150 425 4100 
L 425 4575 
Q 1000 4525 1700 4525 
L 2925 4525 
Q 3000 5000 3000 5275 
Q 3325 5200 3575 5175 
Q 3475 4900 3425 4525 
L 5100 4525 
Q 5525 4525 6025 4550 
L 6025 4125 
Q 5550 4150 5100 4150 
L 3375 4150 
L 3250 3450 
L 5775 3450 
Q 5725 2875 5725 2425 
L 5725 -75 
Q 5700 -425 5425 -487 
Q 5150 -550 4800 -625 
Q 4725 -350 4550 -100 
z
M 1625 2025 
Q 1975 1975 2500 1975 
L 3350 1975 
Q 3500 2175 3600 2375 
Q 3700 2575 3875 2900 
Q 4125 2775 4450 2650 
Q 4250 2575 4137 2375 
Q 4025 2175 3875 1975 
L 4175 1975 
Q 4425 1975 4775 2000 
L 4775 1575 
Q 4450 1600 4025 1600 
L 3450 1600 
L 3450 1100 
L 4175 1100 
Q 4700 1100 4950 1125 
L 4950 675 
Q 4700 700 4175 700 
L 3450 700 
L 3450 275 
Q 3450 -50 3475 -375 
L 2925 -375 
Q 2950 -100 2950 275 
L 2950 700 
L 2275 700 
Q 1725 700 1425 675 
L 1425 1150 
Q 1800 1100 2225 1100 
L 2950 1100 
L 2950 1600 
L 2500 1600 
Q 2000 1600 1625 1575 
L 1625 2025 
z
M 2850 2325 
Q 2650 2200 2450 2050 
Q 2350 2250 2225 2412 
Q 2100 2575 1975 2700 
Q 2125 2775 2325 2950 
Q 2475 2775 2587 2650 
Q 2700 2525 2850 2325 
z
" transform="scale(0.015625)"/>
       </defs>
       <use xlink:href="#SimHei-5357"/>
       <use xlink:href="#SimHei-9633" x="100"/>
      </g>
     </g>
    </g>
    <g id="xtick_4">
     <g id="text_4">
      <!-- 周口 -->
      <g style="fill: #262626" transform="translate(279.184211 334.821875)scale(0.1 -0.1)">
       <defs>
        <path id="SimHei-5468" d="M 5600 4925 
Q 5575 4400 5575 3800 
L 5575 50 
Q 5550 -375 5325 -462 
Q 5100 -550 4325 -600 
Q 4300 -400 4125 -75 
Q 4800 -100 4962 -37 
Q 5125 25 5100 225 
L 5100 4525 
L 1500 4525 
Q 1500 2575 1450 1887 
Q 1400 1200 1237 550 
Q 1075 -100 775 -625 
Q 625 -450 275 -225 
Q 650 225 825 1000 
Q 1000 1775 1025 2587 
Q 1050 3400 1000 4925 
L 5600 4925 
z
M 2050 325 
Q 2075 625 2075 950 
L 2075 1400 
Q 2075 1625 2050 1925 
L 4400 1925 
Q 4375 1725 4375 1450 
L 4375 875 
Q 4375 600 4400 325 
L 2050 325 
z
M 3000 3800 
Q 3000 4150 2975 4375 
L 3475 4375 
Q 3450 4075 3450 3800 
Q 4100 3800 4475 3825 
L 4475 3350 
Q 4125 3375 3450 3375 
L 3450 2800 
Q 4200 2800 4825 2825 
L 4825 2350 
Q 4175 2375 3725 2375 
L 2750 2375 
Q 2325 2375 1725 2350 
L 1725 2825 
Q 2325 2800 3000 2800 
L 3000 3375 
Q 2500 3375 1975 3350 
L 1975 3825 
Q 2475 3800 3000 3800 
z
M 3900 725 
L 3900 1525 
L 2550 1525 
L 2550 725 
L 3900 725 
z
" transform="scale(0.015625)"/>
        <path id="SimHei-53e3" d="M 5425 4300 
Q 5400 3775 5400 3175 
L 5400 550 
Q 5400 100 5425 -425 
L 4900 -425 
L 4900 100 
L 1525 100 
L 1525 -425 
L 1000 -425 
Q 1025 0 1025 550 
L 1025 3175 
Q 1025 3775 1000 4300 
L 5425 4300 
z
M 4900 525 
L 4900 3875 
L 1525 3875 
L 1525 525 
L 4900 525 
z
" transform="scale(0.015625)"/>
       </defs>
       <use xlink:href="#SimHei-5468"/>
       <use xlink:href="#SimHei-53e3" x="100"/>
      </g>
     </g>
    </g>
    <g id="xtick_5">
     <g id="text_5">
      <!-- 商丘 -->
      <g style="fill: #262626" transform="translate(323.236842 335.36875)scale(0.1 -0.1)">
       <defs>
        <path id="SimHei-5546" d="M 3150 5225 
Q 3475 4725 3550 4525 
L 4975 4525 
Q 5475 4525 5975 4550 
L 5975 4100 
Q 5475 4125 4975 4125 
L 2100 4125 
Q 2575 3625 2675 3475 
Q 2500 3400 2300 3250 
L 3650 3250 
Q 3800 3650 3950 4100 
Q 4200 4000 4525 3925 
Q 4350 3700 4125 3250 
L 5525 3250 
Q 5500 2950 5500 2425 
L 5500 -50 
Q 5500 -350 5225 -475 
Q 4950 -600 4475 -675 
Q 4450 -375 4275 -125 
Q 4775 -150 4900 -75 
Q 5025 0 5025 175 
L 5025 2900 
L 1375 2900 
L 1375 -600 
L 875 -600 
Q 900 50 900 325 
L 900 2475 
Q 900 2725 875 3250 
L 2250 3250 
Q 2075 3550 1675 3875 
Q 1875 3975 2050 4125 
L 1475 4125 
Q 900 4125 475 4100 
L 475 4550 
Q 900 4525 1450 4525 
L 3000 4525 
Q 2925 4775 2675 5050 
Q 2925 5125 3150 5225 
z
M 2600 2650 
Q 2850 2475 3075 2350 
Q 2825 2225 2350 1675 
L 4250 1675 
Q 4225 1350 4225 975 
Q 4225 600 4250 225 
L 2300 225 
Q 2325 600 2325 950 
Q 2325 1325 2300 1625 
Q 2125 1475 1950 1350 
Q 1825 1525 1575 1625 
Q 2350 2225 2600 2650 
z
M 3750 600 
L 3750 1300 
L 2775 1300 
L 2775 600 
L 3750 600 
z
M 3775 2675 
Q 4475 2225 4900 1850 
Q 4675 1725 4525 1525 
Q 4275 1825 3475 2350 
Q 3650 2475 3775 2675 
z
" transform="scale(0.015625)"/>
        <path id="SimHei-4e18" d="M 5350 4600 
Q 4850 4500 3825 4362 
Q 2800 4225 1950 4150 
L 1950 2825 
L 4800 2825 
Q 5200 2825 5725 2850 
L 5725 2350 
Q 5200 2375 4425 2375 
L 4425 200 
Q 5600 200 6075 225 
L 6075 -275 
Q 5650 -250 5175 -250 
L 1050 -250 
Q 800 -250 325 -275 
L 325 225 
Q 750 200 1425 200 
L 1425 3575 
Q 1425 4000 1400 4550 
Q 2375 4575 3450 4750 
Q 4525 4925 5075 5150 
Q 5225 4725 5350 4600 
z
M 3900 200 
L 3900 2375 
L 1950 2375 
L 1950 200 
L 3900 200 
z
" transform="scale(0.015625)"/>
       </defs>
       <use xlink:href="#SimHei-5546"/>
       <use xlink:href="#SimHei-4e18" x="100"/>
      </g>
     </g>
    </g>
    <g id="xtick_6">
     <g id="text_6">
      <!-- 境外输入 -->
      <g style="fill: #262626" transform="translate(357.289474 335.485937)scale(0.1 -0.1)">
       <defs>
        <path id="SimHei-5883" d="M 5300 -150 
Q 5475 -150 5525 37 
Q 5575 225 5625 425 
Q 5850 225 6150 175 
Q 5950 -500 5737 -537 
Q 5525 -575 5375 -575 
L 4650 -575 
Q 4075 -575 4100 -25 
L 4100 975 
L 3600 975 
Q 3500 325 3037 -50 
Q 2575 -425 1750 -675 
Q 1675 -425 1475 -175 
Q 2375 -50 2725 262 
Q 3075 575 3150 975 
L 2375 975 
Q 2400 1500 2400 1925 
Q 2400 2375 2375 2825 
L 5500 2825 
Q 5475 2450 5475 1975 
Q 5475 1500 5500 975 
L 4575 975 
L 4575 175 
Q 4550 -175 4825 -150 
L 5300 -150 
z
M 3300 4250 
Q 3425 4050 3600 3725 
Q 3400 3625 3200 3525 
L 4250 3525 
Q 4350 3800 4450 4300 
L 3125 4300 
Q 2575 4300 2225 4275 
L 2225 4700 
Q 2550 4675 3125 4675 
L 3775 4675 
Q 3750 4950 3650 5200 
Q 3850 5225 4200 5300 
Q 4275 4950 4325 4675 
L 4875 4675 
Q 5325 4675 5725 4700 
L 5725 4275 
Q 5325 4300 4900 4300 
L 4500 4300 
Q 4725 4200 5000 4075 
Q 4825 3850 4700 3525 
L 5225 3525 
Q 5625 3525 6000 3550 
L 6000 3100 
Q 5625 3150 5225 3150 
L 2950 3150 
Q 2500 3150 2125 3100 
L 2125 3550 
Q 2500 3525 2925 3525 
L 3150 3525 
Q 3050 3850 2900 4025 
Q 3100 4125 3300 4250 
z
M 2125 1025 
Q 1675 875 1200 687 
Q 725 500 450 325 
Q 325 650 250 875 
Q 475 900 637 950 
Q 800 1000 950 1050 
L 950 3150 
Q 700 3150 350 3100 
L 350 3550 
Q 700 3525 950 3525 
L 950 4425 
Q 950 4675 925 5025 
L 1400 5025 
Q 1375 4650 1375 4425 
L 1375 3525 
Q 1575 3525 1925 3550 
L 1925 3100 
Q 1575 3150 1375 3150 
L 1375 1200 
Q 1750 1325 2050 1450 
Q 2075 1275 2125 1025 
z
M 5050 2075 
L 5050 2475 
L 2875 2475 
L 2875 2075 
L 5050 2075 
z
M 5050 1325 
L 5050 1725 
L 2875 1725 
L 2875 1325 
L 5050 1325 
z
" transform="scale(0.015625)"/>
        <path id="SimHei-5916" d="M 2150 4875 
Q 2000 4650 1912 4425 
Q 1825 4200 1725 3975 
L 3275 3975 
Q 3150 3075 2937 2450 
Q 2725 1825 2412 1350 
Q 2100 875 1675 437 
Q 1250 0 650 -375 
Q 475 -100 200 0 
Q 775 250 1275 712 
Q 1775 1175 2000 1600 
Q 1675 1950 1150 2325 
Q 1325 2475 1475 2675 
Q 1975 2275 2250 2050 
Q 2425 2400 2525 2775 
Q 2625 3150 2700 3550 
L 1575 3550 
Q 1425 3225 1187 2825 
Q 950 2425 575 2025 
Q 450 2200 200 2375 
Q 625 2775 862 3187 
Q 1100 3600 1250 4025 
Q 1400 4450 1550 5075 
Q 1825 4950 2150 4875 
z
M 4225 5125 
Q 4200 4725 4200 4325 
L 4200 475 
Q 4200 0 4225 -500 
L 3675 -500 
Q 3700 0 3700 475 
L 3700 4325 
Q 3700 4725 3675 5125 
L 4225 5125 
z
M 4675 3450 
Q 4900 3200 5337 2687 
Q 5775 2175 6075 1725 
Q 5825 1575 5650 1400 
Q 5425 1800 5025 2300 
Q 4625 2800 4300 3150 
Q 4450 3300 4675 3450 
z
" transform="scale(0.015625)"/>
        <path id="SimHei-8f93" d="M 3225 3650 
Q 2725 3100 2550 2950 
L 4100 2950 
Q 4075 2675 4075 2275 
L 4075 -100 
Q 4100 -325 3962 -425 
Q 3825 -525 3475 -600 
Q 3400 -350 3225 -100 
Q 3650 -100 3650 25 
L 3650 675 
L 2975 675 
L 2975 -575 
L 2525 -575 
Q 2550 -125 2550 325 
L 2550 2075 
Q 2550 2500 2525 2925 
L 2375 2800 
Q 2200 3000 1950 3100 
Q 2575 3525 3025 4087 
Q 3475 4650 3775 5300 
Q 4075 5150 4325 5100 
L 4225 4975 
Q 4700 4325 5225 3975 
Q 5750 3625 6200 3475 
Q 5975 3275 5825 3025 
Q 5275 3300 4875 3650 
L 4875 3350 
L 3225 3350 
L 3225 3650 
z
M 2225 825 
Q 1975 775 1725 675 
Q 1725 -100 1750 -650 
L 1275 -650 
Q 1300 -100 1300 575 
Q 725 425 475 325 
Q 400 575 250 825 
Q 650 875 1300 1025 
L 1300 1975 
Q 700 1925 400 1800 
L 225 2225 
Q 425 2350 600 2850 
Q 775 3350 875 3825 
Q 625 3825 350 3800 
L 350 4250 
Q 675 4225 950 4225 
Q 1050 4700 1075 5175 
Q 1400 5075 1675 5025 
Q 1525 4850 1400 4225 
Q 1925 4225 2300 4250 
L 2300 3800 
Q 1850 3825 1325 3825 
Q 1075 2900 825 2325 
L 1300 2375 
Q 1300 2700 1275 3125 
L 1750 3125 
Q 1725 2900 1725 2425 
L 2150 2475 
L 2150 2075 
L 1725 2025 
L 1725 1125 
L 2225 1250 
L 2225 825 
z
M 5775 2925 
Q 5750 2525 5750 2150 
L 5750 -100 
Q 5750 -375 5625 -475 
Q 5500 -575 5000 -675 
Q 4950 -450 4750 -175 
Q 5300 -200 5325 0 
L 5325 2100 
Q 5325 2500 5300 2925 
L 5775 2925 
z
M 4975 2700 
Q 4950 2400 4950 2000 
L 4950 900 
Q 4950 425 4975 125 
L 4475 125 
Q 4500 500 4500 875 
L 4500 2000 
Q 4500 2350 4475 2700 
L 4975 2700 
z
M 4750 3750 
Q 4450 4025 3975 4675 
Q 3575 4075 3300 3750 
L 4750 3750 
z
M 3650 2000 
L 3650 2575 
L 2975 2575 
L 2975 2000 
L 3650 2000 
z
M 3650 1075 
L 3650 1625 
L 2975 1625 
L 2975 1075 
L 3650 1075 
z
" transform="scale(0.015625)"/>
        <path id="SimHei-5165" d="M 5650 -375 
Q 5050 25 4500 650 
Q 3950 1275 3275 3050 
Q 2575 975 675 -475 
Q 575 -225 225 50 
Q 1850 825 2975 3525 
Q 2900 3725 2525 4125 
Q 2150 4525 1750 4675 
Q 2025 4900 2175 5125 
Q 2800 4650 3175 4225 
Q 3550 3800 4125 2375 
Q 4700 950 6125 250 
Q 5775 0 5650 -375 
z
" transform="scale(0.015625)"/>
       </defs>
       <use xlink:href="#SimHei-5883"/>
       <use xlink:href="#SimHei-5916" x="100"/>
       <use xlink:href="#SimHei-8f93" x="200"/>
       <use xlink:href="#SimHei-5165" x="300"/>
      </g>
     </g>
    </g>
    <g id="xtick_7">
     <g id="text_7">
      <!-- 安阳 -->
      <g style="fill: #262626" transform="translate(411.342105 335.407812)scale(0.1 -0.1)">
       <defs>
        <path id="SimHei-5b89" d="M 3225 3475 
Q 3125 3375 3037 3237 
Q 2950 3100 2675 2525 
L 5000 2525 
Q 5600 2525 5975 2550 
L 5975 2100 
Q 5575 2125 5025 2125 
L 4775 2125 
Q 4500 1400 4025 825 
Q 4950 475 5925 -75 
Q 5750 -275 5575 -550 
Q 4650 75 3650 475 
Q 3025 0 2225 -262 
Q 1425 -525 900 -625 
Q 800 -325 600 -100 
Q 1375 -50 2062 175 
Q 2750 400 3125 675 
Q 2375 950 1375 1175 
Q 1775 1725 1975 2125 
L 1350 2125 
Q 1050 2125 500 2100 
L 500 2550 
Q 800 2525 1325 2525 
L 2150 2525 
Q 2475 3125 2650 3725 
Q 2950 3550 3225 3475 
z
M 2650 5000 
Q 2875 5150 3050 5300 
Q 3325 4950 3600 4525 
Q 3450 4450 3275 4300 
L 5575 4300 
Q 5550 3950 5550 3725 
Q 5550 3500 5575 3125 
L 5050 3125 
L 5050 3900 
L 1350 3900 
L 1350 3175 
L 825 3175 
Q 850 3525 850 3775 
Q 850 4025 800 4300 
L 3100 4300 
Q 2900 4725 2650 5000 
z
M 2100 1425 
Q 3125 1150 3550 1000 
Q 3900 1325 4225 2125 
L 2525 2125 
Q 2325 1825 2100 1425 
z
" transform="scale(0.015625)"/>
       </defs>
       <use xlink:href="#SimHei-5b89"/>
       <use xlink:href="#SimHei-9633" x="100"/>
      </g>
     </g>
    </g>
    <g id="xtick_8">
     <g id="text_8">
      <!-- 平顶山 -->
      <g style="fill: #262626" transform="translate(450.394737 335.173437)scale(0.1 -0.1)">
       <defs>
        <path id="SimHei-5e73" d="M 4525 4825 
Q 4900 4825 5450 4850 
L 5450 4375 
Q 4925 4400 4525 4400 
L 3475 4400 
L 3475 2025 
L 5000 2025 
Q 5550 2025 6025 2050 
L 6025 1575 
Q 5550 1600 5000 1600 
L 3475 1600 
L 3475 450 
Q 3475 -100 3500 -600 
L 2925 -600 
Q 2950 -100 2950 450 
L 2950 1600 
L 1125 1600 
Q 775 1600 375 1575 
L 375 2050 
Q 775 2025 1175 2025 
L 2950 2025 
L 2950 4400 
L 1775 4400 
Q 1400 4400 875 4375 
L 875 4850 
Q 1400 4825 1750 4825 
L 4525 4825 
z
M 3925 2600 
Q 4500 3300 4900 4125 
Q 5150 3950 5400 3825 
Q 4775 2850 4350 2300 
Q 4150 2475 3925 2600 
z
M 1975 2350 
Q 1600 3100 1050 3725 
Q 1250 3875 1450 4050 
Q 2075 3300 2450 2725 
Q 2150 2500 1975 2350 
z
" transform="scale(0.015625)"/>
        <path id="SimHei-9876" d="M 3675 3675 
Q 3725 4100 3750 4500 
L 3275 4500 
Q 2975 4500 2450 4475 
L 2450 4900 
Q 2950 4875 3275 4875 
L 5100 4875 
Q 5525 4875 5950 4900 
L 5950 4475 
Q 5525 4500 5100 4500 
L 4275 4500 
Q 4200 4100 4150 3675 
L 5625 3675 
Q 5600 3300 5600 2250 
Q 5600 1200 5625 775 
L 5125 775 
L 5125 3300 
L 3100 3300 
L 3100 725 
L 2625 725 
Q 2650 1150 2650 2200 
Q 2650 3275 2625 3675 
L 3675 3675 
z
M 300 4700 
Q 600 4675 900 4675 
L 1625 4675 
Q 1925 4675 2250 4700 
L 2250 4275 
Q 1850 4300 1600 4300 
L 1600 525 
Q 1600 25 1287 -75 
Q 975 -175 550 -275 
Q 500 50 350 325 
Q 725 325 925 350 
Q 1125 375 1125 700 
L 1125 4300 
Q 625 4300 300 4275 
L 300 4700 
z
M 2325 -650 
Q 2225 -375 1975 -125 
Q 2675 25 3087 275 
Q 3500 525 3625 887 
Q 3750 1250 3787 1762 
Q 3825 2275 3800 2825 
Q 4100 2775 4375 2750 
Q 4300 2475 4275 1987 
Q 4250 1500 4150 962 
Q 4050 425 3575 25 
Q 3100 -375 2325 -650 
z
M 4675 825 
Q 4900 650 5300 350 
Q 5700 50 6075 -250 
Q 5825 -475 5650 -700 
Q 5225 -250 4925 -12 
Q 4625 225 4275 450 
Q 4525 650 4675 825 
z
" transform="scale(0.015625)"/>
        <path id="SimHei-5c71" d="M 1225 3725 
Q 1200 3125 1200 2725 
L 1200 425 
L 2950 425 
L 2950 4175 
Q 2950 4625 2925 5075 
L 3475 5075 
Q 3450 4725 3450 4175 
L 3450 425 
L 5200 425 
L 5200 2775 
Q 5200 3325 5175 3700 
L 5750 3700 
Q 5725 3400 5725 2775 
L 5725 750 
Q 5725 150 5750 -525 
L 5200 -525 
L 5200 0 
L 650 0 
Q 675 550 675 1075 
L 675 2700 
Q 675 3275 650 3725 
L 1225 3725 
z
" transform="scale(0.015625)"/>
       </defs>
       <use xlink:href="#SimHei-5e73"/>
       <use xlink:href="#SimHei-9876" x="100"/>
       <use xlink:href="#SimHei-5c71" x="200"/>
      </g>
     </g>
    </g>
    <g id="xtick_9">
     <g id="text_9">
      <!-- 开封 -->
      <g style="fill: #262626" transform="translate(499.447368 335.251562)scale(0.1 -0.1)">
       <defs>
        <path id="SimHei-5f00" d="M 2200 4450 
Q 1450 4450 800 4425 
L 800 4925 
Q 1425 4900 1950 4900 
L 4650 4900 
Q 5150 4900 5725 4925 
L 5725 4425 
Q 5175 4450 4500 4450 
L 4500 2600 
L 4975 2600 
Q 5475 2600 6050 2625 
L 6050 2125 
Q 5475 2175 4975 2175 
L 4500 2175 
L 4500 825 
Q 4500 200 4525 -575 
L 3950 -575 
Q 3975 200 3975 825 
L 3975 2175 
L 2725 2175 
Q 2650 1700 2525 1287 
Q 2400 875 2125 450 
Q 1850 25 1100 -575 
Q 900 -350 500 -150 
Q 1000 50 1362 412 
Q 1725 775 1937 1262 
Q 2150 1750 2175 2175 
L 1600 2175 
Q 950 2175 350 2100 
L 350 2625 
Q 975 2600 1600 2600 
L 2200 2600 
L 2200 4450 
z
M 3975 2600 
L 3975 4450 
L 2725 4450 
L 2725 2600 
L 3975 2600 
z
" transform="scale(0.015625)"/>
        <path id="SimHei-5c01" d="M 4900 3825 
L 4900 4575 
Q 4900 4925 4875 5200 
L 5425 5200 
Q 5400 4875 5400 4650 
L 5400 3825 
Q 5825 3825 6175 3850 
L 6175 3375 
Q 5775 3400 5550 3400 
L 5400 3400 
L 5400 175 
Q 5425 -300 5075 -425 
Q 4725 -550 4300 -625 
Q 4275 -275 4100 0 
Q 4550 0 4725 50 
Q 4900 100 4900 375 
L 4900 3400 
L 4375 3400 
Q 3900 3400 3500 3375 
L 3500 3850 
Q 3900 3825 4375 3825 
L 4900 3825 
z
M 1025 2675 
Q 475 2675 250 2650 
L 250 3100 
Q 525 3075 1000 3075 
L 1650 3075 
L 1650 3900 
L 1275 3900 
Q 975 3900 525 3875 
L 525 4325 
Q 875 4300 1225 4300 
L 1650 4300 
Q 1650 4800 1625 5175 
L 2175 5175 
Q 2150 4525 2150 4300 
L 2525 4300 
Q 2650 4300 3200 4325 
L 3200 3875 
Q 2625 3900 2425 3900 
L 2150 3900 
L 2150 3075 
L 2600 3075 
Q 2750 3075 3350 3100 
L 3350 2650 
Q 2850 2675 2700 2675 
L 1025 2675 
z
M 1650 1375 
L 1350 1375 
Q 1150 1375 525 1350 
L 525 1775 
Q 825 1750 1200 1750 
L 1650 1750 
Q 1650 2175 1625 2450 
L 2175 2450 
Q 2150 1975 2150 1750 
L 2600 1750 
Q 2900 1750 3225 1775 
L 3225 1350 
Q 2900 1375 2600 1375 
L 2150 1375 
L 2150 400 
Q 3000 525 3300 550 
Q 3250 300 3250 125 
Q 2150 -25 1450 -125 
Q 750 -225 400 -300 
Q 325 -50 250 225 
Q 600 225 1650 350 
L 1650 1375 
z
M 4050 2725 
Q 4300 2250 4575 1675 
Q 4325 1600 4100 1450 
Q 3875 2000 3625 2475 
Q 3850 2575 4050 2725 
z
" transform="scale(0.015625)"/>
       </defs>
       <use xlink:href="#SimHei-5f00"/>
       <use xlink:href="#SimHei-5c01" x="100"/>
      </g>
     </g>
    </g>
    <g id="xtick_10">
     <g id="text_10">
      <!-- 新乡 -->
      <g style="fill: #262626" transform="translate(543.5 335.485937)scale(0.1 -0.1)">
       <defs>
        <path id="SimHei-65b0" d="M 6125 4650 
Q 5750 4650 4275 4500 
L 4275 3225 
L 5575 3225 
Q 5850 3225 6150 3250 
L 6150 2775 
Q 5800 2800 5550 2800 
L 5550 225 
Q 5550 -200 5575 -675 
L 5050 -675 
Q 5075 -200 5075 200 
L 5075 2800 
L 4275 2800 
Q 4275 2175 4225 1600 
Q 4175 1025 4012 462 
Q 3850 -100 3525 -700 
Q 3275 -550 3025 -450 
Q 3425 125 3587 762 
Q 3750 1400 3775 1875 
Q 3800 2350 3800 3300 
Q 3800 4275 3775 4850 
Q 4900 4900 5800 5200 
Q 6000 4800 6125 4650 
z
M 2975 3825 
Q 2800 3725 2575 3050 
Q 3000 3050 3450 3075 
L 3450 2575 
Q 3025 2600 2175 2600 
L 2175 1975 
Q 2950 1975 3400 2000 
L 3400 1500 
Q 2950 1525 2175 1525 
L 2175 0 
Q 2175 -375 1937 -500 
Q 1700 -625 1325 -625 
Q 1225 -325 1075 -75 
Q 1425 -100 1562 -75 
Q 1700 -50 1700 150 
L 1700 1525 
Q 900 1525 450 1500 
L 450 2000 
Q 925 1975 1700 1975 
L 1700 2600 
Q 775 2600 325 2575 
L 325 3075 
Q 775 3050 1175 3050 
L 2125 3050 
Q 2325 3650 2425 3975 
Q 2625 3925 2975 3825 
z
M 2125 5275 
Q 2250 4750 2275 4550 
Q 2850 4550 3350 4575 
L 3350 4075 
Q 2825 4100 2500 4100 
L 1300 4100 
Q 875 4100 475 4075 
L 475 4575 
Q 900 4550 1300 4550 
L 1750 4550 
Q 1700 4825 1600 5125 
Q 1850 5200 2125 5275 
z
M 1525 1050 
Q 1375 875 1175 612 
Q 975 350 600 -125 
Q 425 50 225 175 
Q 750 750 1050 1375 
Q 1300 1175 1525 1050 
z
M 2725 1300 
Q 3025 900 3275 475 
Q 3025 350 2875 150 
Q 2675 600 2350 1025 
Q 2525 1175 2725 1300 
z
M 1275 3950 
Q 1450 3600 1575 3250 
Q 1350 3200 1150 3100 
Q 1025 3475 875 3775 
Q 1050 3875 1275 3950 
z
" transform="scale(0.015625)"/>
        <path id="SimHei-4e61" d="M 3325 4950 
Q 3075 4700 2600 4162 
Q 2125 3625 1800 3275 
Q 2150 3275 3525 3375 
Q 4200 3950 4525 4450 
Q 4900 4175 5075 4075 
Q 4850 3925 3800 2975 
Q 2750 2025 2200 1650 
Q 3900 1800 4625 1875 
Q 4925 2325 5050 2700 
Q 5325 2475 5550 2375 
Q 5450 2275 5125 1750 
Q 4800 1225 4275 762 
Q 3750 300 2900 -50 
Q 2050 -400 725 -675 
Q 625 -325 450 -125 
Q 1475 -75 2562 312 
Q 3650 700 4325 1450 
Q 2700 1250 2175 1175 
Q 1650 1100 1475 1025 
Q 1300 1450 1225 1550 
Q 1600 1600 3150 2975 
Q 1425 2850 1350 2750 
Q 1275 3050 1125 3275 
Q 1550 3525 2050 4187 
Q 2550 4850 2750 5275 
Q 3050 5025 3325 4950 
z
" transform="scale(0.015625)"/>
       </defs>
       <use xlink:href="#SimHei-65b0"/>
       <use xlink:href="#SimHei-4e61" x="100"/>
      </g>
     </g>
    </g>
    <g id="xtick_11">
     <g id="text_11">
      <!-- 洛阳 -->
      <g style="fill: #262626" transform="translate(587.552632 335.525)scale(0.1 -0.1)">
       <defs>
        <path id="SimHei-6d1b" d="M 1975 3400 
Q 2300 3700 2637 4250 
Q 2975 4800 3100 5300 
Q 3400 5125 3725 5050 
Q 3525 4875 3375 4550 
L 5475 4550 
Q 5225 3950 4937 3525 
Q 4650 3100 4325 2800 
Q 4675 2525 5187 2350 
Q 5700 2175 6200 2150 
Q 5875 1850 5850 1600 
Q 5500 1700 5300 1800 
Q 5275 1350 5287 525 
Q 5300 -300 5300 -675 
L 4800 -675 
L 4800 -150 
L 3075 -150 
L 3075 -700 
L 2550 -700 
Q 2600 -300 2600 525 
Q 2600 1350 2575 1675 
Q 2350 1575 2075 1450 
Q 1975 1700 1700 1950 
Q 2225 2075 2700 2275 
Q 3175 2475 3625 2850 
Q 3250 3275 3000 3850 
Q 2850 3500 2475 3025 
Q 2225 3275 1975 3400 
z
M 4800 275 
L 4800 1400 
L 3075 1400 
L 3075 275 
L 4800 275 
z
M 1700 1500 
Q 1500 1175 1275 637 
Q 1050 100 750 -500 
Q 525 -300 200 -150 
Q 525 200 800 737 
Q 1075 1275 1250 1850 
Q 1475 1650 1700 1500 
z
M 4025 3125 
Q 4425 3550 4750 4125 
L 3350 4125 
Q 3600 3550 4025 3125 
z
M 5275 1800 
Q 4525 2075 3950 2500 
Q 3500 2175 2800 1800 
L 5275 1800 
z
M 1625 3800 
Q 1175 4250 625 4600 
Q 825 4775 1000 4975 
Q 1550 4625 2000 4200 
Q 1775 4000 1625 3800 
z
M 600 3375 
Q 1175 3100 1675 2725 
Q 1475 2500 1350 2275 
Q 875 2675 325 2950 
Q 475 3125 600 3375 
z
" transform="scale(0.015625)"/>
       </defs>
       <use xlink:href="#SimHei-6d1b"/>
       <use xlink:href="#SimHei-9633" x="100"/>
      </g>
     </g>
    </g>
    <g id="xtick_12">
     <g id="text_12">
      <!-- 济源 -->
      <g style="fill: #262626" transform="translate(631.605263 335.407812)scale(0.1 -0.1)">
       <defs>
        <path id="SimHei-6d4e" d="M 3475 1950 
Q 3425 1725 3412 1437 
Q 3400 1150 3350 812 
Q 3300 475 3137 162 
Q 2975 -150 2350 -675 
Q 2125 -400 1925 -325 
Q 2375 -100 2637 250 
Q 2900 600 2925 1050 
Q 2975 1500 2925 1900 
Q 2600 1775 2175 1650 
Q 2050 1950 1875 2100 
Q 2975 2275 3600 2725 
Q 3075 3225 2650 3925 
Q 2400 3900 2250 3900 
L 2250 4350 
Q 2525 4325 2950 4325 
L 3800 4325 
Q 3675 4650 3450 5000 
Q 3725 5100 3900 5225 
Q 4150 4750 4325 4325 
L 5150 4325 
Q 5650 4325 5975 4350 
L 5975 3900 
Q 5700 3925 5275 3925 
Q 4825 3200 4300 2750 
Q 4675 2550 5187 2387 
Q 5700 2225 6125 2175 
Q 5925 2000 5800 1700 
Q 5475 1800 5050 1950 
Q 5025 1625 5025 1250 
L 5025 125 
Q 5025 -200 5050 -675 
L 4525 -675 
Q 4550 -200 4550 125 
L 4550 1250 
Q 4550 1625 4525 1975 
L 5000 1975 
Q 4925 2000 4850 2025 
Q 4325 2250 3950 2475 
Q 3500 2175 3100 2000 
Q 3075 1975 3050 1950 
Q 3250 1950 3475 1950 
z
M 1900 1700 
Q 1650 1325 1300 612 
Q 950 -100 800 -375 
Q 600 -175 300 -50 
Q 550 175 937 887 
Q 1325 1600 1475 2025 
Q 1675 1825 1900 1700 
z
M 3100 3925 
Q 3475 3300 3925 2975 
Q 4375 3300 4750 3925 
L 3100 3925 
z
M 650 3625 
Q 1225 3250 1750 2900 
Q 1525 2675 1400 2500 
Q 925 2900 350 3250 
Q 500 3375 650 3625 
z
M 950 4975 
Q 1525 4600 2025 4200 
Q 1800 4000 1675 3825 
Q 1100 4350 675 4650 
Q 825 4775 950 4975 
z
" transform="scale(0.015625)"/>
        <path id="SimHei-6e90" d="M 4475 4300 
Q 4350 4100 4225 3800 
L 5650 3800 
Q 5625 3425 5625 3050 
L 5625 2425 
Q 5625 2150 5650 1650 
L 4575 1650 
L 4575 -25 
Q 4575 -325 4387 -487 
Q 4200 -650 3800 -700 
Q 3725 -425 3575 -150 
Q 4100 -225 4100 100 
L 4100 1650 
L 3050 1650 
Q 3075 2050 3075 2400 
L 3075 3075 
Q 3075 3400 3050 3800 
L 3725 3800 
Q 3825 4025 3925 4425 
Q 4175 4350 4475 4300 
z
M 1200 -175 
Q 1550 150 1725 537 
Q 1900 925 1987 1450 
Q 2075 1975 2087 2537 
Q 2100 3100 2100 3750 
Q 2100 4425 2075 4975 
L 4925 4975 
Q 5500 4975 6025 5000 
L 6025 4525 
Q 5500 4550 4925 4550 
L 2575 4550 
L 2575 2875 
Q 2575 2275 2537 1787 
Q 2500 1300 2362 837 
Q 2225 375 2050 37 
Q 1875 -300 1625 -625 
Q 1500 -375 1200 -175 
z
M 1550 1775 
Q 1375 1275 1150 575 
Q 925 -125 825 -450 
Q 600 -275 250 -125 
Q 400 75 650 687 
Q 900 1300 1075 2100 
Q 1325 1900 1550 1775 
z
M 5150 2900 
L 5150 3400 
L 3550 3400 
L 3550 2900 
L 5150 2900 
z
M 2275 -100 
Q 2475 100 2700 412 
Q 2925 725 3150 1150 
Q 3325 975 3650 825 
Q 3400 600 3200 287 
Q 3000 -25 2700 -400 
Q 2475 -225 2275 -100 
z
M 5150 2050 
L 5150 2500 
L 3550 2500 
L 3550 2050 
L 5150 2050 
z
M 5300 1125 
Q 6000 350 6175 100 
Q 5950 -75 5775 -250 
Q 5575 25 5400 262 
Q 5225 500 4925 825 
Q 5100 950 5300 1125 
z
M 1325 2575 
Q 1125 2775 850 2925 
L 300 3225 
Q 400 3400 525 3625 
Q 750 3500 1062 3337 
Q 1375 3175 1625 3025 
L 1325 2575 
z
M 1425 3975 
Q 975 4475 550 4775 
Q 700 4950 875 5125 
Q 1550 4600 1775 4350 
Q 1600 4175 1425 3975 
z
" transform="scale(0.015625)"/>
       </defs>
       <use xlink:href="#SimHei-6d4e"/>
       <use xlink:href="#SimHei-6e90" x="100"/>
      </g>
     </g>
    </g>
    <g id="xtick_13">
     <g id="text_13">
      <!-- 漯河 -->
      <g style="fill: #262626" transform="translate(675.657895 335.290625)scale(0.1 -0.1)">
       <defs>
        <path id="SimHei-6f2f" d="M 2225 2900 
Q 2250 3275 2250 3625 
L 2250 4250 
Q 2250 4675 2225 5000 
L 5625 5000 
Q 5600 4575 5600 4250 
L 5600 3625 
Q 5600 3275 5625 2900 
L 2225 2900 
z
M 5200 2500 
Q 4925 2350 4562 2012 
Q 4200 1675 3650 1325 
L 5125 1325 
Q 4925 1500 4750 1625 
Q 4925 1775 5075 1925 
Q 5350 1725 5600 1500 
Q 5850 1275 6175 1000 
Q 5975 900 5775 625 
Q 5650 800 5450 1000 
L 4150 1000 
L 4150 -175 
Q 4150 -500 3925 -562 
Q 3700 -625 3300 -675 
Q 3275 -425 3075 -150 
Q 3425 -175 3575 -175 
Q 3725 -175 3725 0 
L 3725 1000 
Q 3325 975 2962 937 
Q 2600 900 2075 775 
Q 2025 1025 1925 1250 
Q 2525 1325 2950 1425 
Q 3375 1525 3800 1925 
Q 3450 1900 3175 1875 
Q 2900 1850 2325 1775 
Q 2300 2000 2225 2175 
Q 2700 2250 2887 2387 
Q 3075 2525 3275 2850 
L 3775 2625 
L 3325 2250 
L 4200 2250 
Q 4350 2375 4437 2475 
Q 4525 2575 4650 2775 
L 5200 2500 
z
M 1700 1775 
Q 1475 1200 1387 900 
Q 1300 600 1187 250 
Q 1075 -100 975 -525 
Q 700 -375 400 -250 
Q 600 50 712 337 
Q 825 625 925 950 
Q 1025 1275 1275 2075 
Q 1475 1875 1700 1775 
z
M 3275 400 
Q 3075 325 2725 12 
Q 2375 -300 2000 -550 
Q 1800 -350 1600 -225 
Q 2050 0 2262 187 
Q 2475 375 2800 750 
Q 2975 575 3275 400 
z
M 4925 675 
Q 5275 475 5612 225 
Q 5950 -25 6150 -175 
Q 5925 -300 5775 -550 
Q 5425 -200 5137 12 
Q 4850 225 4600 375 
Q 4775 525 4925 675 
z
M 525 3625 
Q 700 3500 987 3312 
Q 1275 3125 1600 2875 
Q 1475 2725 1300 2475 
Q 1025 2700 787 2875 
Q 550 3050 225 3225 
Q 375 3400 525 3625 
z
M 3725 4125 
L 3725 4675 
L 2675 4675 
L 2675 4125 
L 3725 4125 
z
M 3725 3225 
L 3725 3750 
L 2675 3750 
L 2675 3225 
L 3725 3225 
z
M 5150 4125 
L 5150 4675 
L 4150 4675 
L 4150 4125 
L 5150 4125 
z
M 5150 3225 
L 5150 3750 
L 4150 3750 
L 4150 3225 
L 5150 3225 
z
M 825 5175 
Q 1000 5025 1275 4812 
Q 1550 4600 1750 4425 
Q 1550 4250 1400 4050 
Q 1225 4275 987 4475 
Q 750 4675 525 4825 
Q 700 5000 825 5175 
z
" transform="scale(0.015625)"/>
        <path id="SimHei-6cb3" d="M 4250 3450 
Q 4225 2975 4225 2000 
Q 4225 1025 4250 750 
L 3750 750 
L 3750 1150 
L 2850 1150 
L 2850 425 
L 2350 425 
Q 2400 725 2400 1875 
Q 2400 3050 2375 3450 
L 4250 3450 
z
M 5475 4675 
Q 5800 4675 6175 4700 
L 6175 4200 
Q 5700 4225 5425 4225 
L 5425 0 
Q 5425 -375 5175 -487 
Q 4925 -600 4400 -675 
Q 4375 -425 4125 -100 
Q 4675 -125 4825 -87 
Q 4975 -50 4975 200 
L 4975 4225 
L 3025 4225 
Q 2625 4225 2125 4200 
L 2125 4700 
Q 2625 4675 3025 4675 
L 5475 4675 
z
M 1925 1625 
Q 1675 1225 1375 550 
Q 1075 -125 900 -550 
Q 675 -350 300 -175 
Q 525 75 862 725 
Q 1200 1375 1400 1950 
Q 1675 1750 1925 1625 
z
M 3750 1600 
L 3750 3000 
L 2850 3000 
L 2850 1600 
L 3750 1600 
z
M 525 3500 
Q 1150 3125 1675 2800 
Q 1450 2550 1325 2325 
Q 850 2725 250 3050 
Q 400 3250 525 3500 
z
M 850 5050 
Q 1350 4675 1850 4225 
Q 1575 4000 1400 3825 
Q 1025 4275 500 4700 
Q 675 4850 850 5050 
z
" transform="scale(0.015625)"/>
       </defs>
       <use xlink:href="#SimHei-6f2f"/>
       <use xlink:href="#SimHei-6cb3" x="100"/>
      </g>
     </g>
    </g>
    <g id="xtick_14">
     <g id="text_14">
      <!-- 濮阳 -->
      <g style="fill: #262626" transform="translate(719.710526 335.329687)scale(0.1 -0.1)">
       <defs>
        <path id="SimHei-6fee" d="M 5325 3325 
Q 5100 2975 5000 2750 
L 5175 2750 
Q 5350 2750 5800 2775 
L 5800 2400 
Q 5275 2425 4975 2425 
L 4500 2425 
L 4500 2050 
L 4925 2050 
Q 5225 2050 5600 2075 
L 5600 1675 
Q 5225 1700 4950 1700 
L 4500 1700 
L 4500 1250 
L 5125 1250 
Q 5525 1250 5925 1275 
L 5925 900 
Q 5525 925 5125 925 
L 4700 925 
Q 4900 475 5300 200 
Q 5700 -75 6175 -225 
Q 5925 -425 5825 -650 
Q 5175 -325 4862 -25 
Q 4550 275 4375 650 
Q 4250 325 3900 -37 
Q 3550 -400 2925 -675 
Q 2800 -500 2550 -300 
Q 3275 -75 3612 287 
Q 3950 650 4000 925 
L 3525 925 
Q 3175 925 2700 900 
L 2700 1275 
Q 3150 1250 3525 1250 
L 4075 1250 
L 4075 1700 
L 3850 1700 
Q 3500 1700 3050 1675 
L 3050 2075 
Q 3500 2050 3850 2050 
L 4075 2050 
L 4075 2425 
L 3525 2425 
Q 3225 2425 2850 2400 
L 2850 2775 
Q 3225 2750 3525 2750 
L 3600 2750 
Q 3500 3050 3325 3350 
L 3625 3500 
Q 3175 3500 2750 3475 
L 2750 3850 
Q 3175 3825 3500 3825 
L 3650 3825 
L 3650 4375 
Q 3650 4650 3625 5200 
L 4100 5200 
Q 4075 4700 4075 4400 
L 4075 3825 
L 4550 3825 
L 4550 4425 
Q 4550 4750 4525 5200 
L 4975 5200 
Q 4950 4775 4950 4425 
L 4950 3825 
L 5225 3825 
Q 5500 3825 6000 3850 
L 6000 3475 
Q 5600 3500 5250 3500 
L 4950 3500 
Q 5200 3375 5325 3325 
z
M 1950 -600 
Q 1975 25 1975 475 
L 1975 3075 
Q 1775 2550 1550 2150 
Q 1425 2325 1175 2450 
Q 1375 2725 1537 3087 
Q 1700 3450 1812 3775 
Q 1925 4100 2012 4412 
Q 2100 4725 2175 5175 
Q 2425 5050 2675 5000 
Q 2600 4850 2525 4637 
Q 2450 4425 2375 4150 
L 2375 475 
Q 2375 75 2400 -600 
L 1950 -600 
z
M 1350 1725 
Q 1125 975 1050 675 
Q 975 375 912 62 
Q 850 -250 775 -525 
Q 500 -350 275 -250 
Q 400 25 487 287 
Q 575 550 650 812 
Q 725 1075 925 1950 
Q 1125 1800 1350 1725 
z
M 3725 3500 
L 3700 3500 
Q 3850 3225 4025 2900 
Q 3850 2825 3675 2750 
L 4550 2750 
Q 4750 3100 4875 3500 
L 3725 3500 
z
M 1175 4600 
Q 1350 4475 1525 4300 
Q 1375 4150 1200 3950 
L 825 4325 
Q 650 4500 425 4675 
Q 575 4825 700 4975 
L 1175 4600 
z
M 900 3275 
Q 1100 3150 1325 3000 
Q 1175 2750 1075 2575 
Q 875 2750 687 2875 
Q 500 3000 250 3150 
Q 375 3300 500 3525 
L 900 3275 
z
M 5950 4825 
Q 5850 4600 5750 4400 
Q 5650 4200 5550 3950 
Q 5350 4050 5175 4100 
Q 5275 4300 5350 4487 
Q 5425 4675 5500 4975 
L 5950 4825 
z
M 3175 4925 
Q 3375 4450 3525 4100 
Q 3325 4025 3125 3925 
Q 3050 4250 2800 4725 
Q 2975 4825 3175 4925 
z
" transform="scale(0.015625)"/>
       </defs>
       <use xlink:href="#SimHei-6fee"/>
       <use xlink:href="#SimHei-9633" x="100"/>
      </g>
     </g>
    </g>
    <g id="xtick_15">
     <g id="text_15">
      <!-- 焦作 -->
      <g style="fill: #262626" transform="translate(763.763158 335.525)scale(0.1 -0.1)">
       <defs>
        <path id="SimHei-7126" d="M 2375 4900 
Q 2125 4625 1975 4300 
L 5075 4300 
Q 5400 4300 5900 4325 
L 5900 3850 
Q 5400 3875 5075 3875 
L 3875 3875 
L 3875 3300 
L 4700 3300 
Q 5200 3300 5600 3325 
L 5600 2875 
Q 5200 2900 4700 2900 
L 3875 2900 
L 3875 2325 
L 4750 2325 
Q 5150 2325 5600 2350 
L 5600 1900 
Q 5150 1925 4750 1925 
L 3875 1925 
L 3875 1400 
L 5025 1400 
Q 5500 1400 5950 1425 
L 5950 950 
Q 5500 1000 5050 1000 
L 1750 1000 
L 1750 675 
L 1200 675 
Q 1225 1250 1225 1700 
L 1225 3075 
Q 925 2625 600 2275 
Q 400 2525 200 2675 
Q 800 3225 1225 3950 
Q 1650 4675 1800 5200 
Q 2100 5025 2375 4900 
z
M 3350 2325 
L 3350 2900 
L 1750 2900 
L 1750 2325 
L 3350 2325 
z
M 3350 3300 
L 3350 3875 
L 1750 3875 
L 1750 3300 
L 3350 3300 
z
M 3350 1400 
L 3350 1925 
L 1750 1925 
L 1750 1400 
L 3350 1400 
z
M 350 -500 
Q 775 -25 975 525 
Q 1225 450 1500 375 
Q 1250 -25 925 -700 
Q 700 -575 350 -500 
z
M 3000 -525 
Q 2675 -575 2450 -650 
Q 2375 -175 2225 375 
Q 2450 425 2775 525 
L 3000 -525 
z
M 5675 -575 
Q 5500 -225 5125 425 
Q 5350 525 5550 700 
Q 5850 150 6175 -250 
Q 5850 -400 5675 -575 
z
M 4175 600 
Q 4425 -100 4525 -425 
Q 4225 -500 4000 -575 
Q 3900 -150 3650 450 
Q 3950 525 4175 600 
z
M 3600 5275 
Q 3800 5025 4175 4625 
Q 3925 4525 3700 4350 
Q 3500 4650 3200 5025 
Q 3400 5125 3600 5275 
z
" transform="scale(0.015625)"/>
        <path id="SimHei-4f5c" d="M 4075 5050 
Q 3825 4850 3525 4100 
L 5175 4100 
Q 5725 4100 6050 4125 
L 6050 3675 
Q 5725 3700 5175 3700 
L 4025 3700 
L 4025 2725 
L 5050 2725 
Q 5475 2725 5750 2750 
L 5750 2275 
Q 5425 2300 5050 2300 
L 4025 2300 
L 4025 1175 
L 5100 1175 
Q 5600 1175 5925 1200 
L 5925 725 
Q 5600 750 5125 750 
L 4025 750 
L 4025 275 
Q 4025 -425 4050 -675 
L 3525 -675 
Q 3550 -400 3550 75 
L 3550 3700 
L 3300 3700 
Q 2925 3050 2575 2575 
Q 2300 2825 2100 2900 
Q 2450 3250 2825 3900 
Q 3200 4550 3425 5300 
Q 3800 5125 4075 5050 
z
M 2325 4950 
Q 2100 4775 1750 3875 
L 1750 675 
Q 1750 -125 1775 -600 
L 1200 -600 
Q 1225 -150 1225 650 
L 1225 3000 
Q 875 2425 550 2025 
Q 350 2325 200 2450 
Q 525 2800 987 3612 
Q 1450 4425 1675 5275 
Q 1950 5100 2325 4950 
z
" transform="scale(0.015625)"/>
       </defs>
       <use xlink:href="#SimHei-7126"/>
       <use xlink:href="#SimHei-4f5c" x="100"/>
      </g>
     </g>
    </g>
    <g id="xtick_16">
     <g id="text_16">
      <!-- 许昌 -->
      <g style="fill: #262626" transform="translate(807.815789 335.446875)scale(0.1 -0.1)">
       <defs>
        <path id="SimHei-8bb8" d="M 3850 5075 
Q 3700 4950 3375 4200 
L 5075 4200 
Q 5675 4200 5950 4225 
L 5950 3775 
Q 5575 3800 5100 3800 
L 4600 3800 
L 4600 2075 
L 5250 2075 
Q 5825 2075 6200 2100 
L 6200 1625 
Q 5825 1650 5250 1650 
L 4600 1650 
L 4600 375 
Q 4600 -300 4625 -675 
L 4100 -675 
Q 4125 -300 4125 375 
L 4125 1650 
L 3300 1650 
Q 2750 1650 2400 1625 
L 2400 2100 
Q 2725 2075 3300 2075 
L 4125 2075 
L 4125 3800 
L 3225 3800 
Q 2850 3075 2675 2775 
Q 2425 2950 2150 3000 
Q 2450 3350 2612 3675 
Q 2775 4000 2925 4362 
Q 3075 4725 3250 5275 
Q 3525 5175 3850 5075 
z
M 1675 3425 
Q 1650 2950 1650 2425 
L 1650 575 
Q 1850 800 2300 1300 
Q 2400 1050 2550 775 
Q 2125 450 1825 137 
Q 1525 -175 1300 -500 
Q 1100 -275 900 -75 
Q 1175 125 1175 450 
L 1175 2975 
L 875 2975 
Q 600 2975 250 2950 
L 250 3450 
Q 600 3425 875 3425 
L 1675 3425 
z
M 1375 5250 
Q 1475 5100 1950 4200 
Q 1725 4100 1475 3925 
Q 1275 4425 900 4975 
Q 1100 5100 1375 5250 
z
" transform="scale(0.015625)"/>
        <path id="SimHei-660c" d="M 5700 875 
Q 5700 -25 5725 -575 
L 5200 -575 
L 5200 -175 
L 1250 -175 
L 1250 -550 
L 725 -550 
Q 750 -75 750 850 
Q 750 1775 725 2250 
L 5700 2250 
L 5700 875 
z
M 5275 5050 
Q 5250 4575 5250 3925 
Q 5250 3275 5275 2775 
L 1275 2775 
Q 1300 3275 1300 3925 
Q 1300 4575 1275 5050 
L 5275 5050 
z
M 5200 1225 
L 5200 1850 
L 1250 1850 
L 1250 1225 
L 5200 1225 
z
M 5200 250 
L 5200 825 
L 1250 825 
L 1250 250 
L 5200 250 
z
M 4800 4075 
L 4800 4625 
L 1775 4625 
L 1775 4075 
L 4800 4075 
z
M 4800 3200 
L 4800 3675 
L 1775 3675 
L 1775 3200 
L 4800 3200 
z
" transform="scale(0.015625)"/>
       </defs>
       <use xlink:href="#SimHei-8bb8"/>
       <use xlink:href="#SimHei-660c" x="100"/>
      </g>
     </g>
    </g>
    <g id="xtick_17">
     <g id="text_17">
      <!-- 郑州 -->
      <g style="fill: #262626" transform="translate(851.868421 335.407812)scale(0.1 -0.1)">
       <defs>
        <path id="SimHei-90d1" d="M 6025 4925 
Q 5625 3725 5300 2650 
Q 5700 2200 5962 1737 
Q 6225 1275 6137 900 
Q 6050 525 5737 350 
Q 5425 175 4975 50 
Q 4925 325 4750 675 
Q 5475 675 5575 937 
Q 5675 1200 5425 1675 
Q 5175 2150 4800 2600 
Q 4950 3075 5325 4500 
L 4375 4500 
L 4375 -650 
L 3825 -650 
Q 3850 -100 3850 475 
L 3850 3700 
Q 3850 4325 3825 4925 
L 6025 4925 
z
M 3150 5050 
Q 2800 4425 2625 3925 
Q 3000 3925 3400 3950 
L 3400 3500 
Q 2950 3525 2225 3525 
L 2225 2425 
Q 3075 2425 3550 2450 
L 3550 2000 
Q 3100 2025 2200 2025 
Q 2150 1825 2125 1600 
Q 3075 875 3525 425 
Q 3350 275 3100 25 
Q 2725 575 2000 1150 
Q 1775 650 1550 325 
Q 1325 0 725 -525 
Q 525 -300 275 -125 
Q 650 100 887 337 
Q 1125 575 1350 937 
Q 1575 1300 1700 2025 
Q 750 2025 325 2000 
L 325 2450 
Q 750 2425 1725 2425 
L 1725 3525 
Q 950 3525 550 3500 
L 550 3950 
Q 950 3925 1425 3925 
L 2150 3925 
Q 2350 4475 2600 5275 
Q 2825 5175 3150 5050 
z
M 1400 5175 
Q 1725 4525 1825 4375 
Q 1600 4250 1375 4100 
Q 1075 4725 950 4925 
Q 1175 5075 1400 5175 
z
" transform="scale(0.015625)"/>
        <path id="SimHei-5dde" d="M 5550 275 
Q 5550 75 5575 -500 
L 5050 -500 
Q 5075 -50 5075 275 
L 5075 4150 
Q 5075 4475 5050 5025 
L 5575 5025 
Q 5550 4375 5550 4150 
L 5550 275 
z
M 2100 5000 
Q 2050 4425 2050 4025 
L 2050 2225 
Q 2050 1500 1837 800 
Q 1625 100 1075 -600 
Q 825 -425 575 -375 
Q 900 -75 1237 562 
Q 1575 1200 1600 2175 
L 1600 4050 
Q 1600 4475 1575 5000 
L 2100 5000 
z
M 3750 4700 
Q 3725 4225 3725 3925 
L 3725 600 
Q 3725 250 3750 -300 
L 3250 -300 
Q 3275 275 3275 600 
L 3275 3900 
Q 3275 4225 3250 4700 
L 3750 4700 
z
M 450 1625 
Q 550 2050 637 2475 
Q 725 2900 750 3375 
Q 1075 3350 1250 3350 
Q 1225 3150 1150 2687 
Q 1075 2225 950 1550 
Q 725 1625 450 1625 
z
M 4325 3350 
Q 4750 2400 4950 1950 
Q 4750 1825 4525 1750 
Q 4350 2300 3925 3150 
Q 4100 3250 4325 3350 
z
M 2650 3375 
Q 2925 2475 3125 1925 
Q 2875 1875 2675 1775 
Q 2525 2400 2225 3200 
Q 2350 3275 2650 3375 
z
" transform="scale(0.015625)"/>
       </defs>
       <use xlink:href="#SimHei-90d1"/>
       <use xlink:href="#SimHei-5dde" x="100"/>
      </g>
     </g>
    </g>
    <g id="xtick_18">
     <g id="text_18">
      <!-- 驻马店 -->
      <g style="fill: #262626" transform="translate(890.921053 335.407812)scale(0.1 -0.1)">
       <defs>
        <path id="SimHei-9a7b" d="M 5025 4050 
Q 5450 4050 5900 4075 
L 5900 3600 
Q 5475 3625 5025 3625 
L 4600 3625 
L 4600 2225 
L 4950 2225 
Q 5300 2225 5650 2250 
L 5650 1775 
Q 5300 1800 4950 1800 
L 4600 1800 
L 4600 -50 
L 5100 -50 
Q 5675 -50 6050 0 
L 6050 -475 
Q 5675 -450 5100 -450 
L 3475 -450 
Q 3000 -450 2750 -475 
L 2750 0 
Q 2975 -50 3500 -50 
L 4100 -50 
L 4100 1800 
L 3850 1800 
Q 3525 1800 3150 1775 
L 3150 2250 
Q 3525 2225 3850 2225 
L 4100 2225 
L 4100 3625 
L 3725 3625 
Q 3350 3625 2900 3600 
L 2900 4075 
Q 3350 4050 3725 4050 
L 5025 4050 
z
M 1250 3800 
Q 1175 3450 1150 3075 
L 1100 2175 
L 1825 2175 
L 1975 4275 
L 1375 4275 
Q 1000 4275 550 4250 
L 550 4725 
Q 1000 4700 1200 4700 
L 2525 4700 
Q 2475 4375 2425 3925 
L 2275 2175 
L 2750 2175 
Q 2700 1800 2675 1500 
L 2550 50 
Q 2525 -475 2225 -537 
Q 1925 -600 1475 -675 
Q 1425 -375 1300 -75 
Q 1775 -100 1912 -87 
Q 2050 -75 2075 225 
L 2225 1750 
L 575 1750 
Q 650 2250 675 2750 
Q 700 3250 725 3825 
Q 1025 3800 1250 3800 
z
M 200 975 
Q 550 1000 975 1050 
Q 1400 1100 1875 1175 
Q 1825 1000 1800 775 
Q 1525 725 1062 625 
Q 600 525 325 450 
Q 275 725 200 975 
z
M 3875 5000 
Q 4125 5100 4375 5225 
Q 4550 4850 4700 4475 
Q 4475 4375 4225 4250 
Q 4100 4575 3875 5000 
z
" transform="scale(0.015625)"/>
        <path id="SimHei-9a6c" d="M 2300 3975 
Q 2200 3750 2125 3287 
Q 2050 2825 2050 2425 
L 4100 2425 
Q 4150 2925 4200 3450 
Q 4250 3975 4300 4400 
L 1900 4400 
Q 1425 4400 875 4375 
L 875 4875 
Q 1425 4850 1900 4850 
L 4875 4850 
Q 4775 4175 4700 3487 
Q 4625 2800 4600 2425 
L 5750 2425 
Q 5700 1875 5662 1212 
Q 5625 550 5500 112 
Q 5375 -325 5075 -425 
Q 4775 -525 3925 -575 
Q 3900 -300 3700 25 
Q 4675 0 4800 62 
Q 4925 125 5012 287 
Q 5100 450 5150 1037 
Q 5200 1625 5200 2000 
L 1500 2000 
Q 1550 2500 1600 3037 
Q 1650 3575 1675 4075 
Q 2000 4025 2300 3975 
z
M 3625 1225 
Q 4025 1225 4675 1250 
L 4675 775 
Q 4000 800 3625 800 
L 1400 800 
Q 900 800 500 775 
L 500 1250 
Q 900 1225 1400 1225 
L 3625 1225 
z
" transform="scale(0.015625)"/>
        <path id="SimHei-5e97" d="M 3800 3900 
Q 3775 3500 3775 3125 
L 5100 3125 
Q 5500 3125 5800 3150 
L 5800 2675 
Q 5525 2700 5100 2700 
L 3775 2700 
L 3775 1850 
L 5425 1850 
Q 5400 1200 5400 650 
Q 5400 100 5425 -525 
L 4900 -525 
L 4900 -75 
L 2400 -75 
L 2400 -550 
L 1900 -550 
Q 1925 150 1925 700 
Q 1925 1275 1900 1850 
L 3275 1850 
L 3275 3100 
Q 3275 3525 3250 3900 
L 3800 3900 
z
M 3450 5250 
Q 3625 4825 3750 4450 
L 4625 4450 
Q 5275 4450 5750 4475 
L 5750 4025 
Q 5300 4050 4825 4050 
L 1475 4050 
Q 1475 2450 1450 1862 
Q 1425 1275 1300 662 
Q 1175 50 900 -525 
Q 675 -350 375 -225 
Q 750 350 862 1062 
Q 975 1775 987 2612 
Q 1000 3450 950 4450 
L 3150 4450 
Q 3100 4675 2925 5075 
Q 3175 5125 3450 5250 
z
M 4900 325 
L 4900 1425 
L 2400 1425 
L 2400 325 
L 4900 325 
z
" transform="scale(0.015625)"/>
       </defs>
       <use xlink:href="#SimHei-9a7b"/>
       <use xlink:href="#SimHei-9a6c" x="100"/>
       <use xlink:href="#SimHei-5e97" x="200"/>
      </g>
     </g>
    </g>
    <g id="xtick_19">
     <g id="text_19">
      <!-- 鹤壁 -->
      <g style="fill: #262626" transform="translate(939.973684 335.407812)scale(0.1 -0.1)">
       <defs>
        <path id="SimHei-9e64" d="M 1650 4475 
Q 1750 4825 1825 5275 
Q 2075 5175 2400 5100 
Q 2275 5000 2225 4825 
L 2125 4475 
L 3425 4475 
Q 3400 4250 3400 4025 
Q 3400 3800 3425 3575 
L 2975 3575 
L 2975 4125 
L 2000 4125 
Q 1875 3775 1750 3525 
Q 1625 3275 1425 3025 
L 2600 3025 
Q 2875 3025 3350 3050 
L 3350 2650 
Q 2900 2675 2425 2675 
L 2425 2125 
Q 2850 2125 3225 2150 
L 3225 1775 
Q 2850 1800 2425 1800 
L 2425 1225 
Q 2825 1225 3225 1250 
L 3225 875 
Q 2850 900 2425 900 
L 2425 325 
Q 2875 325 3325 350 
L 3325 -25 
Q 2850 0 2450 0 
L 1300 0 
L 1300 -475 
L 850 -475 
Q 900 50 900 325 
L 900 2300 
Q 725 2100 500 1850 
Q 350 2075 200 2250 
Q 700 2675 1025 3150 
Q 1350 3625 1500 4125 
L 975 4125 
L 975 3450 
L 525 3450 
Q 550 3700 550 3975 
Q 550 4250 525 4475 
L 1650 4475 
z
M 4775 -650 
Q 4700 -350 4575 -125 
Q 5125 -125 5300 -62 
Q 5475 0 5512 400 
Q 5550 800 5575 1525 
L 3725 1525 
Q 3750 2000 3750 2350 
L 3750 3625 
Q 3750 3875 3725 4400 
L 4200 4400 
Q 4275 4725 4325 5225 
Q 4575 5150 4925 5100 
Q 4750 4925 4625 4400 
L 5825 4400 
Q 5800 4075 5762 3562 
Q 5725 3050 5700 2750 
Q 5675 2450 5550 2337 
Q 5425 2225 4850 2125 
Q 4775 2375 4625 2625 
Q 5200 2625 5237 2687 
Q 5275 2750 5300 2962 
Q 5325 3175 5350 4050 
L 4150 4050 
L 4150 1875 
L 6050 1875 
Q 6000 1400 5975 950 
Q 5950 500 5900 87 
Q 5850 -325 5612 -437 
Q 5375 -550 4775 -650 
z
M 4550 950 
Q 4775 950 5225 975 
L 5225 525 
Q 4775 550 4550 550 
L 4125 550 
Q 3900 550 3450 525 
L 3450 975 
Q 3900 950 4125 950 
L 4550 950 
z
M 2025 325 
L 2025 900 
L 1300 900 
L 1300 325 
L 2025 325 
z
M 2025 1225 
L 2025 1800 
L 1300 1800 
L 1300 1225 
L 2025 1225 
z
M 2025 2125 
L 2025 2675 
L 1300 2675 
L 1300 2125 
L 2025 2125 
z
M 4775 3700 
Q 4925 3325 5000 3075 
Q 4775 3025 4575 2925 
Q 4500 3250 4375 3550 
Q 4575 3600 4775 3700 
z
M 2375 3800 
Q 2475 3600 2600 3225 
Q 2400 3175 2200 3100 
Q 2125 3425 2000 3650 
Q 2200 3725 2375 3800 
z
" transform="scale(0.015625)"/>
        <path id="SimHei-58c1" d="M 2875 4925 
Q 2850 4575 2850 4250 
Q 2850 3950 2875 3625 
L 1175 3625 
Q 1150 3375 1100 3150 
L 2950 3150 
Q 2925 2850 2925 2475 
Q 2925 2100 2950 1725 
L 1075 1725 
Q 1100 2025 1100 2225 
L 1100 3075 
Q 950 2450 575 1875 
Q 475 2000 200 2150 
Q 500 2625 625 3025 
Q 750 3425 762 3937 
Q 775 4450 750 4925 
L 2875 4925 
z
M 3000 1000 
Q 3000 1350 2975 1650 
L 3475 1650 
Q 3450 1200 3450 1000 
L 4450 1000 
Q 4850 1000 5225 1050 
L 5225 575 
Q 4850 600 4450 600 
L 3450 600 
L 3450 -50 
L 5125 -50 
Q 5575 -50 5925 -25 
L 5925 -475 
Q 5625 -450 5150 -450 
L 1325 -450 
Q 825 -450 475 -475 
L 475 -25 
Q 825 -50 1325 -50 
L 3000 -50 
L 3000 600 
L 2025 600 
Q 1550 600 1150 575 
L 1150 1050 
Q 1550 1000 2025 1000 
L 3000 1000 
z
M 4050 4225 
Q 4200 3950 4375 3600 
Q 4175 3550 3975 3400 
L 4650 3400 
Q 4825 3850 4925 4275 
L 3950 4275 
Q 3575 4275 3225 4250 
L 3225 4700 
Q 3575 4675 3800 4675 
L 4175 4675 
Q 4125 4900 4050 5175 
Q 4325 5225 4550 5275 
Q 4600 5000 4675 4675 
L 5175 4675 
Q 5400 4675 5775 4700 
L 5775 4250 
Q 5475 4275 5000 4275 
Q 5275 4150 5450 4050 
Q 5325 3950 5225 3750 
Q 5125 3550 5075 3400 
L 5250 3400 
Q 5650 3400 5925 3425 
L 5925 3025 
Q 5650 3050 5250 3050 
L 4700 3050 
L 4700 2475 
L 5050 2475 
Q 5400 2475 5775 2500 
L 5775 2100 
Q 5425 2125 5075 2125 
L 4700 2125 
Q 4700 1775 4725 1450 
L 4250 1450 
Q 4275 1750 4275 2125 
L 3975 2125 
Q 3600 2125 3250 2100 
L 3250 2500 
Q 3600 2475 3975 2475 
L 4275 2475 
L 4275 3050 
L 3900 3050 
Q 3550 3050 3175 3025 
L 3175 3425 
Q 3525 3400 3925 3400 
Q 3825 3700 3625 4025 
Q 3825 4075 4050 4225 
z
M 2450 3975 
L 2450 4575 
L 1225 4575 
L 1225 3975 
L 2450 3975 
z
M 2525 2100 
L 2525 2800 
L 1525 2800 
L 1525 2100 
L 2525 2100 
z
" transform="scale(0.015625)"/>
       </defs>
       <use xlink:href="#SimHei-9e64"/>
       <use xlink:href="#SimHei-58c1" x="100"/>
      </g>
     </g>
    </g>
    <g id="text_20">
     <!-- city -->
     <g style="fill: #262626" transform="translate(543.5 347.65)scale(0.1 -0.1)">
      <defs>
       <path id="SimHei-63" d="M 2850 1250 
Q 2850 725 2487 400 
Q 2125 75 1575 75 
Q 1025 75 625 462 
Q 225 850 225 1525 
Q 225 2200 625 2587 
Q 1025 2975 1575 2975 
Q 2125 2975 2450 2687 
Q 2775 2400 2775 2000 
L 2225 2000 
Q 2200 2300 2012 2412 
Q 1825 2525 1575 2525 
Q 1275 2525 1025 2287 
Q 775 2050 775 1525 
Q 775 1000 1025 762 
Q 1275 525 1575 525 
Q 1900 525 2100 700 
Q 2300 875 2300 1250 
L 2850 1250 
z
" transform="scale(0.015625)"/>
       <path id="SimHei-69" d="M 1800 3725 
L 1300 3725 
L 1300 4375 
L 1800 4375 
L 1800 3725 
z
M 1800 125 
L 1300 125 
L 1300 2925 
L 1800 2925 
L 1800 125 
z
" transform="scale(0.015625)"/>
       <path id="SimHei-74" d="M 2750 200 
Q 2625 150 2462 112 
Q 2300 75 2025 75 
Q 1575 75 1300 325 
Q 1025 575 1025 1025 
L 1025 2525 
L 175 2525 
L 175 2925 
L 1025 2925 
L 1025 3900 
L 1525 3900 
L 1525 2925 
L 2550 2925 
L 2550 2525 
L 1525 2525 
L 1525 1000 
Q 1525 800 1625 662 
Q 1725 525 2000 525 
Q 2275 525 2450 575 
Q 2625 625 2750 700 
L 2750 200 
z
" transform="scale(0.015625)"/>
       <path id="SimHei-79" d="M 2900 2925 
L 1750 -100 
Q 1650 -450 1450 -625 
Q 1250 -800 950 -800 
Q 825 -800 712 -787 
Q 600 -775 500 -725 
L 500 -225 
Q 600 -275 700 -300 
Q 800 -325 875 -325 
Q 1075 -325 1150 -262 
Q 1225 -200 1300 25 
L 200 2925 
L 750 2925 
L 1550 725 
L 1575 725 
L 2350 2925 
L 2900 2925 
z
" transform="scale(0.015625)"/>
      </defs>
      <use xlink:href="#SimHei-63"/>
      <use xlink:href="#SimHei-69" x="50"/>
      <use xlink:href="#SimHei-74" x="100"/>
      <use xlink:href="#SimHei-79" x="150"/>
     </g>
    </g>
   </g>
   <g id="matplotlib.axis_2">
    <g id="ytick_1">
     <g id="line2d_1">
      <path d="M 135 320.4 
L 972 320.4 
" clip-path="url(#pdf356ce97a)" style="fill: none; stroke: #cccccc; stroke-width: 0.8; stroke-linecap: round"/>
     </g>
     <g id="text_21">
      <!-- 0 -->
      <g style="fill: #262626" transform="translate(123 323.8375)scale(0.1 -0.1)">
       <defs>
        <path id="SimHei-30" d="M 225 2537 
Q 250 3200 412 3587 
Q 575 3975 875 4225 
Q 1175 4475 1612 4475 
Q 2050 4475 2375 4112 
Q 2700 3750 2800 3200 
Q 2900 2650 2862 1937 
Q 2825 1225 2612 775 
Q 2400 325 1975 150 
Q 1550 -25 1125 187 
Q 700 400 525 750 
Q 350 1100 275 1487 
Q 200 1875 225 2537 
z
M 750 2687 
Q 675 2000 800 1462 
Q 925 925 1212 700 
Q 1500 475 1800 612 
Q 2100 750 2237 1162 
Q 2375 1575 2375 2062 
Q 2375 2550 2337 2950 
Q 2300 3350 2112 3675 
Q 1925 4000 1612 4012 
Q 1300 4025 1062 3700 
Q 825 3375 750 2687 
z
" transform="scale(0.015625)"/>
       </defs>
       <use xlink:href="#SimHei-30"/>
      </g>
     </g>
    </g>
    <g id="ytick_2">
     <g id="line2d_2">
      <path d="M 135 272.224818 
L 972 272.224818 
" clip-path="url(#pdf356ce97a)" style="fill: none; stroke: #cccccc; stroke-width: 0.8; stroke-linecap: round"/>
     </g>
     <g id="text_22">
      <!-- 50 -->
      <g style="fill: #262626" transform="translate(118 275.662318)scale(0.1 -0.1)">
       <defs>
        <path id="SimHei-35" d="M 550 1325 
Q 725 650 1150 575 
Q 1575 500 1837 662 
Q 2100 825 2212 1087 
Q 2325 1350 2312 1675 
Q 2300 2000 2137 2225 
Q 1975 2450 1725 2525 
Q 1475 2600 1162 2525 
Q 850 2450 650 2175 
L 225 2225 
Q 275 2375 700 4375 
L 2675 4375 
L 2675 3925 
L 1075 3925 
Q 950 3250 825 2850 
Q 1200 3025 1525 3012 
Q 1850 3000 2150 2862 
Q 2450 2725 2587 2487 
Q 2725 2250 2787 2012 
Q 2850 1775 2837 1500 
Q 2825 1225 2725 937 
Q 2625 650 2425 462 
Q 2225 275 1937 162 
Q 1650 50 1275 75 
Q 900 100 562 350 
Q 225 600 100 1200 
L 550 1325 
z
" transform="scale(0.015625)"/>
       </defs>
       <use xlink:href="#SimHei-35"/>
       <use xlink:href="#SimHei-30" x="50"/>
      </g>
     </g>
    </g>
    <g id="ytick_3">
     <g id="line2d_3">
      <path d="M 135 224.049635 
L 972 224.049635 
" clip-path="url(#pdf356ce97a)" style="fill: none; stroke: #cccccc; stroke-width: 0.8; stroke-linecap: round"/>
     </g>
     <g id="text_23">
      <!-- 100 -->
      <g style="fill: #262626" transform="translate(113 227.487135)scale(0.1 -0.1)">
       <defs>
        <path id="SimHei-31" d="M 1400 3600 
Q 1075 3275 575 2975 
L 575 3450 
Q 1200 3875 1600 4450 
L 1900 4450 
L 1900 150 
L 1400 150 
L 1400 3600 
z
" transform="scale(0.015625)"/>
       </defs>
       <use xlink:href="#SimHei-31"/>
       <use xlink:href="#SimHei-30" x="50"/>
       <use xlink:href="#SimHei-30" x="100"/>
      </g>
     </g>
    </g>
    <g id="ytick_4">
     <g id="line2d_4">
      <path d="M 135 175.874453 
L 972 175.874453 
" clip-path="url(#pdf356ce97a)" style="fill: none; stroke: #cccccc; stroke-width: 0.8; stroke-linecap: round"/>
     </g>
     <g id="text_24">
      <!-- 150 -->
      <g style="fill: #262626" transform="translate(113 179.311953)scale(0.1 -0.1)">
       <use xlink:href="#SimHei-31"/>
       <use xlink:href="#SimHei-35" x="50"/>
       <use xlink:href="#SimHei-30" x="100"/>
      </g>
     </g>
    </g>
    <g id="ytick_5">
     <g id="line2d_5">
      <path d="M 135 127.69927 
L 972 127.69927 
" clip-path="url(#pdf356ce97a)" style="fill: none; stroke: #cccccc; stroke-width: 0.8; stroke-linecap: round"/>
     </g>
     <g id="text_25">
      <!-- 200 -->
      <g style="fill: #262626" transform="translate(113 131.13677)scale(0.1 -0.1)">
       <defs>
        <path id="SimHei-32" d="M 300 250 
Q 325 625 650 925 
Q 975 1225 1475 1862 
Q 1975 2500 2125 2850 
Q 2275 3200 2237 3450 
Q 2200 3700 2000 3862 
Q 1800 4025 1537 4000 
Q 1275 3975 1037 3800 
Q 800 3625 675 3275 
L 200 3350 
Q 400 3925 712 4187 
Q 1025 4450 1450 4475 
Q 1700 4500 1900 4462 
Q 2100 4425 2312 4287 
Q 2525 4150 2662 3875 
Q 2800 3600 2762 3212 
Q 2725 2825 2375 2287 
Q 2025 1750 1025 600 
L 2825 600 
L 2825 150 
L 300 150 
L 300 250 
z
" transform="scale(0.015625)"/>
       </defs>
       <use xlink:href="#SimHei-32"/>
       <use xlink:href="#SimHei-30" x="50"/>
       <use xlink:href="#SimHei-30" x="100"/>
      </g>
     </g>
    </g>
    <g id="ytick_6">
     <g id="line2d_6">
      <path d="M 135 79.524088 
L 972 79.524088 
" clip-path="url(#pdf356ce97a)" style="fill: none; stroke: #cccccc; stroke-width: 0.8; stroke-linecap: round"/>
     </g>
     <g id="text_26">
      <!-- 250 -->
      <g style="fill: #262626" transform="translate(113 82.961588)scale(0.1 -0.1)">
       <use xlink:href="#SimHei-32"/>
       <use xlink:href="#SimHei-35" x="50"/>
       <use xlink:href="#SimHei-30" x="100"/>
      </g>
     </g>
    </g>
    <g id="text_27">
     <!-- count -->
     <g style="fill: #262626" transform="translate(107.75 194.3)rotate(-90)scale(0.1 -0.1)">
      <defs>
       <path id="SimHei-6f" d="M 2925 1525 
Q 2925 875 2525 475 
Q 2125 75 1575 75 
Q 1025 75 625 475 
Q 225 875 225 1525 
Q 225 2175 625 2575 
Q 1025 2975 1575 2975 
Q 2125 2975 2525 2575 
Q 2925 2175 2925 1525 
z
M 2375 1525 
Q 2375 2025 2125 2275 
Q 1875 2525 1575 2525 
Q 1275 2525 1025 2275 
Q 775 2025 775 1525 
Q 775 1025 1025 775 
Q 1275 525 1575 525 
Q 1875 525 2125 775 
Q 2375 1025 2375 1525 
z
" transform="scale(0.015625)"/>
       <path id="SimHei-75" d="M 2800 125 
L 2300 125 
L 2300 650 
Q 2100 375 1862 225 
Q 1625 75 1250 75 
Q 800 75 575 325 
Q 350 575 350 950 
L 350 2925 
L 850 2925 
L 850 1125 
Q 850 825 1000 650 
Q 1150 475 1400 475 
Q 1725 475 2012 812 
Q 2300 1150 2300 1650 
L 2300 2925 
L 2800 2925 
L 2800 125 
z
" transform="scale(0.015625)"/>
       <path id="SimHei-6e" d="M 2800 125 
L 2300 125 
L 2300 1925 
Q 2300 2225 2150 2400 
Q 2000 2575 1750 2575 
Q 1425 2575 1137 2237 
Q 850 1900 850 1400 
L 850 125 
L 350 125 
L 350 2925 
L 850 2925 
L 850 2400 
Q 1050 2675 1287 2825 
Q 1525 2975 1900 2975 
Q 2350 2975 2575 2725 
Q 2800 2475 2800 2100 
L 2800 125 
z
" transform="scale(0.015625)"/>
      </defs>
      <use xlink:href="#SimHei-63"/>
      <use xlink:href="#SimHei-6f" x="50"/>
      <use xlink:href="#SimHei-75" x="100"/>
      <use xlink:href="#SimHei-6e" x="150"/>
      <use xlink:href="#SimHei-74" x="200"/>
     </g>
    </g>
   </g>
   <g id="patch_3">
    <path d="M 139.405263 320.4 
L 174.647368 320.4 
L 174.647368 313.655474 
L 139.405263 313.655474 
z
" clip-path="url(#pdf356ce97a)" style="fill: #ea96a3; stroke: #ffffff; stroke-linejoin: miter"/>
   </g>
   <g id="patch_4">
    <path d="M 183.457895 320.4 
L 218.7 320.4 
L 218.7 56.4 
L 183.457895 56.4 
z
" clip-path="url(#pdf356ce97a)" style="fill: #e79680; stroke: #ffffff; stroke-linejoin: miter"/>
   </g>
   <g id="patch_5">
    <path d="M 227.510526 320.4 
L 262.752632 320.4 
L 262.752632 170.093431 
L 227.510526 170.093431 
z
" clip-path="url(#pdf356ce97a)" style="fill: #d4954d; stroke: #ffffff; stroke-linejoin: miter"/>
   </g>
   <g id="patch_6">
    <path d="M 271.563158 320.4 
L 306.805263 320.4 
L 306.805263 247.173723 
L 271.563158 247.173723 
z
" clip-path="url(#pdf356ce97a)" style="fill: #bc9b4a; stroke: #ffffff; stroke-linejoin: miter"/>
   </g>
   <g id="patch_7">
    <path d="M 315.615789 320.4 
L 350.857895 320.4 
L 350.857895 232.721168 
L 315.615789 232.721168 
z
" clip-path="url(#pdf356ce97a)" style="fill: #a79e46; stroke: #ffffff; stroke-linejoin: miter"/>
   </g>
   <g id="patch_8">
    <path d="M 359.668421 320.4 
L 394.910526 320.4 
L 394.910526 317.509489 
L 359.668421 317.509489 
z
" clip-path="url(#pdf356ce97a)" style="fill: #92a446; stroke: #ffffff; stroke-linejoin: miter"/>
   </g>
   <g id="patch_9">
    <path d="M 403.721053 320.4 
L 438.963158 320.4 
L 438.963158 269.334307 
L 403.721053 269.334307 
z
" clip-path="url(#pdf356ce97a)" style="fill: #73ab47; stroke: #ffffff; stroke-linejoin: miter"/>
   </g>
   <g id="patch_10">
    <path d="M 447.773684 320.4 
L 483.015789 320.4 
L 483.015789 264.516788 
L 447.773684 264.516788 
z
" clip-path="url(#pdf356ce97a)" style="fill: #48af6c; stroke: #ffffff; stroke-linejoin: miter"/>
   </g>
   <g id="patch_11">
    <path d="M 491.826316 320.4 
L 527.068421 320.4 
L 527.068421 295.348905 
L 491.826316 295.348905 
z
" clip-path="url(#pdf356ce97a)" style="fill: #4aad8c; stroke: #ffffff; stroke-linejoin: miter"/>
   </g>
   <g id="patch_12">
    <path d="M 535.878947 320.4 
L 571.121053 320.4 
L 571.121053 265.480292 
L 535.878947 265.480292 
z
" clip-path="url(#pdf356ce97a)" style="fill: #4bac9d; stroke: #ffffff; stroke-linejoin: miter"/>
   </g>
   <g id="patch_13">
    <path d="M 579.931579 320.4 
L 615.173684 320.4 
L 615.173684 290.531387 
L 579.931579 290.531387 
z
" clip-path="url(#pdf356ce97a)" style="fill: #4baaab; stroke: #ffffff; stroke-linejoin: miter"/>
   </g>
   <g id="patch_14">
    <path d="M 623.984211 320.4 
L 659.226316 320.4 
L 659.226316 315.582482 
L 623.984211 315.582482 
z
" clip-path="url(#pdf356ce97a)" style="fill: #4fabbb; stroke: #ffffff; stroke-linejoin: miter"/>
   </g>
   <g id="patch_15">
    <path d="M 668.036842 320.4 
L 703.278947 320.4 
L 703.278947 285.713869 
L 668.036842 285.713869 
z
" clip-path="url(#pdf356ce97a)" style="fill: #54acd1; stroke: #ffffff; stroke-linejoin: miter"/>
   </g>
   <g id="patch_16">
    <path d="M 712.089474 320.4 
L 747.331579 320.4 
L 747.331579 304.020438 
L 712.089474 304.020438 
z
" clip-path="url(#pdf356ce97a)" style="fill: #84aee6; stroke: #ffffff; stroke-linejoin: miter"/>
   </g>
   <g id="patch_17">
    <path d="M 756.142105 320.4 
L 791.384211 320.4 
L 791.384211 289.567883 
L 756.142105 289.567883 
z
" clip-path="url(#pdf356ce97a)" style="fill: #afaaeb; stroke: #ffffff; stroke-linejoin: miter"/>
   </g>
   <g id="patch_18">
    <path d="M 800.194737 320.4 
L 835.436842 320.4 
L 835.436842 282.823358 
L 800.194737 282.823358 
z
" clip-path="url(#pdf356ce97a)" style="fill: #c99ee9; stroke: #ffffff; stroke-linejoin: miter"/>
   </g>
   <g id="patch_19">
    <path d="M 844.247368 320.4 
L 879.489474 320.4 
L 879.489474 169.129927 
L 844.247368 169.129927 
z
" clip-path="url(#pdf356ce97a)" style="fill: #e38be7; stroke: #ffffff; stroke-linejoin: miter"/>
   </g>
   <g id="patch_20">
    <path d="M 888.3 320.4 
L 923.542105 320.4 
L 923.542105 186.472993 
L 888.3 186.472993 
z
" clip-path="url(#pdf356ce97a)" style="fill: #e88ecf; stroke: #ffffff; stroke-linejoin: miter"/>
   </g>
   <g id="patch_21">
    <path d="M 932.352632 320.4 
L 967.594737 320.4 
L 967.594737 302.093431 
L 932.352632 302.093431 
z
" clip-path="url(#pdf356ce97a)" style="fill: #e992ba; stroke: #ffffff; stroke-linejoin: miter"/>
   </g>
   <g id="line2d_7">
    <path clip-path="url(#pdf356ce97a)" style="fill: none; stroke: #424242; stroke-width: 2.7; stroke-linecap: round"/>
   </g>
   <g id="line2d_8">
    <path clip-path="url(#pdf356ce97a)" style="fill: none; stroke: #424242; stroke-width: 2.7; stroke-linecap: round"/>
   </g>
   <g id="line2d_9">
    <path clip-path="url(#pdf356ce97a)" style="fill: none; stroke: #424242; stroke-width: 2.7; stroke-linecap: round"/>
   </g>
   <g id="line2d_10">
    <path clip-path="url(#pdf356ce97a)" style="fill: none; stroke: #424242; stroke-width: 2.7; stroke-linecap: round"/>
   </g>
   <g id="line2d_11">
    <path clip-path="url(#pdf356ce97a)" style="fill: none; stroke: #424242; stroke-width: 2.7; stroke-linecap: round"/>
   </g>
   <g id="line2d_12">
    <path clip-path="url(#pdf356ce97a)" style="fill: none; stroke: #424242; stroke-width: 2.7; stroke-linecap: round"/>
   </g>
   <g id="line2d_13">
    <path clip-path="url(#pdf356ce97a)" style="fill: none; stroke: #424242; stroke-width: 2.7; stroke-linecap: round"/>
   </g>
   <g id="line2d_14">
    <path clip-path="url(#pdf356ce97a)" style="fill: none; stroke: #424242; stroke-width: 2.7; stroke-linecap: round"/>
   </g>
   <g id="line2d_15">
    <path clip-path="url(#pdf356ce97a)" style="fill: none; stroke: #424242; stroke-width: 2.7; stroke-linecap: round"/>
   </g>
   <g id="line2d_16">
    <path clip-path="url(#pdf356ce97a)" style="fill: none; stroke: #424242; stroke-width: 2.7; stroke-linecap: round"/>
   </g>
   <g id="line2d_17">
    <path clip-path="url(#pdf356ce97a)" style="fill: none; stroke: #424242; stroke-width: 2.7; stroke-linecap: round"/>
   </g>
   <g id="line2d_18">
    <path clip-path="url(#pdf356ce97a)" style="fill: none; stroke: #424242; stroke-width: 2.7; stroke-linecap: round"/>
   </g>
   <g id="line2d_19">
    <path clip-path="url(#pdf356ce97a)" style="fill: none; stroke: #424242; stroke-width: 2.7; stroke-linecap: round"/>
   </g>
   <g id="line2d_20">
    <path clip-path="url(#pdf356ce97a)" style="fill: none; stroke: #424242; stroke-width: 2.7; stroke-linecap: round"/>
   </g>
   <g id="line2d_21">
    <path clip-path="url(#pdf356ce97a)" style="fill: none; stroke: #424242; stroke-width: 2.7; stroke-linecap: round"/>
   </g>
   <g id="line2d_22">
    <path clip-path="url(#pdf356ce97a)" style="fill: none; stroke: #424242; stroke-width: 2.7; stroke-linecap: round"/>
   </g>
   <g id="line2d_23">
    <path clip-path="url(#pdf356ce97a)" style="fill: none; stroke: #424242; stroke-width: 2.7; stroke-linecap: round"/>
   </g>
   <g id="line2d_24">
    <path clip-path="url(#pdf356ce97a)" style="fill: none; stroke: #424242; stroke-width: 2.7; stroke-linecap: round"/>
   </g>
   <g id="line2d_25">
    <path clip-path="url(#pdf356ce97a)" style="fill: none; stroke: #424242; stroke-width: 2.7; stroke-linecap: round"/>
   </g>
   <g id="patch_22">
    <path d="M 135 320.4 
L 135 43.2 
" style="fill: none; stroke: #cccccc; stroke-width: 0.8; stroke-linejoin: miter; stroke-linecap: square"/>
   </g>
   <g id="patch_23">
    <path d="M 972 320.4 
L 972 43.2 
" style="fill: none; stroke: #cccccc; stroke-width: 0.8; stroke-linejoin: miter; stroke-linecap: square"/>
   </g>
   <g id="patch_24">
    <path d="M 135 320.4 
L 972 320.4 
" style="fill: none; stroke: #cccccc; stroke-width: 0.8; stroke-linejoin: miter; stroke-linecap: square"/>
   </g>
   <g id="patch_25">
    <path d="M 135 43.2 
L 972 43.2 
" style="fill: none; stroke: #cccccc; stroke-width: 0.8; stroke-linejoin: miter; stroke-linecap: square"/>
   </g>
   <g id="text_28">
    <!-- 2020年4月河南省累计新增确诊人数 -->
    <g style="fill: #262626" transform="translate(398.5 37.2)scale(0.2 -0.2)">
     <defs>
      <path id="SimHei-5e74" d="M 350 2925 
Q 900 3450 1375 4200 
Q 1850 4950 1900 5275 
Q 2275 5125 2600 5050 
Q 2375 4825 2100 4325 
L 4625 4325 
Q 5175 4325 5750 4350 
L 5750 3925 
Q 5225 3950 4625 3950 
L 3800 3950 
L 3800 2925 
Q 4750 2925 5475 2950 
L 5475 2525 
Q 4725 2550 3800 2550 
L 3800 1375 
L 5075 1375 
Q 5625 1375 6100 1400 
L 6100 975 
Q 5650 1000 5075 1000 
L 3800 1000 
L 3800 425 
Q 3800 -150 3825 -625 
L 3275 -625 
Q 3300 -150 3300 375 
L 3300 1000 
L 1600 1000 
Q 900 1000 275 975 
L 275 1400 
Q 875 1375 1450 1375 
Q 1450 2350 1425 2925 
L 3300 2925 
L 3300 3950 
L 1875 3950 
Q 1350 3150 925 2650 
Q 650 2875 350 2925 
z
M 3300 1375 
L 3300 2550 
L 1925 2550 
L 1925 1375 
L 3300 1375 
z
" transform="scale(0.015625)"/>
      <path id="SimHei-34" d="M 2000 1100 
L 75 1100 
L 75 1525 
L 2100 4450 
L 2475 4450 
L 2475 1525 
L 3075 1525 
L 3075 1100 
L 2475 1100 
L 2475 150 
L 2000 150 
L 2000 1100 
z
M 2000 1525 
L 2000 3500 
L 600 1525 
L 2000 1525 
z
" transform="scale(0.015625)"/>
      <path id="SimHei-6708" d="M 5250 4825 
Q 5200 4225 5200 3750 
L 5200 200 
Q 5200 -275 4950 -375 
Q 4700 -475 3975 -525 
Q 3925 -225 3750 50 
Q 4300 25 4512 50 
Q 4725 75 4725 400 
L 4725 1600 
L 1850 1600 
Q 1725 775 1450 225 
Q 1175 -325 900 -575 
Q 700 -400 400 -325 
Q 800 25 1037 512 
Q 1275 1000 1337 1475 
Q 1400 1950 1400 2525 
L 1400 3625 
Q 1400 4175 1375 4825 
L 5250 4825 
z
M 4725 3400 
L 4725 4450 
L 1875 4450 
L 1875 3400 
L 4725 3400 
z
M 4725 2000 
L 4725 3025 
L 1875 3025 
L 1875 2000 
L 4725 2000 
z
" transform="scale(0.015625)"/>
      <path id="SimHei-7701" d="M 4900 3550 
Q 4625 3400 4112 3150 
Q 3600 2900 2975 2675 
L 5325 2675 
Q 5300 2300 5300 1125 
Q 5300 -25 5325 -625 
L 4825 -625 
L 4825 -375 
L 1950 -375 
L 1950 -650 
L 1450 -650 
Q 1475 125 1475 2150 
Q 1000 2000 600 1900 
Q 525 2100 300 2350 
Q 900 2425 1625 2650 
Q 2350 2875 2875 3100 
Q 2875 4750 2850 5175 
L 3400 5175 
Q 3375 4800 3375 3275 
Q 4175 3650 4475 3925 
Q 4625 3725 4900 3550 
z
M 4825 1750 
L 4825 2275 
L 1950 2275 
L 1950 1750 
L 4825 1750 
z
M 4825 850 
L 4825 1375 
L 1950 1375 
L 1950 850 
L 4825 850 
z
M 4825 0 
L 4825 475 
L 1950 475 
L 1950 0 
L 4825 0 
z
M 1800 3825 
Q 1475 3500 900 3075 
Q 775 3300 525 3425 
Q 1075 3775 1375 4075 
Q 1675 4375 1850 4650 
Q 2025 4475 2300 4325 
L 1800 3825 
z
M 4650 4725 
Q 5500 4125 6000 3650 
Q 5825 3500 5625 3275 
Q 5325 3650 4350 4375 
Q 4500 4500 4650 4725 
z
" transform="scale(0.015625)"/>
      <path id="SimHei-7d2f" d="M 5475 5000 
Q 5450 4600 5450 3975 
Q 5450 3350 5475 2950 
L 4675 2950 
Q 4850 2775 5075 2600 
Q 4800 2525 4237 2275 
Q 3675 2025 3262 1837 
Q 2850 1650 2400 1425 
Q 3850 1525 4650 1575 
Q 4425 1725 4200 1850 
Q 4375 2000 4500 2175 
Q 5125 1800 5900 1300 
Q 5750 1125 5575 900 
Q 5375 1075 5100 1250 
Q 4250 1175 3475 1125 
L 3475 50 
Q 3475 -350 3212 -462 
Q 2950 -575 2600 -600 
Q 2575 -375 2375 -50 
Q 2800 -75 2900 -25 
Q 3000 25 3000 125 
L 3000 1075 
Q 2400 1050 1987 1012 
Q 1575 975 850 875 
Q 775 1125 700 1350 
Q 1150 1400 1575 1512 
Q 2000 1625 3025 2125 
Q 1775 2025 1250 1925 
Q 1200 2200 1100 2375 
Q 1325 2375 1737 2537 
Q 2150 2700 2475 2950 
L 950 2950 
Q 975 3375 975 3975 
Q 975 4600 950 5000 
L 5475 5000 
z
M 2425 525 
Q 2200 400 1762 137 
Q 1325 -125 850 -425 
Q 700 -225 500 -25 
Q 850 125 1250 362 
Q 1650 600 2025 900 
Q 2150 725 2425 525 
z
M 2975 4100 
L 2975 4650 
L 1450 4650 
L 1450 4100 
L 2975 4100 
z
M 4975 4100 
L 4975 4650 
L 3450 4650 
L 3450 4100 
L 4975 4100 
z
M 4275 850 
Q 4750 650 5050 500 
L 5850 100 
Q 5675 -125 5575 -375 
Q 5150 -100 4775 100 
Q 4400 300 4050 450 
Q 4200 675 4275 850 
z
M 2975 3275 
L 2975 3750 
L 1450 3750 
L 1450 3275 
L 2975 3275 
z
M 4975 3275 
L 4975 3750 
L 3450 3750 
L 3450 3275 
L 4975 3275 
z
M 3700 2475 
Q 4200 2700 4575 2950 
L 3225 2950 
Q 2900 2750 2300 2425 
Q 3075 2450 3700 2475 
z
" transform="scale(0.015625)"/>
      <path id="SimHei-8ba1" d="M 3925 3100 
L 3925 4350 
Q 3925 4850 3900 5125 
L 4425 5125 
Q 4400 4800 4400 4550 
L 4400 3100 
L 5425 3100 
Q 5725 3100 6075 3125 
L 6075 2650 
Q 5700 2675 5450 2675 
L 4400 2675 
L 4400 175 
Q 4400 -125 4425 -550 
L 3900 -550 
Q 3925 -125 3925 150 
L 3925 2675 
L 2950 2675 
Q 2575 2675 2200 2650 
L 2200 3125 
Q 2575 3100 2900 3100 
L 3925 3100 
z
M 1775 3150 
Q 1750 2675 1750 2150 
L 1750 625 
Q 2175 1050 2425 1400 
Q 2575 1200 2775 1000 
L 2075 300 
Q 1750 -25 1450 -350 
Q 1275 -125 1125 50 
Q 1300 250 1275 650 
L 1275 2725 
Q 600 2725 275 2700 
L 275 3175 
Q 675 3150 825 3150 
L 1775 3150 
z
M 1150 5050 
Q 1475 4725 2175 4000 
Q 1950 3800 1750 3625 
Q 1425 4100 775 4750 
Q 950 4875 1150 5050 
z
" transform="scale(0.015625)"/>
      <path id="SimHei-589e" d="M 5475 5000 
Q 5325 4825 5212 4612 
Q 5100 4400 5025 4225 
L 5975 4225 
Q 5950 3975 5950 3525 
L 5950 2850 
Q 5950 2400 5975 2125 
L 2500 2125 
Q 2525 2550 2525 2900 
L 2525 3600 
Q 2525 4000 2500 4225 
L 4575 4225 
Q 4800 4850 4875 5250 
L 5475 5000 
z
M 5750 1750 
Q 5725 1400 5725 1100 
L 5725 125 
Q 5725 -300 5750 -625 
L 5250 -625 
L 5250 -300 
L 3250 -300 
L 3250 -625 
L 2775 -625 
Q 2800 -75 2800 75 
L 2800 1075 
Q 2800 1425 2775 1750 
L 5750 1750 
z
M 2500 875 
Q 2025 725 1375 525 
Q 725 325 450 175 
Q 325 475 200 675 
Q 925 850 1150 925 
L 1150 2975 
L 1000 2975 
Q 650 2975 275 2950 
L 275 3400 
Q 650 3375 1000 3375 
L 1150 3375 
L 1150 4250 
Q 1150 4625 1125 4975 
L 1650 4975 
Q 1625 4575 1625 4250 
L 1625 3375 
L 1800 3375 
Q 2075 3375 2325 3400 
L 2325 2950 
Q 2000 2975 1800 2975 
L 1625 2975 
L 1625 1050 
Q 2100 1175 2450 1275 
L 2500 875 
z
M 5475 2450 
L 5475 3875 
L 4425 3875 
L 4425 2450 
L 5475 2450 
z
M 3975 2450 
L 3975 3875 
L 2975 3875 
L 2975 2450 
L 3975 2450 
z
M 5250 875 
L 5250 1350 
L 3250 1350 
L 3250 875 
L 5250 875 
z
M 5250 75 
L 5250 500 
L 3250 500 
L 3250 75 
L 5250 75 
z
M 3825 4500 
Q 3600 4400 3425 4250 
Q 3300 4500 2925 4975 
Q 3100 5050 3300 5250 
Q 3525 4950 3825 4500 
z
M 5350 3500 
Q 5225 3225 5000 2675 
Q 4775 2800 4550 2875 
Q 4750 3250 4875 3675 
Q 5050 3575 5350 3500 
z
M 3050 3425 
Q 3200 3525 3450 3625 
Q 3575 3400 3800 2875 
Q 3575 2775 3375 2700 
Q 3250 3100 3050 3425 
z
" transform="scale(0.015625)"/>
      <path id="SimHei-786e" d="M 4975 -200 
Q 5250 -175 5362 -125 
Q 5475 -75 5475 125 
L 5475 975 
L 4625 975 
L 4625 -400 
L 4200 -400 
L 4200 975 
L 3500 975 
Q 3475 625 3325 237 
Q 3175 -150 2800 -600 
Q 2625 -350 2325 -325 
Q 2650 -50 2812 262 
Q 2975 575 3025 1000 
Q 3075 1425 3087 2187 
Q 3100 2950 3075 3425 
L 4250 3425 
Q 4475 3825 4650 4225 
L 3625 4225 
Q 3325 3875 2850 3250 
Q 2650 3425 2425 3500 
Q 2875 3975 3175 4425 
Q 3475 4875 3625 5300 
Q 3900 5175 4200 5100 
Q 4075 5025 3825 4575 
L 5350 4575 
Q 4900 3775 4750 3425 
L 5950 3425 
Q 5925 2975 5925 2450 
L 5925 -50 
Q 5950 -350 5775 -462 
Q 5600 -575 5175 -675 
Q 5150 -425 4975 -200 
z
M 200 1975 
Q 550 2300 850 2837 
Q 1150 3375 1300 4225 
Q 825 4225 525 4200 
L 525 4650 
Q 875 4625 1200 4625 
L 1900 4625 
Q 2325 4625 2625 4650 
L 2625 4200 
Q 2325 4225 1800 4225 
Q 1650 3525 1400 2925 
L 2525 2925 
Q 2500 2500 2500 2125 
L 2500 1075 
Q 2500 650 2525 125 
L 2075 125 
L 2075 600 
L 1350 600 
L 1350 -300 
L 900 -300 
Q 925 225 925 600 
L 925 2100 
Q 800 1900 625 1625 
Q 475 1825 200 1975 
z
M 2075 975 
L 2075 2575 
L 1350 2575 
L 1350 975 
L 2075 975 
z
M 5475 2350 
L 5475 3075 
L 4625 3075 
L 4625 2350 
L 5475 2350 
z
M 5475 1325 
L 5475 2000 
L 4625 2000 
L 4625 1325 
L 5475 1325 
z
M 4200 2350 
L 4200 3075 
L 3500 3075 
L 3500 2350 
L 4200 2350 
z
M 4200 1325 
L 4200 2000 
L 3500 2000 
L 3500 1325 
L 4200 1325 
z
" transform="scale(0.015625)"/>
      <path id="SimHei-8bca" d="M 1875 2875 
Q 2250 3075 2537 3325 
Q 2825 3575 3050 3900 
Q 3275 4225 3425 4562 
Q 3575 4900 3700 5275 
Q 4000 5175 4375 5075 
L 4300 4850 
Q 4550 4175 5037 3787 
Q 5525 3400 6150 3275 
Q 5925 3125 5750 2725 
Q 4975 3100 4525 3650 
Q 4075 4200 3975 4550 
Q 3750 4125 3450 3637 
Q 3150 3150 2425 2525 
Q 2275 2650 1875 2875 
z
M 2100 1275 
Q 2250 1125 2425 875 
Q 2150 525 1887 250 
Q 1625 -25 1350 -425 
Q 1100 -250 875 -75 
Q 1000 25 1075 150 
Q 1150 275 1150 475 
L 1150 2775 
L 950 2775 
Q 625 2775 250 2750 
L 250 3200 
Q 600 3175 950 3175 
L 1700 3175 
Q 1650 2725 1650 2200 
L 1650 775 
Q 1925 1075 2100 1275 
z
M 2475 -200 
Q 2975 -150 3437 25 
Q 3900 200 4287 462 
Q 4675 725 4975 1037 
Q 5275 1350 5550 1675 
Q 5725 1425 6025 1225 
Q 5775 1075 5525 837 
Q 5275 600 4975 337 
Q 4675 75 4087 -200 
Q 3500 -475 2800 -700 
Q 2725 -425 2475 -200 
z
M 2750 975 
Q 3425 1200 4000 1687 
Q 4575 2175 4800 2675 
Q 5050 2450 5275 2250 
Q 5000 1975 4662 1612 
Q 4325 1250 3875 950 
Q 3425 650 3125 500 
Q 2975 725 2750 975 
z
M 4500 3050 
Q 4100 2650 3700 2287 
Q 3300 1925 2875 1625 
Q 2675 1850 2500 2050 
Q 2900 2225 3325 2575 
Q 3750 2925 4075 3425 
Q 4250 3250 4500 3050 
z
M 1075 5125 
Q 1425 4800 1900 4200 
Q 1675 4025 1500 3825 
Q 1050 4450 675 4825 
Q 850 4975 1075 5125 
z
" transform="scale(0.015625)"/>
      <path id="SimHei-4eba" d="M 350 -150 
Q 1325 325 1875 1025 
Q 2425 1725 2637 2462 
Q 2850 3200 2875 3837 
Q 2900 4475 2850 5175 
Q 3125 5150 3475 5125 
Q 3400 4725 3400 4300 
Q 3400 3875 3450 3325 
Q 3500 2775 4162 1662 
Q 4825 550 6100 0 
Q 5800 -300 5700 -500 
Q 3950 350 3200 2575 
Q 2700 600 775 -575 
Q 625 -375 350 -150 
z
" transform="scale(0.015625)"/>
      <path id="SimHei-6570" d="M 4525 4925 
Q 4475 4800 4400 4587 
Q 4325 4375 4175 3825 
L 5325 3825 
Q 5575 3825 5925 3850 
L 5925 3400 
Q 5650 3425 5500 3425 
Q 5500 3025 5362 2162 
Q 5225 1300 4875 675 
Q 5125 375 5437 137 
Q 5750 -100 6025 -200 
Q 5725 -425 5625 -625 
Q 5325 -450 5075 -225 
Q 4825 0 4575 325 
Q 4300 25 3987 -187 
Q 3675 -400 3200 -650 
Q 3075 -425 2850 -300 
Q 3225 -150 3650 125 
Q 4075 400 4300 675 
Q 4125 1025 3962 1425 
Q 3800 1825 3675 2475 
Q 3600 2275 3425 1950 
Q 3250 2050 3000 2150 
Q 3400 2850 3650 3675 
Q 3900 4500 3975 5100 
Q 4275 4975 4525 4925 
z
M 2100 2250 
Q 2000 2150 1875 1925 
L 3250 1925 
Q 3100 1300 2725 675 
Q 3125 525 3350 400 
Q 3225 225 3125 25 
Q 2900 175 2450 325 
Q 1950 -225 725 -650 
Q 600 -375 400 -275 
Q 1575 0 2000 475 
Q 1300 650 850 775 
Q 1000 1000 1250 1525 
Q 1000 1525 425 1500 
L 425 1950 
Q 900 1925 1400 1925 
Q 1500 2150 1550 2425 
Q 1825 2325 2100 2250 
z
M 1775 3950 
Q 1775 4550 1750 5100 
L 2250 5100 
Q 2225 4575 2225 3950 
Q 3075 3950 3425 3975 
L 3425 3525 
Q 3075 3550 2225 3550 
Q 2225 2825 2250 2425 
L 1750 2425 
Q 1775 2775 1775 3300 
Q 1650 3100 1300 2787 
Q 950 2475 650 2300 
Q 525 2525 275 2625 
Q 500 2700 875 2975 
Q 1250 3250 1450 3550 
Q 950 3550 500 3525 
L 500 3975 
Q 925 3950 1775 3950 
z
M 3975 3175 
Q 4200 1700 4600 1125 
Q 4850 1700 4937 2287 
Q 5025 2875 5050 3425 
L 4075 3425 
L 3975 3175 
z
M 1450 1000 
Q 1750 925 2275 800 
Q 2475 1050 2650 1525 
L 1725 1525 
Q 1600 1275 1450 1000 
z
M 3325 4825 
Q 3200 4625 3125 4450 
Q 3050 4275 2925 4025 
Q 2725 4125 2525 4175 
Q 2725 4500 2900 5000 
Q 3150 4875 3325 4825 
z
M 2575 3375 
Q 2900 3050 3200 2725 
Q 3050 2600 2875 2425 
Q 2525 2850 2300 3100 
Q 2450 3225 2575 3375 
z
M 925 5000 
Q 1275 4650 1500 4300 
L 1125 4075 
Q 950 4425 600 4725 
Q 825 4875 925 5000 
z
" transform="scale(0.015625)"/>
     </defs>
     <use xlink:href="#SimHei-32"/>
     <use xlink:href="#SimHei-30" x="50"/>
     <use xlink:href="#SimHei-32" x="100"/>
     <use xlink:href="#SimHei-30" x="150"/>
     <use xlink:href="#SimHei-5e74" x="200"/>
     <use xlink:href="#SimHei-34" x="300"/>
     <use xlink:href="#SimHei-6708" x="350"/>
     <use xlink:href="#SimHei-6cb3" x="450"/>
     <use xlink:href="#SimHei-5357" x="550"/>
     <use xlink:href="#SimHei-7701" x="650"/>
     <use xlink:href="#SimHei-7d2f" x="750"/>
     <use xlink:href="#SimHei-8ba1" x="850"/>
     <use xlink:href="#SimHei-65b0" x="950"/>
     <use xlink:href="#SimHei-589e" x="1050"/>
     <use xlink:href="#SimHei-786e" x="1150"/>
     <use xlink:href="#SimHei-8bca" x="1250"/>
     <use xlink:href="#SimHei-4eba" x="1350"/>
     <use xlink:href="#SimHei-6570" x="1450"/>
    </g>
   </g>
  </g>
 </g>
 <defs>
  <clipPath id="pdf356ce97a">
   <rect x="135" y="43.2" width="837" height="277.2"/>
  </clipPath>
 </defs>
</svg>
