<?xml version="1.0" encoding="utf-8" standalone="no"?>
<!DOCTYPE svg PUBLIC "-//W3C//DTD SVG 1.1//EN"
  "http://www.w3.org/Graphics/SVG/1.1/DTD/svg11.dtd">
<svg xmlns:xlink="http://www.w3.org/1999/xlink" width="576pt" height="576pt" viewBox="0 0 576 576" xmlns="http://www.w3.org/2000/svg" version="1.1">
 <metadata>
  <rdf:RDF xmlns:dc="http://purl.org/dc/elements/1.1/" xmlns:cc="http://creativecommons.org/ns#" xmlns:rdf="http://www.w3.org/1999/02/22-rdf-syntax-ns#">
   <cc:Work>
    <dc:type rdf:resource="http://purl.org/dc/dcmitype/StillImage"/>
    <dc:date>2022-06-21T18:28:12.505084</dc:date>
    <dc:format>image/svg+xml</dc:format>
    <dc:creator>
     <cc:Agent>
      <dc:title>Matplotlib v3.5.1, https://matplotlib.org/</dc:title>
     </cc:Agent>
    </dc:creator>
   </cc:Work>
  </rdf:RDF>
 </metadata>
 <defs>
  <style type="text/css">*{stroke-linejoin: round; stroke-linecap: butt}</style>
 </defs>
 <g id="figure_1">
  <g id="patch_1">
   <path d="M 0 576 
L 576 576 
L 576 0 
L 0 0 
z
" style="fill: #ffffff"/>
  </g>
  <g id="axes_1">
   <g id="matplotlib.axis_1"/>
   <g id="matplotlib.axis_2"/>
   <g id="patch_2">
    <path d="M 448.543438 299.476875 
C 448.543438 266.497818 440.157906 234.053976 424.177703 205.205209 
C 408.1975 176.356442 385.14131 152.039121 357.183618 134.546673 
L 253.990799 299.476875 
L 448.543438 299.476875 
z
" style="fill: #1f77b4; stroke: #ffffff; stroke-linejoin: miter"/>
   </g>
   <g id="patch_3">
    <path d="M 357.183618 134.546673 
C 329.34505 117.128758 297.54446 107.039411 264.756233 105.222313 
C 231.968006 103.405215 199.247293 109.918843 169.654539 124.15396 
L 253.990799 299.476875 
L 357.183618 134.546673 
z
" style="fill: #ff7f0e; stroke: #ffffff; stroke-linejoin: miter"/>
   </g>
   <g id="patch_4">
    <path d="M 169.654539 124.15396 
C 142.830106 137.05742 119.321405 155.946623 100.943936 179.362816 
C 82.566467 202.779009 69.805808 230.103479 63.647425 259.226043 
L 253.990799 299.476875 
L 169.654539 124.15396 
z
" style="fill: #2ca02c; stroke: #ffffff; stroke-linejoin: miter"/>
   </g>
   <g id="patch_5">
    <path d="M 63.647425 259.226043 
C 59.529469 278.699568 58.424221 298.690218 60.370326 318.499014 
C 62.31643 338.30781 67.290938 357.701157 75.119914 376.000962 
L 253.990799 299.476875 
L 63.647425 259.226043 
z
" style="fill: #d62728; stroke: #ffffff; stroke-linejoin: miter"/>
   </g>
   <g id="patch_6">
    <path d="M 75.119914 376.000962 
C 82.546007 393.35905 92.45942 409.544096 104.547966 424.04641 
C 116.636512 438.548725 130.77195 451.21446 146.509136 461.644756 
L 253.990799 299.476875 
L 75.119914 376.000962 
z
" style="fill: #9467bd; stroke: #ffffff; stroke-linejoin: miter"/>
   </g>
   <g id="patch_7">
    <path d="M 146.509136 461.644756 
C 157.150979 468.697959 168.461301 474.686552 180.276414 479.523866 
C 192.091526 484.361179 204.354156 488.023765 216.886834 490.458615 
L 253.990799 299.476875 
L 146.509136 461.644756 
z
" style="fill: #8c564b; stroke: #ffffff; stroke-linejoin: miter"/>
   </g>
   <g id="patch_8">
    <path d="M 216.886834 490.458615 
C 228.324992 492.680823 239.939697 493.870974 251.590835 494.014711 
C 263.241973 494.158448 274.882504 493.255191 286.372002 491.315836 
L 253.990799 299.476875 
L 216.886834 490.458615 
z
" style="fill: #e377c2; stroke: #ffffff; stroke-linejoin: miter"/>
   </g>
   <g id="patch_9">
    <path d="M 286.372002 491.315836 
C 295.277883 489.81258 304.068284 487.69098 312.679403 484.966436 
C 321.290521 482.241892 329.701471 478.921011 337.851206 475.027898 
L 253.990799 299.476875 
L 286.372002 491.315836 
z
" style="fill: #7f7f7f; stroke: #ffffff; stroke-linejoin: miter"/>
   </g>
   <g id="patch_10">
    <path d="M 337.851206 475.027898 
C 343.365612 472.393676 348.752838 469.501089 353.994961 466.359759 
C 359.237084 463.21843 364.328283 459.831846 369.251622 456.211275 
L 253.990799 299.476875 
L 337.851206 475.027898 
z
" style="fill: #bcbd22; stroke: #ffffff; stroke-linejoin: miter"/>
   </g>
   <g id="patch_11">
    <path d="M 369.251622 456.211275 
C 373.583766 453.025462 377.781965 449.661407 381.835401 446.127778 
C 385.888836 442.594149 389.794026 438.893982 393.540907 435.036813 
L 253.990799 299.476875 
L 369.251622 456.211275 
z
" style="fill: #17becf; stroke: #ffffff; stroke-linejoin: miter"/>
   </g>
   <g id="patch_12">
    <path d="M 393.540907 435.036813 
C 395.819392 432.691261 398.03838 430.288637 400.195754 427.831231 
C 402.353128 425.373824 404.448203 422.862417 406.478983 420.299403 
L 253.990799 299.476875 
L 393.540907 435.036813 
z
" style="fill: #1f77b4; stroke: #ffffff; stroke-linejoin: miter"/>
   </g>
   <g id="patch_13">
    <path d="M 406.478983 420.299403 
C 408.387693 417.89045 410.239052 415.436605 412.031501 412.939935 
C 413.823949 410.443265 415.556984 407.904471 417.229145 405.325691 
L 253.990799 299.476875 
L 406.478983 420.299403 
z
" style="fill: #ff7f0e; stroke: #ffffff; stroke-linejoin: miter"/>
   </g>
   <g id="patch_14">
    <path d="M 417.229145 405.325691 
C 418.895118 402.756455 420.500201 400.148245 422.043055 397.503242 
C 423.585909 394.858239 425.066102 392.17718 426.482398 389.462306 
L 253.990799 299.476875 
L 417.229145 405.325691 
z
" style="fill: #2ca02c; stroke: #ffffff; stroke-linejoin: miter"/>
   </g>
   <g id="patch_15">
    <path d="M 426.482398 389.462306 
C 427.710387 387.108394 428.890063 384.729593 430.020685 382.327396 
C 431.151307 379.925199 432.232638 377.50011 433.263998 375.053653 
L 253.990799 299.476875 
L 426.482398 389.462306 
z
" style="fill: #d62728; stroke: #ffffff; stroke-linejoin: miter"/>
   </g>
   <g id="patch_16">
    <path d="M 433.263998 375.053653 
C 434.212738 372.803178 435.119018 370.535038 435.982355 368.250439 
C 436.845692 365.96584 437.665933 363.665186 438.442643 361.349702 
L 253.990799 299.476875 
L 433.263998 375.053653 
z
" style="fill: #9467bd; stroke: #ffffff; stroke-linejoin: miter"/>
   </g>
   <g id="patch_17">
    <path d="M 438.442643 361.349702 
C 439.204714 359.077857 439.924748 356.792127 440.602376 354.493681 
C 441.280003 352.195235 441.915109 349.884465 442.507368 347.562556 
L 253.990799 299.476875 
L 438.442643 361.349702 
z
" style="fill: #8c564b; stroke: #ffffff; stroke-linejoin: miter"/>
   </g>
   <g id="patch_18">
    <path d="M 442.507368 347.562556 
C 443.057325 345.406488 443.570253 343.241143 444.045926 341.067478 
C 444.521598 338.893813 444.959946 336.712147 445.360774 334.523444 
L 253.990799 299.476875 
L 442.507368 347.562556 
z
" style="fill: #e377c2; stroke: #ffffff; stroke-linejoin: miter"/>
   </g>
   <g id="patch_19">
    <path d="M 445.360774 334.523444 
C 445.759744 332.344889 446.121484 330.15968 446.445836 327.968772 
C 446.770187 325.777865 447.057104 323.581578 447.306459 321.380873 
L 253.990799 299.476875 
L 445.360774 334.523444 
z
" style="fill: #7f7f7f; stroke: #ffffff; stroke-linejoin: miter"/>
   </g>
   <g id="patch_20">
    <path d="M 447.306459 321.380873 
C 447.536068 319.354435 447.7338 317.324511 447.899581 315.291855 
C 448.065362 313.259199 448.199172 311.224061 448.300961 309.187198 
L 253.990799 299.476875 
L 447.306459 321.380873 
z
" style="fill: #bcbd22; stroke: #ffffff; stroke-linejoin: miter"/>
   </g>
   <g id="patch_21">
    <path d="M 448.300961 309.187198 
C 448.381771 307.570136 448.442392 305.952128 448.482809 304.333553 
C 448.523227 302.714977 448.543438 301.095961 448.543438 299.476881 
L 253.990799 299.476875 
L 448.300961 309.187198 
z
" style="fill: #17becf; stroke: #ffffff; stroke-linejoin: miter"/>
   </g>
   <g id="text_1">
    <!-- United States of America -->
    <g style="fill: #262626" transform="translate(441.196394 198.590542)scale(0.1 -0.1)">
     <defs>
      <path id="SimHei-55" d="M 2875 1375 
Q 2875 775 2562 425 
Q 2250 75 1575 75 
Q 900 75 587 425 
Q 275 775 275 1375 
L 275 4400 
L 850 4400 
L 850 1375 
Q 850 950 1050 750 
Q 1250 550 1575 550 
Q 1900 550 2100 750 
Q 2300 950 2300 1375 
L 2300 4400 
L 2875 4400 
L 2875 1375 
z
" transform="scale(0.015625)"/>
      <path id="SimHei-6e" d="M 2800 125 
L 2300 125 
L 2300 1925 
Q 2300 2225 2150 2400 
Q 2000 2575 1750 2575 
Q 1425 2575 1137 2237 
Q 850 1900 850 1400 
L 850 125 
L 350 125 
L 350 2925 
L 850 2925 
L 850 2400 
Q 1050 2675 1287 2825 
Q 1525 2975 1900 2975 
Q 2350 2975 2575 2725 
Q 2800 2475 2800 2100 
L 2800 125 
z
" transform="scale(0.015625)"/>
      <path id="SimHei-69" d="M 1800 3725 
L 1300 3725 
L 1300 4375 
L 1800 4375 
L 1800 3725 
z
M 1800 125 
L 1300 125 
L 1300 2925 
L 1800 2925 
L 1800 125 
z
" transform="scale(0.015625)"/>
      <path id="SimHei-74" d="M 2750 200 
Q 2625 150 2462 112 
Q 2300 75 2025 75 
Q 1575 75 1300 325 
Q 1025 575 1025 1025 
L 1025 2525 
L 175 2525 
L 175 2925 
L 1025 2925 
L 1025 3900 
L 1525 3900 
L 1525 2925 
L 2550 2925 
L 2550 2525 
L 1525 2525 
L 1525 1000 
Q 1525 800 1625 662 
Q 1725 525 2000 525 
Q 2275 525 2450 575 
Q 2625 625 2750 700 
L 2750 200 
z
" transform="scale(0.015625)"/>
      <path id="SimHei-65" d="M 2850 1075 
Q 2800 625 2450 350 
Q 2100 75 1625 75 
Q 1025 75 637 462 
Q 250 850 250 1525 
Q 250 2200 637 2587 
Q 1025 2975 1625 2975 
Q 2150 2975 2487 2637 
Q 2825 2300 2825 1525 
L 800 1525 
Q 800 975 1037 750 
Q 1275 525 1625 525 
Q 1900 525 2075 662 
Q 2250 800 2300 1075 
L 2850 1075 
z
M 2250 1925 
Q 2200 2275 2025 2412 
Q 1850 2550 1575 2550 
Q 1325 2550 1125 2412 
Q 925 2275 825 1925 
L 2250 1925 
z
" transform="scale(0.015625)"/>
      <path id="SimHei-64" d="M 2750 125 
L 2250 125 
L 2250 500 
Q 2100 275 1900 175 
Q 1700 75 1425 75 
Q 925 75 575 437 
Q 225 800 225 1525 
Q 225 2250 575 2625 
Q 925 3000 1425 3000 
Q 1700 3000 1900 2887 
Q 2100 2775 2250 2550 
L 2250 4400 
L 2750 4400 
L 2750 125 
z
M 2250 1525 
Q 2250 2000 2037 2275 
Q 1825 2550 1525 2550 
Q 1150 2550 962 2275 
Q 775 2000 775 1525 
Q 775 1050 962 787 
Q 1150 525 1525 525 
Q 1825 525 2037 787 
Q 2250 1050 2250 1525 
z
" transform="scale(0.015625)"/>
      <path id="SimHei-20" transform="scale(0.015625)"/>
      <path id="SimHei-53" d="M 2900 1325 
Q 2900 750 2537 412 
Q 2175 75 1550 75 
Q 925 75 575 425 
Q 225 775 225 1300 
L 225 1475 
L 800 1475 
L 800 1325 
Q 800 950 1025 750 
Q 1250 550 1550 550 
Q 1950 550 2137 762 
Q 2325 975 2325 1275 
Q 2325 1525 2100 1737 
Q 1875 1950 1450 2125 
Q 850 2350 587 2625 
Q 325 2900 325 3275 
Q 325 3800 687 4125 
Q 1050 4450 1550 4450 
Q 2200 4450 2487 4062 
Q 2775 3675 2775 3225 
L 2200 3225 
Q 2225 3500 2050 3725 
Q 1875 3950 1550 3950 
Q 1250 3950 1075 3787 
Q 900 3625 900 3350 
Q 900 3125 1037 2962 
Q 1175 2800 1750 2575 
Q 2300 2350 2600 2037 
Q 2900 1725 2900 1325 
z
" transform="scale(0.015625)"/>
      <path id="SimHei-61" d="M 2875 125 
L 2275 125 
Q 2225 175 2200 262 
Q 2175 350 2175 475 
Q 2000 275 1750 175 
Q 1500 75 1225 75 
Q 825 75 550 275 
Q 275 475 275 850 
Q 275 1225 525 1450 
Q 775 1675 1300 1750 
Q 1650 1800 1912 1875 
Q 2175 1950 2175 2075 
Q 2175 2225 2062 2375 
Q 1950 2525 1575 2525 
Q 1275 2525 1137 2412 
Q 1000 2300 950 2100 
L 400 2100 
Q 450 2500 762 2737 
Q 1075 2975 1575 2975 
Q 2125 2975 2400 2725 
Q 2675 2475 2675 2025 
L 2675 650 
Q 2675 500 2725 375 
Q 2775 250 2875 125 
z
M 2175 1050 
L 2175 1550 
Q 2025 1500 1887 1462 
Q 1750 1425 1425 1375 
Q 1050 1325 937 1200 
Q 825 1075 825 900 
Q 825 750 937 637 
Q 1050 525 1275 525 
Q 1500 525 1762 650 
Q 2025 775 2175 1050 
z
" transform="scale(0.015625)"/>
      <path id="SimHei-73" d="M 2750 900 
Q 2750 500 2437 287 
Q 2125 75 1650 75 
Q 1050 75 725 312 
Q 400 550 400 1000 
L 900 1000 
Q 900 700 1112 600 
Q 1325 500 1625 500 
Q 1925 500 2075 612 
Q 2225 725 2225 900 
Q 2225 1025 2100 1150 
Q 1975 1275 1475 1350 
Q 900 1425 687 1637 
Q 475 1850 475 2200 
Q 475 2500 762 2737 
Q 1050 2975 1600 2975 
Q 2100 2975 2387 2750 
Q 2675 2525 2675 2150 
L 2175 2150 
Q 2175 2375 2012 2462 
Q 1850 2550 1600 2550 
Q 1275 2550 1137 2437 
Q 1000 2325 1000 2175 
Q 1000 2000 1125 1900 
Q 1250 1800 1650 1750 
Q 2300 1650 2525 1437 
Q 2750 1225 2750 900 
z
" transform="scale(0.015625)"/>
      <path id="SimHei-6f" d="M 2925 1525 
Q 2925 875 2525 475 
Q 2125 75 1575 75 
Q 1025 75 625 475 
Q 225 875 225 1525 
Q 225 2175 625 2575 
Q 1025 2975 1575 2975 
Q 2125 2975 2525 2575 
Q 2925 2175 2925 1525 
z
M 2375 1525 
Q 2375 2025 2125 2275 
Q 1875 2525 1575 2525 
Q 1275 2525 1025 2275 
Q 775 2025 775 1525 
Q 775 1025 1025 775 
Q 1275 525 1575 525 
Q 1875 525 2125 775 
Q 2375 1025 2375 1525 
z
" transform="scale(0.015625)"/>
      <path id="SimHei-66" d="M 2850 3825 
Q 2725 3900 2550 3950 
Q 2375 4000 2100 4000 
Q 1825 4000 1725 3862 
Q 1625 3725 1625 3525 
L 1625 2925 
L 2650 2925 
L 2650 2525 
L 1625 2525 
L 1625 125 
L 1125 125 
L 1125 2525 
L 275 2525 
L 275 2925 
L 1125 2925 
L 1125 3500 
Q 1125 3950 1400 4200 
Q 1675 4450 2125 4450 
Q 2400 4450 2562 4412 
Q 2725 4375 2850 4325 
L 2850 3825 
z
" transform="scale(0.015625)"/>
      <path id="SimHei-41" d="M 3075 125 
L 2475 125 
L 2125 1450 
L 1025 1450 
L 675 125 
L 75 125 
L 1325 4450 
L 1825 4450 
L 3075 125 
z
M 2000 1925 
L 1600 3450 
L 1550 3450 
L 1150 1925 
L 2000 1925 
z
" transform="scale(0.015625)"/>
      <path id="SimHei-6d" d="M 3050 125 
L 2550 125 
L 2550 2150 
Q 2550 2300 2500 2400 
Q 2450 2500 2300 2500 
Q 2125 2500 1975 2312 
Q 1825 2125 1825 1825 
L 1825 125 
L 1325 125 
L 1325 2150 
Q 1325 2300 1275 2400 
Q 1225 2500 1075 2500 
Q 900 2500 750 2312 
Q 600 2125 600 1825 
L 600 125 
L 100 125 
L 100 2925 
L 600 2925 
L 600 2550 
Q 725 2750 900 2862 
Q 1075 2975 1275 2975 
Q 1475 2975 1612 2862 
Q 1750 2750 1800 2550 
Q 1925 2750 2087 2862 
Q 2250 2975 2450 2975 
Q 2750 2975 2900 2812 
Q 3050 2650 3050 2350 
L 3050 125 
z
" transform="scale(0.015625)"/>
      <path id="SimHei-72" d="M 2500 2425 
Q 2025 2500 1700 2287 
Q 1375 2075 1150 1550 
L 1150 125 
L 650 125 
L 650 2925 
L 1150 2925 
L 1150 2200 
Q 1375 2600 1712 2787 
Q 2050 2975 2500 2975 
L 2500 2425 
z
" transform="scale(0.015625)"/>
      <path id="SimHei-63" d="M 2850 1250 
Q 2850 725 2487 400 
Q 2125 75 1575 75 
Q 1025 75 625 462 
Q 225 850 225 1525 
Q 225 2200 625 2587 
Q 1025 2975 1575 2975 
Q 2125 2975 2450 2687 
Q 2775 2400 2775 2000 
L 2225 2000 
Q 2200 2300 2012 2412 
Q 1825 2525 1575 2525 
Q 1275 2525 1025 2287 
Q 775 2050 775 1525 
Q 775 1000 1025 762 
Q 1275 525 1575 525 
Q 1900 525 2100 700 
Q 2300 875 2300 1250 
L 2850 1250 
z
" transform="scale(0.015625)"/>
     </defs>
     <use xlink:href="#SimHei-55"/>
     <use xlink:href="#SimHei-6e" x="50"/>
     <use xlink:href="#SimHei-69" x="100"/>
     <use xlink:href="#SimHei-74" x="150"/>
     <use xlink:href="#SimHei-65" x="200"/>
     <use xlink:href="#SimHei-64" x="250"/>
     <use xlink:href="#SimHei-20" x="300"/>
     <use xlink:href="#SimHei-53" x="350"/>
     <use xlink:href="#SimHei-74" x="400"/>
     <use xlink:href="#SimHei-61" x="450"/>
     <use xlink:href="#SimHei-74" x="500"/>
     <use xlink:href="#SimHei-65" x="550"/>
     <use xlink:href="#SimHei-73" x="600"/>
     <use xlink:href="#SimHei-20" x="650"/>
     <use xlink:href="#SimHei-6f" x="700"/>
     <use xlink:href="#SimHei-66" x="750"/>
     <use xlink:href="#SimHei-20" x="800"/>
     <use xlink:href="#SimHei-41" x="850"/>
     <use xlink:href="#SimHei-6d" x="900"/>
     <use xlink:href="#SimHei-65" x="950"/>
     <use xlink:href="#SimHei-72" x="1000"/>
     <use xlink:href="#SimHei-69" x="1050"/>
     <use xlink:href="#SimHei-63" x="1100"/>
     <use xlink:href="#SimHei-61" x="1150"/>
    </g>
   </g>
   <g id="text_2">
    <!-- Germany -->
    <g style="fill: #262626" transform="translate(265.832777 88.648419)scale(0.1 -0.1)">
     <defs>
      <path id="SimHei-47" d="M 2850 75 
L 2425 75 
L 2350 425 
Q 2250 275 2037 175 
Q 1825 75 1575 75 
Q 1050 75 637 562 
Q 225 1050 225 2125 
Q 225 3300 600 3875 
Q 975 4450 1625 4450 
Q 2200 4450 2525 4025 
Q 2850 3600 2850 2925 
L 2300 2925 
Q 2300 3450 2125 3712 
Q 1950 3975 1625 3975 
Q 1225 3975 1025 3562 
Q 825 3150 825 2175 
Q 825 1250 1075 900 
Q 1325 550 1650 550 
Q 1975 550 2162 787 
Q 2350 1025 2350 1525 
L 2350 1800 
L 1575 1800 
L 1575 2275 
L 2850 2275 
L 2850 75 
z
" transform="scale(0.015625)"/>
      <path id="SimHei-79" d="M 2900 2925 
L 1750 -100 
Q 1650 -450 1450 -625 
Q 1250 -800 950 -800 
Q 825 -800 712 -787 
Q 600 -775 500 -725 
L 500 -225 
Q 600 -275 700 -300 
Q 800 -325 875 -325 
Q 1075 -325 1150 -262 
Q 1225 -200 1300 25 
L 200 2925 
L 750 2925 
L 1550 725 
L 1575 725 
L 2350 2925 
L 2900 2925 
z
" transform="scale(0.015625)"/>
     </defs>
     <use xlink:href="#SimHei-47"/>
     <use xlink:href="#SimHei-65" x="50"/>
     <use xlink:href="#SimHei-72" x="100"/>
     <use xlink:href="#SimHei-6d" x="150"/>
     <use xlink:href="#SimHei-61" x="200"/>
     <use xlink:href="#SimHei-6e" x="250"/>
     <use xlink:href="#SimHei-79" x="300"/>
    </g>
   </g>
   <g id="text_3">
    <!-- Spain -->
    <g style="fill: #262626" transform="translate(60.63925 170.202973)scale(0.1 -0.1)">
     <defs>
      <path id="SimHei-70" d="M 2825 1525 
Q 2825 800 2475 425 
Q 2125 50 1625 50 
Q 1350 50 1150 162 
Q 950 275 800 500 
L 800 -800 
L 300 -800 
L 300 2925 
L 800 2925 
L 800 2550 
Q 950 2775 1150 2875 
Q 1350 2975 1625 2975 
Q 2125 2975 2475 2612 
Q 2825 2250 2825 1525 
z
M 2275 1525 
Q 2275 2000 2087 2262 
Q 1900 2525 1525 2525 
Q 1225 2525 1012 2262 
Q 800 2000 800 1525 
Q 800 1050 1012 775 
Q 1225 500 1525 500 
Q 1900 500 2087 775 
Q 2275 1050 2275 1525 
z
" transform="scale(0.015625)"/>
     </defs>
     <use xlink:href="#SimHei-53"/>
     <use xlink:href="#SimHei-70" x="50"/>
     <use xlink:href="#SimHei-61" x="100"/>
     <use xlink:href="#SimHei-69" x="150"/>
     <use xlink:href="#SimHei-6e" x="200"/>
    </g>
   </g>
   <g id="text_4">
    <!-- Iran -->
    <g style="fill: #262626" transform="translate(21.008278 323.213728)scale(0.1 -0.1)">
     <defs>
      <path id="SimHei-49" d="M 1850 125 
L 1275 125 
L 1275 4400 
L 1850 4400 
L 1850 125 
z
" transform="scale(0.015625)"/>
     </defs>
     <use xlink:href="#SimHei-49"/>
     <use xlink:href="#SimHei-72" x="50"/>
     <use xlink:href="#SimHei-61" x="100"/>
     <use xlink:href="#SimHei-6e" x="150"/>
    </g>
   </g>
   <g id="text_5">
    <!-- Italy -->
    <g style="fill: #262626" transform="translate(64.603683 439.315864)scale(0.1 -0.1)">
     <defs>
      <path id="SimHei-6c" d="M 1825 125 
L 1325 125 
L 1325 4400 
L 1825 4400 
L 1825 125 
z
" transform="scale(0.015625)"/>
     </defs>
     <use xlink:href="#SimHei-49"/>
     <use xlink:href="#SimHei-74" x="50"/>
     <use xlink:href="#SimHei-61" x="100"/>
     <use xlink:href="#SimHei-6c" x="150"/>
     <use xlink:href="#SimHei-79" x="200"/>
    </g>
   </g>
   <g id="text_6">
    <!-- France -->
    <g style="fill: #262626" transform="translate(142.904975 500.341065)scale(0.1 -0.1)">
     <defs>
      <path id="SimHei-46" d="M 2925 3925 
L 875 3925 
L 875 2525 
L 2425 2525 
L 2425 2050 
L 875 2050 
L 875 125 
L 300 125 
L 300 4400 
L 2925 4400 
L 2925 3925 
z
" transform="scale(0.015625)"/>
     </defs>
     <use xlink:href="#SimHei-46"/>
     <use xlink:href="#SimHei-72" x="50"/>
     <use xlink:href="#SimHei-61" x="100"/>
     <use xlink:href="#SimHei-6e" x="150"/>
     <use xlink:href="#SimHei-63" x="200"/>
     <use xlink:href="#SimHei-65" x="250"/>
    </g>
   </g>
   <g id="text_7">
    <!-- Turkey -->
    <g style="fill: #262626" transform="translate(221.350839 516.280994)scale(0.1 -0.1)">
     <defs>
      <path id="SimHei-54" d="M 2850 3925 
L 1850 3925 
L 1850 125 
L 1275 125 
L 1275 3925 
L 275 3925 
L 275 4400 
L 2850 4400 
L 2850 3925 
z
" transform="scale(0.015625)"/>
      <path id="SimHei-75" d="M 2800 125 
L 2300 125 
L 2300 650 
Q 2100 375 1862 225 
Q 1625 75 1250 75 
Q 800 75 575 325 
Q 350 575 350 950 
L 350 2925 
L 850 2925 
L 850 1125 
Q 850 825 1000 650 
Q 1150 475 1400 475 
Q 1725 475 2012 812 
Q 2300 1150 2300 1650 
L 2300 2925 
L 2800 2925 
L 2800 125 
z
" transform="scale(0.015625)"/>
      <path id="SimHei-6b" d="M 2925 125 
L 2350 125 
L 1450 1650 
L 875 1100 
L 875 125 
L 375 125 
L 375 4400 
L 875 4400 
L 875 1675 
L 2125 2925 
L 2750 2925 
L 1775 1975 
L 2925 125 
z
" transform="scale(0.015625)"/>
     </defs>
     <use xlink:href="#SimHei-54"/>
     <use xlink:href="#SimHei-75" x="50"/>
     <use xlink:href="#SimHei-72" x="100"/>
     <use xlink:href="#SimHei-6b" x="150"/>
     <use xlink:href="#SimHei-65" x="200"/>
     <use xlink:href="#SimHei-79" x="250"/>
    </g>
   </g>
   <g id="text_8">
    <!-- Brazil -->
    <g style="fill: #262626" transform="translate(318.548263 506.327892)scale(0.1 -0.1)">
     <defs>
      <path id="SimHei-42" d="M 2950 1400 
Q 2950 675 2550 400 
Q 2150 125 1525 125 
L 275 125 
L 275 4400 
L 1575 4400 
Q 2200 4400 2512 4075 
Q 2825 3750 2825 3300 
Q 2825 2850 2612 2637 
Q 2400 2425 2175 2350 
Q 2475 2275 2712 2037 
Q 2950 1800 2950 1400 
z
M 2250 3300 
Q 2250 3625 2062 3775 
Q 1875 3925 1600 3925 
L 850 3925 
L 850 2600 
L 1575 2600 
Q 1850 2600 2050 2762 
Q 2250 2925 2250 3300 
z
M 2350 1400 
Q 2350 1800 2087 1962 
Q 1825 2125 1500 2125 
L 850 2125 
L 850 600 
L 1425 600 
Q 1875 600 2112 775 
Q 2350 950 2350 1400 
z
" transform="scale(0.015625)"/>
      <path id="SimHei-7a" d="M 2775 125 
L 350 125 
L 350 525 
L 2050 2525 
L 450 2525 
L 450 2925 
L 2650 2925 
L 2650 2525 
L 950 525 
L 2775 525 
L 2775 125 
z
" transform="scale(0.015625)"/>
     </defs>
     <use xlink:href="#SimHei-42"/>
     <use xlink:href="#SimHei-72" x="50"/>
     <use xlink:href="#SimHei-61" x="100"/>
     <use xlink:href="#SimHei-7a" x="150"/>
     <use xlink:href="#SimHei-69" x="200"/>
     <use xlink:href="#SimHei-6c" x="250"/>
    </g>
   </g>
   <g id="text_9">
    <!-- Switzerland -->
    <g style="fill: #262626" transform="translate(363.995377 485.860548)scale(0.1 -0.1)">
     <defs>
      <path id="SimHei-77" d="M 3075 2925 
L 2450 75 
L 1975 75 
L 1575 2250 
L 1525 2250 
L 1125 75 
L 650 75 
L 25 2925 
L 550 2925 
L 875 1050 
L 925 1050 
L 1275 2925 
L 1825 2925 
L 2175 1050 
L 2225 1050 
L 2550 2925 
L 3075 2925 
z
" transform="scale(0.015625)"/>
     </defs>
     <use xlink:href="#SimHei-53"/>
     <use xlink:href="#SimHei-77" x="50"/>
     <use xlink:href="#SimHei-69" x="100"/>
     <use xlink:href="#SimHei-74" x="150"/>
     <use xlink:href="#SimHei-7a" x="200"/>
     <use xlink:href="#SimHei-65" x="250"/>
     <use xlink:href="#SimHei-72" x="300"/>
     <use xlink:href="#SimHei-6c" x="350"/>
     <use xlink:href="#SimHei-61" x="400"/>
     <use xlink:href="#SimHei-6e" x="450"/>
     <use xlink:href="#SimHei-64" x="500"/>
    </g>
   </g>
   <g id="text_10">
    <!-- Canada -->
    <g style="fill: #262626" transform="translate(394.619861 463.605368)scale(0.1 -0.1)">
     <defs>
      <path id="SimHei-43" d="M 2975 1825 
Q 2950 875 2575 475 
Q 2200 75 1675 75 
Q 1075 75 650 562 
Q 225 1050 225 2125 
Q 225 3300 637 3875 
Q 1050 4450 1700 4450 
Q 2250 4450 2612 4037 
Q 2975 3625 2950 2875 
L 2400 2875 
Q 2400 3425 2225 3700 
Q 2050 3975 1700 3975 
Q 1300 3975 1062 3562 
Q 825 3150 825 2175 
Q 825 1275 1062 912 
Q 1300 550 1675 550 
Q 1950 550 2175 812 
Q 2400 1075 2400 1825 
L 2975 1825 
z
" transform="scale(0.015625)"/>
     </defs>
     <use xlink:href="#SimHei-43"/>
     <use xlink:href="#SimHei-61" x="50"/>
     <use xlink:href="#SimHei-6e" x="100"/>
     <use xlink:href="#SimHei-61" x="150"/>
     <use xlink:href="#SimHei-64" x="200"/>
     <use xlink:href="#SimHei-61" x="250"/>
    </g>
   </g>
   <g id="text_11">
    <!-- Austria -->
    <g style="fill: #262626" transform="translate(414.816249 443.479166)scale(0.1 -0.1)">
     <use xlink:href="#SimHei-41"/>
     <use xlink:href="#SimHei-75" x="50"/>
     <use xlink:href="#SimHei-73" x="100"/>
     <use xlink:href="#SimHei-74" x="150"/>
     <use xlink:href="#SimHei-72" x="200"/>
     <use xlink:href="#SimHei-69" x="250"/>
     <use xlink:href="#SimHei-61" x="300"/>
    </g>
   </g>
   <g id="text_12">
    <!-- Russia -->
    <g style="fill: #262626" transform="translate(427.835571 427.098741)scale(0.1 -0.1)">
     <defs>
      <path id="SimHei-52" d="M 3000 125 
L 2400 125 
L 1500 1975 
L 850 1975 
L 850 125 
L 275 125 
L 275 4400 
L 1525 4400 
Q 2125 4400 2500 4112 
Q 2875 3825 2875 3175 
Q 2875 2675 2625 2400 
Q 2375 2125 2050 2050 
L 3000 125 
z
M 2300 3175 
Q 2300 3525 2087 3725 
Q 1875 3925 1400 3925 
L 850 3925 
L 850 2450 
L 1550 2450 
Q 1850 2450 2075 2612 
Q 2300 2775 2300 3175 
z
" transform="scale(0.015625)"/>
     </defs>
     <use xlink:href="#SimHei-52"/>
     <use xlink:href="#SimHei-75" x="50"/>
     <use xlink:href="#SimHei-73" x="100"/>
     <use xlink:href="#SimHei-73" x="150"/>
     <use xlink:href="#SimHei-69" x="200"/>
     <use xlink:href="#SimHei-61" x="250"/>
    </g>
   </g>
   <g id="text_13">
    <!-- Belgium -->
    <g style="fill: #262626" transform="translate(438.848281 410.118379)scale(0.1 -0.1)">
     <defs>
      <path id="SimHei-67" d="M 2975 2500 
Q 2800 2550 2637 2562 
Q 2475 2575 2300 2525 
Q 2375 2450 2425 2337 
Q 2475 2225 2475 2000 
Q 2475 1575 2187 1300 
Q 1900 1025 1475 1025 
Q 1375 1025 1212 1062 
Q 1050 1100 950 1150 
Q 875 1100 850 1050 
Q 825 1000 825 925 
Q 825 800 1000 737 
Q 1175 675 1625 675 
Q 2350 675 2612 475 
Q 2875 275 2875 -25 
Q 2875 -425 2487 -612 
Q 2100 -800 1575 -800 
Q 900 -800 575 -625 
Q 250 -450 250 -150 
Q 250 0 375 150 
Q 500 300 700 400 
Q 550 475 462 587 
Q 375 700 375 875 
Q 375 1025 487 1137 
Q 600 1250 750 1325 
Q 625 1450 550 1625 
Q 475 1800 475 2000 
Q 475 2425 762 2700 
Q 1050 2975 1475 2975 
Q 1700 2975 1862 2912 
Q 2025 2850 2150 2725 
Q 2350 2875 2550 2937 
Q 2750 3000 2975 2975 
L 2975 2500 
z
M 1975 2000 
Q 1975 2250 1850 2400 
Q 1725 2550 1475 2550 
Q 1225 2550 1100 2400 
Q 975 2250 975 2000 
Q 975 1750 1100 1600 
Q 1225 1450 1475 1450 
Q 1725 1450 1850 1600 
Q 1975 1750 1975 2000 
z
M 2400 -75 
Q 2400 25 2287 125 
Q 2175 225 1725 225 
Q 1625 225 1450 237 
Q 1275 250 1050 275 
Q 850 200 775 100 
Q 700 0 700 -100 
Q 700 -250 900 -350 
Q 1100 -450 1600 -450 
Q 2025 -450 2212 -337 
Q 2400 -225 2400 -75 
z
" transform="scale(0.015625)"/>
     </defs>
     <use xlink:href="#SimHei-42"/>
     <use xlink:href="#SimHei-65" x="50"/>
     <use xlink:href="#SimHei-6c" x="100"/>
     <use xlink:href="#SimHei-67" x="150"/>
     <use xlink:href="#SimHei-69" x="200"/>
     <use xlink:href="#SimHei-75" x="250"/>
     <use xlink:href="#SimHei-6d" x="300"/>
    </g>
   </g>
   <g id="text_14">
    <!-- Peru -->
    <g style="fill: #262626" transform="translate(447.623673 393.424948)scale(0.1 -0.1)">
     <defs>
      <path id="SimHei-50" d="M 2950 3100 
Q 2950 2500 2600 2150 
Q 2250 1800 1625 1800 
L 900 1800 
L 900 125 
L 325 125 
L 325 4400 
L 1625 4400 
Q 2250 4400 2600 4050 
Q 2950 3700 2950 3100 
z
M 2375 3100 
Q 2375 3575 2150 3750 
Q 1925 3925 1475 3925 
L 900 3925 
L 900 2275 
L 1475 2275 
Q 1925 2275 2150 2450 
Q 2375 2625 2375 3100 
z
" transform="scale(0.015625)"/>
     </defs>
     <use xlink:href="#SimHei-50"/>
     <use xlink:href="#SimHei-65" x="50"/>
     <use xlink:href="#SimHei-72" x="100"/>
     <use xlink:href="#SimHei-75" x="150"/>
    </g>
   </g>
   <g id="text_15">
    <!-- Ireland -->
    <g style="fill: #262626" transform="translate(454.18151 377.940295)scale(0.1 -0.1)">
     <use xlink:href="#SimHei-49"/>
     <use xlink:href="#SimHei-72" x="50"/>
     <use xlink:href="#SimHei-65" x="100"/>
     <use xlink:href="#SimHei-6c" x="150"/>
     <use xlink:href="#SimHei-61" x="200"/>
     <use xlink:href="#SimHei-6e" x="250"/>
     <use xlink:href="#SimHei-64" x="300"/>
    </g>
   </g>
   <g id="text_16">
    <!-- Korea -->
    <g style="fill: #262626" transform="translate(459.263533 362.807861)scale(0.1 -0.1)">
     <defs>
      <path id="SimHei-4b" d="M 3050 125 
L 2400 125 
L 1250 2250 
L 850 1725 
L 850 125 
L 275 125 
L 275 4400 
L 850 4400 
L 850 2550 
L 2275 4400 
L 2950 4400 
L 1625 2725 
L 3050 125 
z
" transform="scale(0.015625)"/>
     </defs>
     <use xlink:href="#SimHei-4b"/>
     <use xlink:href="#SimHei-6f" x="50"/>
     <use xlink:href="#SimHei-72" x="100"/>
     <use xlink:href="#SimHei-65" x="150"/>
     <use xlink:href="#SimHei-61" x="200"/>
    </g>
   </g>
   <g id="text_17">
    <!-- Israel -->
    <g style="fill: #262626" transform="translate(463.051438 348.039038)scale(0.1 -0.1)">
     <use xlink:href="#SimHei-49"/>
     <use xlink:href="#SimHei-73" x="50"/>
     <use xlink:href="#SimHei-72" x="100"/>
     <use xlink:href="#SimHei-61" x="150"/>
     <use xlink:href="#SimHei-65" x="200"/>
     <use xlink:href="#SimHei-6c" x="250"/>
    </g>
   </g>
   <g id="text_18">
    <!-- India -->
    <g style="fill: #262626" transform="translate(465.69134 333.630462)scale(0.1 -0.1)">
     <use xlink:href="#SimHei-49"/>
     <use xlink:href="#SimHei-6e" x="50"/>
     <use xlink:href="#SimHei-64" x="100"/>
     <use xlink:href="#SimHei-69" x="150"/>
     <use xlink:href="#SimHei-61" x="200"/>
    </g>
   </g>
   <g id="text_19">
    <!-- Chile -->
    <g style="fill: #262626" transform="translate(467.290459 319.685853)scale(0.1 -0.1)">
     <defs>
      <path id="SimHei-68" d="M 2800 125 
L 2300 125 
L 2300 1925 
Q 2300 2225 2150 2400 
Q 2000 2575 1750 2575 
Q 1425 2575 1137 2237 
Q 850 1900 850 1400 
L 850 125 
L 350 125 
L 350 4400 
L 850 4400 
L 850 2400 
Q 1050 2675 1287 2825 
Q 1525 2975 1900 2975 
Q 2350 2975 2575 2725 
Q 2800 2475 2800 2100 
L 2800 125 
z
" transform="scale(0.015625)"/>
     </defs>
     <use xlink:href="#SimHei-43"/>
     <use xlink:href="#SimHei-68" x="50"/>
     <use xlink:href="#SimHei-69" x="100"/>
     <use xlink:href="#SimHei-6c" x="150"/>
     <use xlink:href="#SimHei-65" x="200"/>
    </g>
   </g>
   <g id="text_20">
    <!-- Denmark -->
    <g style="fill: #262626" transform="translate(467.93201 307.63172)scale(0.1 -0.1)">
     <defs>
      <path id="SimHei-44" d="M 2925 2250 
Q 2925 1100 2437 612 
Q 1950 125 1125 125 
L 275 125 
L 275 4400 
L 1125 4400 
Q 2050 4400 2487 3900 
Q 2925 3400 2925 2250 
z
M 2325 2250 
Q 2325 3175 2025 3550 
Q 1725 3925 1125 3925 
L 850 3925 
L 850 600 
L 1125 600 
Q 1725 600 2025 962 
Q 2325 1325 2325 2250 
z
" transform="scale(0.015625)"/>
     </defs>
     <use xlink:href="#SimHei-44"/>
     <use xlink:href="#SimHei-65" x="50"/>
     <use xlink:href="#SimHei-6e" x="100"/>
     <use xlink:href="#SimHei-6d" x="150"/>
     <use xlink:href="#SimHei-61" x="200"/>
     <use xlink:href="#SimHei-72" x="250"/>
     <use xlink:href="#SimHei-6b" x="300"/>
    </g>
   </g>
   <g id="text_21">
    <!-- 2020年4月海外累计新增治愈人数前20 -->
    <g style="fill: #262626" transform="translate(88.990799 50.286076)scale(0.2 -0.2)">
     <defs>
      <path id="SimHei-32" d="M 300 250 
Q 325 625 650 925 
Q 975 1225 1475 1862 
Q 1975 2500 2125 2850 
Q 2275 3200 2237 3450 
Q 2200 3700 2000 3862 
Q 1800 4025 1537 4000 
Q 1275 3975 1037 3800 
Q 800 3625 675 3275 
L 200 3350 
Q 400 3925 712 4187 
Q 1025 4450 1450 4475 
Q 1700 4500 1900 4462 
Q 2100 4425 2312 4287 
Q 2525 4150 2662 3875 
Q 2800 3600 2762 3212 
Q 2725 2825 2375 2287 
Q 2025 1750 1025 600 
L 2825 600 
L 2825 150 
L 300 150 
L 300 250 
z
" transform="scale(0.015625)"/>
      <path id="SimHei-30" d="M 225 2537 
Q 250 3200 412 3587 
Q 575 3975 875 4225 
Q 1175 4475 1612 4475 
Q 2050 4475 2375 4112 
Q 2700 3750 2800 3200 
Q 2900 2650 2862 1937 
Q 2825 1225 2612 775 
Q 2400 325 1975 150 
Q 1550 -25 1125 187 
Q 700 400 525 750 
Q 350 1100 275 1487 
Q 200 1875 225 2537 
z
M 750 2687 
Q 675 2000 800 1462 
Q 925 925 1212 700 
Q 1500 475 1800 612 
Q 2100 750 2237 1162 
Q 2375 1575 2375 2062 
Q 2375 2550 2337 2950 
Q 2300 3350 2112 3675 
Q 1925 4000 1612 4012 
Q 1300 4025 1062 3700 
Q 825 3375 750 2687 
z
" transform="scale(0.015625)"/>
      <path id="SimHei-5e74" d="M 350 2925 
Q 900 3450 1375 4200 
Q 1850 4950 1900 5275 
Q 2275 5125 2600 5050 
Q 2375 4825 2100 4325 
L 4625 4325 
Q 5175 4325 5750 4350 
L 5750 3925 
Q 5225 3950 4625 3950 
L 3800 3950 
L 3800 2925 
Q 4750 2925 5475 2950 
L 5475 2525 
Q 4725 2550 3800 2550 
L 3800 1375 
L 5075 1375 
Q 5625 1375 6100 1400 
L 6100 975 
Q 5650 1000 5075 1000 
L 3800 1000 
L 3800 425 
Q 3800 -150 3825 -625 
L 3275 -625 
Q 3300 -150 3300 375 
L 3300 1000 
L 1600 1000 
Q 900 1000 275 975 
L 275 1400 
Q 875 1375 1450 1375 
Q 1450 2350 1425 2925 
L 3300 2925 
L 3300 3950 
L 1875 3950 
Q 1350 3150 925 2650 
Q 650 2875 350 2925 
z
M 3300 1375 
L 3300 2550 
L 1925 2550 
L 1925 1375 
L 3300 1375 
z
" transform="scale(0.015625)"/>
      <path id="SimHei-34" d="M 2000 1100 
L 75 1100 
L 75 1525 
L 2100 4450 
L 2475 4450 
L 2475 1525 
L 3075 1525 
L 3075 1100 
L 2475 1100 
L 2475 150 
L 2000 150 
L 2000 1100 
z
M 2000 1525 
L 2000 3500 
L 600 1525 
L 2000 1525 
z
" transform="scale(0.015625)"/>
      <path id="SimHei-6708" d="M 5250 4825 
Q 5200 4225 5200 3750 
L 5200 200 
Q 5200 -275 4950 -375 
Q 4700 -475 3975 -525 
Q 3925 -225 3750 50 
Q 4300 25 4512 50 
Q 4725 75 4725 400 
L 4725 1600 
L 1850 1600 
Q 1725 775 1450 225 
Q 1175 -325 900 -575 
Q 700 -400 400 -325 
Q 800 25 1037 512 
Q 1275 1000 1337 1475 
Q 1400 1950 1400 2525 
L 1400 3625 
Q 1400 4175 1375 4825 
L 5250 4825 
z
M 4725 3400 
L 4725 4450 
L 1875 4450 
L 1875 3400 
L 4725 3400 
z
M 4725 2000 
L 4725 3025 
L 1875 3025 
L 1875 2000 
L 4725 2000 
z
" transform="scale(0.015625)"/>
      <path id="SimHei-6d77" d="M 5325 600 
Q 5500 600 5800 625 
L 5800 175 
Q 5600 200 5300 200 
Q 5250 -375 5062 -500 
Q 4875 -625 4450 -675 
Q 4375 -450 4250 -175 
Q 4625 -200 4737 -137 
Q 4850 -75 4875 200 
L 2475 200 
Q 2550 975 2600 1725 
Q 2325 1725 2025 1700 
L 2025 2150 
Q 2275 2125 2625 2125 
Q 2675 3050 2700 3475 
Q 2575 3300 2250 2875 
Q 2075 3050 1875 3175 
Q 2300 3600 2587 4175 
Q 2875 4750 3000 5250 
Q 3300 5075 3525 5025 
Q 3425 4900 3250 4525 
L 5050 4525 
Q 5525 4525 5900 4550 
L 5900 4100 
Q 5525 4125 5025 4125 
L 3075 4125 
Q 2900 3825 2725 3550 
L 5450 3550 
Q 5425 2950 5400 2125 
Q 5675 2125 6000 2150 
L 6000 1700 
Q 5675 1725 5375 1725 
Q 5350 1400 5325 600 
z
M 4975 1725 
L 3000 1725 
Q 2950 1050 2925 600 
L 4925 600 
L 4975 1725 
z
M 3075 3150 
Q 3075 2825 3025 2125 
L 5000 2125 
Q 5000 2675 5025 3150 
L 3075 3150 
z
M 1750 1525 
Q 1600 1300 1375 750 
Q 1150 200 775 -475 
Q 675 -325 300 -200 
Q 600 225 875 787 
Q 1150 1350 1350 1850 
Q 1525 1650 1750 1525 
z
M 1400 2225 
Q 725 2775 250 3050 
Q 425 3225 525 3450 
Q 975 3175 1725 2650 
Q 1525 2425 1400 2225 
z
M 825 5050 
Q 1300 4775 2025 4300 
Q 1850 4075 1700 3875 
Q 1125 4350 550 4675 
Q 725 4875 825 5050 
z
M 3875 1625 
Q 4150 1225 4325 900 
Q 4125 800 3975 675 
Q 3775 1075 3550 1400 
Q 3725 1525 3875 1625 
z
M 3925 3100 
Q 4200 2700 4350 2400 
Q 4150 2300 4000 2175 
Q 3850 2500 3625 2875 
L 3925 3100 
z
" transform="scale(0.015625)"/>
      <path id="SimHei-5916" d="M 2150 4875 
Q 2000 4650 1912 4425 
Q 1825 4200 1725 3975 
L 3275 3975 
Q 3150 3075 2937 2450 
Q 2725 1825 2412 1350 
Q 2100 875 1675 437 
Q 1250 0 650 -375 
Q 475 -100 200 0 
Q 775 250 1275 712 
Q 1775 1175 2000 1600 
Q 1675 1950 1150 2325 
Q 1325 2475 1475 2675 
Q 1975 2275 2250 2050 
Q 2425 2400 2525 2775 
Q 2625 3150 2700 3550 
L 1575 3550 
Q 1425 3225 1187 2825 
Q 950 2425 575 2025 
Q 450 2200 200 2375 
Q 625 2775 862 3187 
Q 1100 3600 1250 4025 
Q 1400 4450 1550 5075 
Q 1825 4950 2150 4875 
z
M 4225 5125 
Q 4200 4725 4200 4325 
L 4200 475 
Q 4200 0 4225 -500 
L 3675 -500 
Q 3700 0 3700 475 
L 3700 4325 
Q 3700 4725 3675 5125 
L 4225 5125 
z
M 4675 3450 
Q 4900 3200 5337 2687 
Q 5775 2175 6075 1725 
Q 5825 1575 5650 1400 
Q 5425 1800 5025 2300 
Q 4625 2800 4300 3150 
Q 4450 3300 4675 3450 
z
" transform="scale(0.015625)"/>
      <path id="SimHei-7d2f" d="M 5475 5000 
Q 5450 4600 5450 3975 
Q 5450 3350 5475 2950 
L 4675 2950 
Q 4850 2775 5075 2600 
Q 4800 2525 4237 2275 
Q 3675 2025 3262 1837 
Q 2850 1650 2400 1425 
Q 3850 1525 4650 1575 
Q 4425 1725 4200 1850 
Q 4375 2000 4500 2175 
Q 5125 1800 5900 1300 
Q 5750 1125 5575 900 
Q 5375 1075 5100 1250 
Q 4250 1175 3475 1125 
L 3475 50 
Q 3475 -350 3212 -462 
Q 2950 -575 2600 -600 
Q 2575 -375 2375 -50 
Q 2800 -75 2900 -25 
Q 3000 25 3000 125 
L 3000 1075 
Q 2400 1050 1987 1012 
Q 1575 975 850 875 
Q 775 1125 700 1350 
Q 1150 1400 1575 1512 
Q 2000 1625 3025 2125 
Q 1775 2025 1250 1925 
Q 1200 2200 1100 2375 
Q 1325 2375 1737 2537 
Q 2150 2700 2475 2950 
L 950 2950 
Q 975 3375 975 3975 
Q 975 4600 950 5000 
L 5475 5000 
z
M 2425 525 
Q 2200 400 1762 137 
Q 1325 -125 850 -425 
Q 700 -225 500 -25 
Q 850 125 1250 362 
Q 1650 600 2025 900 
Q 2150 725 2425 525 
z
M 2975 4100 
L 2975 4650 
L 1450 4650 
L 1450 4100 
L 2975 4100 
z
M 4975 4100 
L 4975 4650 
L 3450 4650 
L 3450 4100 
L 4975 4100 
z
M 4275 850 
Q 4750 650 5050 500 
L 5850 100 
Q 5675 -125 5575 -375 
Q 5150 -100 4775 100 
Q 4400 300 4050 450 
Q 4200 675 4275 850 
z
M 2975 3275 
L 2975 3750 
L 1450 3750 
L 1450 3275 
L 2975 3275 
z
M 4975 3275 
L 4975 3750 
L 3450 3750 
L 3450 3275 
L 4975 3275 
z
M 3700 2475 
Q 4200 2700 4575 2950 
L 3225 2950 
Q 2900 2750 2300 2425 
Q 3075 2450 3700 2475 
z
" transform="scale(0.015625)"/>
      <path id="SimHei-8ba1" d="M 3925 3100 
L 3925 4350 
Q 3925 4850 3900 5125 
L 4425 5125 
Q 4400 4800 4400 4550 
L 4400 3100 
L 5425 3100 
Q 5725 3100 6075 3125 
L 6075 2650 
Q 5700 2675 5450 2675 
L 4400 2675 
L 4400 175 
Q 4400 -125 4425 -550 
L 3900 -550 
Q 3925 -125 3925 150 
L 3925 2675 
L 2950 2675 
Q 2575 2675 2200 2650 
L 2200 3125 
Q 2575 3100 2900 3100 
L 3925 3100 
z
M 1775 3150 
Q 1750 2675 1750 2150 
L 1750 625 
Q 2175 1050 2425 1400 
Q 2575 1200 2775 1000 
L 2075 300 
Q 1750 -25 1450 -350 
Q 1275 -125 1125 50 
Q 1300 250 1275 650 
L 1275 2725 
Q 600 2725 275 2700 
L 275 3175 
Q 675 3150 825 3150 
L 1775 3150 
z
M 1150 5050 
Q 1475 4725 2175 4000 
Q 1950 3800 1750 3625 
Q 1425 4100 775 4750 
Q 950 4875 1150 5050 
z
" transform="scale(0.015625)"/>
      <path id="SimHei-65b0" d="M 6125 4650 
Q 5750 4650 4275 4500 
L 4275 3225 
L 5575 3225 
Q 5850 3225 6150 3250 
L 6150 2775 
Q 5800 2800 5550 2800 
L 5550 225 
Q 5550 -200 5575 -675 
L 5050 -675 
Q 5075 -200 5075 200 
L 5075 2800 
L 4275 2800 
Q 4275 2175 4225 1600 
Q 4175 1025 4012 462 
Q 3850 -100 3525 -700 
Q 3275 -550 3025 -450 
Q 3425 125 3587 762 
Q 3750 1400 3775 1875 
Q 3800 2350 3800 3300 
Q 3800 4275 3775 4850 
Q 4900 4900 5800 5200 
Q 6000 4800 6125 4650 
z
M 2975 3825 
Q 2800 3725 2575 3050 
Q 3000 3050 3450 3075 
L 3450 2575 
Q 3025 2600 2175 2600 
L 2175 1975 
Q 2950 1975 3400 2000 
L 3400 1500 
Q 2950 1525 2175 1525 
L 2175 0 
Q 2175 -375 1937 -500 
Q 1700 -625 1325 -625 
Q 1225 -325 1075 -75 
Q 1425 -100 1562 -75 
Q 1700 -50 1700 150 
L 1700 1525 
Q 900 1525 450 1500 
L 450 2000 
Q 925 1975 1700 1975 
L 1700 2600 
Q 775 2600 325 2575 
L 325 3075 
Q 775 3050 1175 3050 
L 2125 3050 
Q 2325 3650 2425 3975 
Q 2625 3925 2975 3825 
z
M 2125 5275 
Q 2250 4750 2275 4550 
Q 2850 4550 3350 4575 
L 3350 4075 
Q 2825 4100 2500 4100 
L 1300 4100 
Q 875 4100 475 4075 
L 475 4575 
Q 900 4550 1300 4550 
L 1750 4550 
Q 1700 4825 1600 5125 
Q 1850 5200 2125 5275 
z
M 1525 1050 
Q 1375 875 1175 612 
Q 975 350 600 -125 
Q 425 50 225 175 
Q 750 750 1050 1375 
Q 1300 1175 1525 1050 
z
M 2725 1300 
Q 3025 900 3275 475 
Q 3025 350 2875 150 
Q 2675 600 2350 1025 
Q 2525 1175 2725 1300 
z
M 1275 3950 
Q 1450 3600 1575 3250 
Q 1350 3200 1150 3100 
Q 1025 3475 875 3775 
Q 1050 3875 1275 3950 
z
" transform="scale(0.015625)"/>
      <path id="SimHei-589e" d="M 5475 5000 
Q 5325 4825 5212 4612 
Q 5100 4400 5025 4225 
L 5975 4225 
Q 5950 3975 5950 3525 
L 5950 2850 
Q 5950 2400 5975 2125 
L 2500 2125 
Q 2525 2550 2525 2900 
L 2525 3600 
Q 2525 4000 2500 4225 
L 4575 4225 
Q 4800 4850 4875 5250 
L 5475 5000 
z
M 5750 1750 
Q 5725 1400 5725 1100 
L 5725 125 
Q 5725 -300 5750 -625 
L 5250 -625 
L 5250 -300 
L 3250 -300 
L 3250 -625 
L 2775 -625 
Q 2800 -75 2800 75 
L 2800 1075 
Q 2800 1425 2775 1750 
L 5750 1750 
z
M 2500 875 
Q 2025 725 1375 525 
Q 725 325 450 175 
Q 325 475 200 675 
Q 925 850 1150 925 
L 1150 2975 
L 1000 2975 
Q 650 2975 275 2950 
L 275 3400 
Q 650 3375 1000 3375 
L 1150 3375 
L 1150 4250 
Q 1150 4625 1125 4975 
L 1650 4975 
Q 1625 4575 1625 4250 
L 1625 3375 
L 1800 3375 
Q 2075 3375 2325 3400 
L 2325 2950 
Q 2000 2975 1800 2975 
L 1625 2975 
L 1625 1050 
Q 2100 1175 2450 1275 
L 2500 875 
z
M 5475 2450 
L 5475 3875 
L 4425 3875 
L 4425 2450 
L 5475 2450 
z
M 3975 2450 
L 3975 3875 
L 2975 3875 
L 2975 2450 
L 3975 2450 
z
M 5250 875 
L 5250 1350 
L 3250 1350 
L 3250 875 
L 5250 875 
z
M 5250 75 
L 5250 500 
L 3250 500 
L 3250 75 
L 5250 75 
z
M 3825 4500 
Q 3600 4400 3425 4250 
Q 3300 4500 2925 4975 
Q 3100 5050 3300 5250 
Q 3525 4950 3825 4500 
z
M 5350 3500 
Q 5225 3225 5000 2675 
Q 4775 2800 4550 2875 
Q 4750 3250 4875 3675 
Q 5050 3575 5350 3500 
z
M 3050 3425 
Q 3200 3525 3450 3625 
Q 3575 3400 3800 2875 
Q 3575 2775 3375 2700 
Q 3250 3100 3050 3425 
z
" transform="scale(0.015625)"/>
      <path id="SimHei-6cbb" d="M 5625 2025 
Q 5600 1625 5600 1225 
L 5600 150 
Q 5600 -200 5625 -675 
L 5075 -675 
L 5075 -150 
L 3025 -150 
L 3025 -675 
L 2500 -675 
Q 2525 -300 2525 150 
L 2525 1200 
Q 2525 1625 2500 2025 
L 5625 2025 
z
M 4225 4900 
Q 4050 4775 3750 4300 
Q 3450 3825 2775 3025 
Q 4025 3150 5125 3225 
Q 4875 3625 4625 3925 
Q 4850 4075 5000 4200 
Q 5900 3075 6125 2675 
Q 5900 2575 5675 2400 
Q 5550 2600 5350 2850 
Q 4350 2775 3650 2712 
Q 2950 2650 2350 2475 
Q 2225 2800 2100 3075 
Q 2325 3150 2587 3400 
Q 2850 3650 3187 4250 
Q 3525 4850 3625 5200 
Q 3925 5025 4225 4900 
z
M 5075 325 
L 5075 1550 
L 3025 1550 
L 3025 325 
L 5075 325 
z
M 375 -325 
Q 625 -50 962 650 
Q 1300 1350 1450 1850 
Q 1650 1675 1900 1525 
Q 1750 1350 1425 550 
Q 1100 -250 950 -675 
Q 700 -475 375 -325 
z
M 1500 2300 
Q 975 2725 325 3050 
Q 425 3250 575 3500 
Q 1275 3125 1800 2775 
Q 1650 2575 1500 2300 
z
M 1750 3825 
Q 1325 4250 700 4650 
Q 850 4825 1000 5025 
Q 1600 4650 2100 4250 
Q 1925 4100 1750 3825 
z
" transform="scale(0.015625)"/>
      <path id="SimHei-6108" d="M 3375 4900 
Q 3825 4525 4450 4250 
Q 5075 3975 6025 3825 
Q 5800 3525 5700 3350 
Q 4775 3575 4125 3900 
L 4125 3550 
L 2150 3550 
L 2150 3900 
Q 1325 3475 600 3175 
Q 475 3425 275 3600 
Q 1125 3775 1900 4225 
Q 2675 4675 3025 5300 
Q 3225 5175 3550 5075 
L 3375 4900 
z
M 2475 1475 
Q 2900 1575 2850 1825 
L 1675 1825 
L 1675 1125 
L 1175 1125 
Q 1200 1825 1200 2325 
Q 1200 2850 1175 3250 
L 3350 3250 
Q 3325 2875 3325 2525 
L 3325 1625 
Q 3325 1325 3125 1225 
Q 2925 1125 2575 1075 
L 2475 1475 
z
M 2350 800 
Q 2325 475 2325 275 
L 2325 -25 
Q 2325 -175 2550 -175 
L 3850 -175 
Q 4075 -175 4225 -100 
Q 4375 -25 4450 350 
Q 4650 225 4975 100 
Q 4800 -400 4525 -475 
Q 4250 -550 3900 -550 
L 2325 -550 
Q 1900 -525 1875 -312 
Q 1850 -100 1850 200 
Q 1850 525 1825 800 
L 2350 800 
z
M 5350 3250 
Q 5325 2850 5325 2425 
L 5325 1750 
Q 5350 1375 5237 1300 
Q 5125 1225 4525 1100 
Q 4475 1350 4400 1575 
Q 4875 1575 4875 1800 
L 4875 2400 
Q 4875 2900 4825 3250 
L 5350 3250 
z
M 1425 500 
Q 900 -250 625 -625 
Q 425 -475 225 -300 
Q 500 -50 1050 775 
Q 1225 625 1425 500 
z
M 4300 3200 
Q 4275 2850 4275 2475 
Q 4275 2125 4300 1825 
L 3800 1825 
Q 3825 2125 3825 2475 
Q 3825 2850 3800 3200 
L 4300 3200 
z
M 4025 3950 
Q 3625 4200 3175 4650 
Q 2575 4150 2250 3950 
L 4025 3950 
z
M 5700 -300 
Q 5575 -75 4925 675 
Q 5100 800 5250 925 
Q 5900 200 6050 0 
Q 5850 -150 5700 -300 
z
M 2850 2100 
L 2850 2400 
L 1675 2400 
L 1675 2100 
L 2850 2100 
z
M 2850 2675 
L 2850 2950 
L 1675 2950 
L 1675 2675 
L 2850 2675 
z
M 3350 125 
Q 3275 275 2950 750 
Q 3125 875 3275 975 
Q 3575 625 3750 375 
Q 3550 275 3350 125 
z
" transform="scale(0.015625)"/>
      <path id="SimHei-4eba" d="M 350 -150 
Q 1325 325 1875 1025 
Q 2425 1725 2637 2462 
Q 2850 3200 2875 3837 
Q 2900 4475 2850 5175 
Q 3125 5150 3475 5125 
Q 3400 4725 3400 4300 
Q 3400 3875 3450 3325 
Q 3500 2775 4162 1662 
Q 4825 550 6100 0 
Q 5800 -300 5700 -500 
Q 3950 350 3200 2575 
Q 2700 600 775 -575 
Q 625 -375 350 -150 
z
" transform="scale(0.015625)"/>
      <path id="SimHei-6570" d="M 4525 4925 
Q 4475 4800 4400 4587 
Q 4325 4375 4175 3825 
L 5325 3825 
Q 5575 3825 5925 3850 
L 5925 3400 
Q 5650 3425 5500 3425 
Q 5500 3025 5362 2162 
Q 5225 1300 4875 675 
Q 5125 375 5437 137 
Q 5750 -100 6025 -200 
Q 5725 -425 5625 -625 
Q 5325 -450 5075 -225 
Q 4825 0 4575 325 
Q 4300 25 3987 -187 
Q 3675 -400 3200 -650 
Q 3075 -425 2850 -300 
Q 3225 -150 3650 125 
Q 4075 400 4300 675 
Q 4125 1025 3962 1425 
Q 3800 1825 3675 2475 
Q 3600 2275 3425 1950 
Q 3250 2050 3000 2150 
Q 3400 2850 3650 3675 
Q 3900 4500 3975 5100 
Q 4275 4975 4525 4925 
z
M 2100 2250 
Q 2000 2150 1875 1925 
L 3250 1925 
Q 3100 1300 2725 675 
Q 3125 525 3350 400 
Q 3225 225 3125 25 
Q 2900 175 2450 325 
Q 1950 -225 725 -650 
Q 600 -375 400 -275 
Q 1575 0 2000 475 
Q 1300 650 850 775 
Q 1000 1000 1250 1525 
Q 1000 1525 425 1500 
L 425 1950 
Q 900 1925 1400 1925 
Q 1500 2150 1550 2425 
Q 1825 2325 2100 2250 
z
M 1775 3950 
Q 1775 4550 1750 5100 
L 2250 5100 
Q 2225 4575 2225 3950 
Q 3075 3950 3425 3975 
L 3425 3525 
Q 3075 3550 2225 3550 
Q 2225 2825 2250 2425 
L 1750 2425 
Q 1775 2775 1775 3300 
Q 1650 3100 1300 2787 
Q 950 2475 650 2300 
Q 525 2525 275 2625 
Q 500 2700 875 2975 
Q 1250 3250 1450 3550 
Q 950 3550 500 3525 
L 500 3975 
Q 925 3950 1775 3950 
z
M 3975 3175 
Q 4200 1700 4600 1125 
Q 4850 1700 4937 2287 
Q 5025 2875 5050 3425 
L 4075 3425 
L 3975 3175 
z
M 1450 1000 
Q 1750 925 2275 800 
Q 2475 1050 2650 1525 
L 1725 1525 
Q 1600 1275 1450 1000 
z
M 3325 4825 
Q 3200 4625 3125 4450 
Q 3050 4275 2925 4025 
Q 2725 4125 2525 4175 
Q 2725 4500 2900 5000 
Q 3150 4875 3325 4825 
z
M 2575 3375 
Q 2900 3050 3200 2725 
Q 3050 2600 2875 2425 
Q 2525 2850 2300 3100 
Q 2450 3225 2575 3375 
z
M 925 5000 
Q 1275 4650 1500 4300 
L 1125 4075 
Q 950 4425 600 4725 
Q 825 4875 925 5000 
z
" transform="scale(0.015625)"/>
      <path id="SimHei-524d" d="M 2075 -100 
Q 2400 -100 2537 -87 
Q 2675 -75 2675 100 
L 2675 875 
L 1325 875 
L 1325 -650 
L 800 -650 
Q 850 -200 850 350 
L 850 2350 
Q 850 2850 825 3300 
L 3175 3300 
Q 3150 2875 3150 2375 
L 3150 -150 
Q 3150 -400 2950 -475 
Q 2750 -550 2275 -625 
Q 2200 -350 2075 -100 
z
M 4950 5075 
Q 4825 4975 4687 4750 
Q 4550 4525 4375 4225 
L 5400 4225 
Q 5750 4225 6175 4250 
L 6175 3775 
Q 5775 3825 5300 3825 
L 1350 3825 
Q 700 3825 250 3775 
L 250 4250 
Q 775 4225 1350 4225 
L 3875 4225 
Q 4300 5025 4350 5300 
Q 4625 5150 4950 5075 
z
M 4375 -75 
Q 4825 -100 4937 -75 
Q 5050 -50 5050 150 
L 5050 2750 
Q 5050 3050 5025 3400 
L 5550 3400 
Q 5525 3075 5525 2750 
L 5525 -25 
Q 5525 -350 5362 -450 
Q 5200 -550 4600 -600 
Q 4550 -275 4375 -75 
z
M 3775 575 
Q 3800 950 3800 1225 
L 3800 2375 
Q 3800 2775 3775 3075 
L 4300 3075 
Q 4275 2775 4275 2375 
L 4275 1250 
Q 4275 875 4300 575 
L 3775 575 
z
M 2675 2250 
L 2675 2925 
L 1325 2925 
L 1325 2250 
L 2675 2250 
z
M 2675 1250 
L 2675 1875 
L 1325 1875 
L 1325 1250 
L 2675 1250 
z
M 2225 4300 
Q 2125 4575 1750 5050 
Q 2025 5175 2200 5300 
Q 2550 4850 2725 4550 
Q 2500 4450 2225 4300 
z
" transform="scale(0.015625)"/>
     </defs>
     <use xlink:href="#SimHei-32"/>
     <use xlink:href="#SimHei-30" x="50"/>
     <use xlink:href="#SimHei-32" x="100"/>
     <use xlink:href="#SimHei-30" x="150"/>
     <use xlink:href="#SimHei-5e74" x="200"/>
     <use xlink:href="#SimHei-34" x="300"/>
     <use xlink:href="#SimHei-6708" x="350"/>
     <use xlink:href="#SimHei-6d77" x="450"/>
     <use xlink:href="#SimHei-5916" x="550"/>
     <use xlink:href="#SimHei-7d2f" x="650"/>
     <use xlink:href="#SimHei-8ba1" x="750"/>
     <use xlink:href="#SimHei-65b0" x="850"/>
     <use xlink:href="#SimHei-589e" x="950"/>
     <use xlink:href="#SimHei-6cbb" x="1050"/>
     <use xlink:href="#SimHei-6108" x="1150"/>
     <use xlink:href="#SimHei-4eba" x="1250"/>
     <use xlink:href="#SimHei-6570" x="1350"/>
     <use xlink:href="#SimHei-524d" x="1450"/>
     <use xlink:href="#SimHei-32" x="1550"/>
     <use xlink:href="#SimHei-30" x="1600"/>
    </g>
   </g>
  </g>
 </g>
</svg>
